<svg xmlns="http://www.w3.org/2000/svg" width="22.238" height="27.333" viewBox="0 0 22.238 27.333">
  <g id="Group_37" data-name="Group 37" transform="translate(-158.969 -829.333)">
    <path id="Path_56" data-name="Path 56" d="M28.745,64.506A6.211,6.211,0,0,1,31.7,59.294a6.361,6.361,0,0,0-5.01-2.708c-2.108-.221-4.151,1.262-5.226,1.262-1.095,0-2.748-1.24-4.529-1.2a6.671,6.671,0,0,0-5.614,3.424c-2.428,4.2-.618,10.381,1.708,13.779,1.163,1.663,2.524,3.521,4.3,3.455,1.741-.072,2.391-1.109,4.493-1.109,2.083,0,2.693,1.109,4.508,1.068C28.2,77.231,29.38,75.59,30.5,73.91a13.736,13.736,0,0,0,1.906-3.882A6,6,0,0,1,28.745,64.506Z" transform="translate(148.799 779.362)" fill="#006400"/>
    <path id="Path_57" data-name="Path 57" d="M24.266,54.978a6.112,6.112,0,0,0,1.4-4.381,6.222,6.222,0,0,0-4.026,2.083A5.818,5.818,0,0,0,20.2,56.9,5.144,5.144,0,0,0,24.266,54.978Z" transform="translate(149.848 778.736)" fill="#006400"/>
  </g>
</svg>
