<svg id="Layer_1" data-name="Layer 1" xmlns="http://www.w3.org/2000/svg" viewBox="0 0 260 225"><defs><style>.cls-1{fill:#0077da;}</style></defs><title>Classes Door</title><path class="cls-1" d="M242.48,155.27c5.44,10.39,4.73,19.84-3.86,28.3-.72.7-.58,2.69-.26,3.94,2.7,10.38-1.4,20-11.68,23.34-8.6,2.78-17.8,4.92-26.78,5.1-31,.6-62,.27-92.95.2-11.34,0-19.92-7.87-20-19.3-.29-30.15-.17-60.31,0-90.46,0-8.43,3.51-14.85,11.89-18.5a39.06,39.06,0,0,0,11.63-8.43c8.55-8.65,17.61-17,24.61-26.86,5.8-8.12,9-18.08,13.24-27.29,1.31-2.87,2-6,3.25-8.91,2.79-6.84,6.52-9.18,13.45-8.63s11.12,3.73,12.59,10.71a65.26,65.26,0,0,1-1.06,30.18c-2.72,10.47-5.75,20.86-8.62,31.29-.3,1.09-.45,2.21-.8,4,8.58.54,16.83,1,25.07,1.61,13.45,1,26.91,1.93,40.32,3.37,19.33,2.07,26.92,19.34,15.81,35.29a4.08,4.08,0,0,0-.57,3.39C253,138.14,250.77,147.24,242.48,155.27Z"/><path class="cls-1" d="M70.39,152.09c0,15.48,0,31,0,46.46,0,11.37-6.21,17.55-17.66,17.62-9.65.06-19.31.09-29,0C13,216.07,6.59,209.65,6.58,199q-.07-47,0-93.92c0-10.62,6.45-17,17.19-17.11q14.75-.15,29.48,0c10.77.11,17.08,6.45,17.13,17.14C70.44,120.78,70.39,136.43,70.39,152.09Z"/></svg>