<svg xmlns="http://www.w3.org/2000/svg" width="34.303" height="26.999" viewBox="0 0 34.303 26.999">
  <g id="Group_313" data-name="Group 313" transform="translate(-1169.448 -82.501)">
    <g id="Group_312" data-name="Group 312">
      <g id="Group_311" data-name="Group 311">
        <g id="Group_310" data-name="Group 310">
          <g id="Group_309" data-name="Group 309">
            <g id="Group_308" data-name="Group 308">
              <g id="Group_307" data-name="Group 307">
                <g id="Group_306" data-name="Group 306">
                  <g id="Group_305" data-name="Group 305">
                    <g id="Group_304" data-name="Group 304">
                      <g id="Group_303" data-name="Group 303">
                        <g id="Group_302" data-name="Group 302">
                          <g id="Group_301" data-name="Group 301">
                            <g id="Group_300" data-name="Group 300">
                              <g id="Group_299" data-name="Group 299">
                                <g id="Group_298" data-name="Group 298">
                                  <g id="Group_252" data-name="Group 252" transform="translate(1123.848 -7.899)" opacity="0.4">
                                    <path id="Path_279" data-name="Path 279" d="M76.056,93.465H70.643V93.4a2.928,2.928,0,0,0-.88-2.119h0a2.983,2.983,0,0,0-2.119-.88H57.86a3,3,0,0,0-2.152.88h0a2.984,2.984,0,0,0-.88,2.119v.065h-5.38a3.688,3.688,0,0,0-2.706,1.141A3.877,3.877,0,0,0,45.6,97.313v16.239a3.688,3.688,0,0,0,1.141,2.706,3.877,3.877,0,0,0,2.706,1.141H76.056a3.688,3.688,0,0,0,2.706-1.141,3.877,3.877,0,0,0,1.141-2.706V97.313a3.9,3.9,0,0,0-3.848-3.848Zm2.119,20.086a2.115,2.115,0,0,1-2.119,2.119H49.448a2.115,2.115,0,0,1-2.119-2.119V97.313a2.115,2.115,0,0,1,2.119-2.119h6.293a.877.877,0,0,0,.88-.88v-.946a1.281,1.281,0,0,1,.359-.913h0a1.281,1.281,0,0,1,.913-.359h9.75a1.227,1.227,0,0,1,1.272,1.272v.946a.877.877,0,0,0,.88.88h6.293a2.115,2.115,0,0,1,2.119,2.119v16.239Z"/>
                                    <path id="Path_280" data-name="Path 280" d="M165.621,176.4a8.016,8.016,0,1,0,5.674,2.348A8.036,8.036,0,0,0,165.621,176.4Zm4.435,12.489a6.3,6.3,0,0,1-8.869,0,6.234,6.234,0,0,1-1.826-4.435,6.372,6.372,0,0,1,1.826-4.435,6.234,6.234,0,0,1,4.435-1.826,6.372,6.372,0,0,1,4.435,1.826,6.234,6.234,0,0,1,1.826,4.435A6.1,6.1,0,0,1,170.056,188.889Z" transform="translate(-102.87 -78.989)"/>
                                    <circle id="Ellipse_107" data-name="Ellipse 107" cx="1.598" cy="1.598" r="1.598" transform="translate(72.762 97.378)"/>
                                  </g>
                                </g>
                              </g>
                            </g>
                          </g>
                        </g>
                      </g>
                    </g>
                  </g>
                </g>
              </g>
            </g>
          </g>
        </g>
      </g>
    </g>
  </g>
</svg>
