<svg xmlns="http://www.w3.org/2000/svg" width="8.168" height="10" viewBox="0 0 8.168 10">
  <g id="Group_297" data-name="Group 297" transform="translate(0 0)">
    <path id="Path_110" data-name="Path 110" d="M96.142,168.124l-.221-.662a.616.616,0,0,0-.585-.421H93.48v-.6a.548.548,0,0,0-.547-.548h-1.7a.548.548,0,0,0-.547.548v.6H88.831a.616.616,0,0,0-.585.421l-.221.662a.5.5,0,0,0,.47.652h.231l.508,6.281a.909.909,0,0,0,.9.831h4a.909.909,0,0,0,.9-.831l.508-6.281h.128a.5.5,0,0,0,.47-.652Zm-4.87-1.649h1.622v.566H91.272Zm3.18,8.535a.32.32,0,0,1-.316.293h-4a.32.32,0,0,1-.316-.293l-.5-6.234h5.643Zm-5.831-6.82.181-.543a.03.03,0,0,1,.029-.021h6.506a.031.031,0,0,1,.029.021l.181.543Zm0,0" transform="translate(-88 -165.889)" fill="#006400"/>
    <path id="Path_111" data-name="Path 111" d="M356.573,337.332h.015a.293.293,0,0,0,.292-.278l.275-5.281a.293.293,0,1,0-.585-.031l-.275,5.281a.293.293,0,0,0,.277.308Zm0,0" transform="translate(-351.055 -328.231)" fill="#006400"/>
    <path id="Path_112" data-name="Path 112" d="M194.082,337.058a.293.293,0,0,0,.292.277h.016a.293.293,0,0,0,.277-.308l-.288-5.281a.293.293,0,1,0-.585.032Zm0,0" transform="translate(-191.727 -328.234)" fill="#006400"/>
    <path id="Path_113" data-name="Path 113" d="M282.547,337.334a.293.293,0,0,0,.293-.293V331.76a.293.293,0,0,0-.586,0v5.281a.293.293,0,0,0,.293.293Zm0,0" transform="translate(-278.46 -328.233)" fill="#006400"/>
  </g>
</svg>
