<svg xmlns="http://www.w3.org/2000/svg" width="9.375" height="10" viewBox="0 0 9.375 10">
  <path id="Path_303" data-name="Path 303" d="M23.617,6.484A1.756,1.756,0,0,0,22.2,7.2l-2.759-1.41a1.758,1.758,0,0,0-.057-1.155L22.279,2.9a1.751,1.751,0,1,0-.3-.5l-2.9,1.742a1.758,1.758,0,1,0,.108,2.18l2.751,1.406a1.758,1.758,0,1,0,1.679-1.237Zm0-5.9a1.172,1.172,0,1,1-1.172,1.172A1.173,1.173,0,0,1,23.617.586Zm-5.86,5.879A1.172,1.172,0,1,1,18.93,5.293,1.173,1.173,0,0,1,17.758,6.465Zm5.86,2.949a1.172,1.172,0,1,1,1.172-1.172A1.173,1.173,0,0,1,23.617,9.414Z" transform="translate(-16)" fill="#006400"/>
</svg>
