<svg xmlns="http://www.w3.org/2000/svg" width="20" height="12.747" viewBox="0 0 20 12.747">
  <g id="view_pass_icon" opacity="0.4">
    <path id="Path_581" data-name="Path 581" d="M19.873,5.985C19.694,5.74,15.437,0,10,0S.305,5.74.127,5.984a.66.66,0,0,0,0,.778c.178.244,4.436,5.985,9.873,5.985s9.694-5.74,9.873-5.984A.659.659,0,0,0,19.873,5.985ZM10,11.429c-4.005,0-7.474-3.81-8.5-5.055C2.525,5.127,5.986,1.319,10,1.319s7.473,3.809,8.5,5.055C17.475,7.621,14.014,11.429,10,11.429Z"/>
    <path id="Path_582" data-name="Path 582" d="M10,2.418a3.956,3.956,0,1,0,3.956,3.956A3.961,3.961,0,0,0,10,2.418Zm0,6.593a2.637,2.637,0,1,1,2.637-2.637A2.64,2.64,0,0,1,10,9.011Z"/>
  </g>
</svg>
