<svg xmlns="http://www.w3.org/2000/svg" width="12.735" height="14.857" viewBox="0 0 12.735 14.857">
  <path id="Icon_metro-file-pdf" data-name="Icon metro-file-pdf" d="M14.742,5.354a1.929,1.929,0,0,1,.4.63,1.913,1.913,0,0,1,.166.73v9.551a.793.793,0,0,1-.8.8H3.367a.793.793,0,0,1-.8-.8V3a.793.793,0,0,1,.8-.8H10.8a1.914,1.914,0,0,1,.73.166,1.929,1.929,0,0,1,.63.4ZM11.061,3.331V6.448h3.117A.906.906,0,0,0,14,6.109l-2.6-2.6a.906.906,0,0,0-.34-.182ZM14.244,16V7.51H10.8a.793.793,0,0,1-.8-.8V3.265H3.632V16H14.244ZM9.983,11.083a6.308,6.308,0,0,0,.7.464,8.227,8.227,0,0,1,.97-.058q1.219,0,1.467.406a.4.4,0,0,1,.017.431.024.024,0,0,1-.008.017l-.017.017v.008q-.05.315-.589.315a3.42,3.42,0,0,1-.953-.166,6.045,6.045,0,0,1-1.078-.439,14.929,14.929,0,0,0-3.25.688Q5.97,14.938,5.232,14.938A.482.482,0,0,1,5,14.88l-.2-.1-.05-.041a.343.343,0,0,1-.05-.3,1.8,1.8,0,0,1,.464-.759,4.007,4.007,0,0,1,1.094-.8.121.121,0,0,1,.191.05.048.048,0,0,1,.017.033q.431-.7.887-1.633A12.654,12.654,0,0,0,8.217,9.16a6.7,6.7,0,0,1-.253-1.322A3.224,3.224,0,0,1,8.018,6.78q.091-.332.348-.332h.182a.35.35,0,0,1,.29.124.662.662,0,0,1,.075.564A.18.18,0,0,1,8.88,7.2a.216.216,0,0,1,.008.066v.249A10.857,10.857,0,0,1,8.772,9.11a4.2,4.2,0,0,0,1.21,1.973ZM5.207,14.491a3.661,3.661,0,0,0,1.136-1.31,4.726,4.726,0,0,0-.725.7A2.756,2.756,0,0,0,5.207,14.491Zm3.3-7.628A2.465,2.465,0,0,0,8.49,7.957q.008-.058.058-.365,0-.025.058-.357A.186.186,0,0,1,8.64,7.17a.024.024,0,0,1-.008-.017.017.017,0,0,0,0-.012.017.017,0,0,1,0-.012.477.477,0,0,0-.108-.3.024.024,0,0,1-.008.017v.017Zm-1.028,5.48a12.161,12.161,0,0,1,2.355-.672,1.251,1.251,0,0,1-.108-.079,1.485,1.485,0,0,1-.133-.112A4.392,4.392,0,0,1,8.54,10.022a11.079,11.079,0,0,1-.688,1.633q-.249.464-.373.688Zm5.356-.133a1.984,1.984,0,0,0-1.161-.2,3.136,3.136,0,0,0,1.028.232.8.8,0,0,0,.149-.008q0-.008-.017-.025Z" transform="translate(-2.571 -2.204)"/>
</svg>
