<svg xmlns="http://www.w3.org/2000/svg" width="12.735" height="14.857" viewBox="0 0 12.735 14.857">
  <path id="Icon_metro-file-excel" data-name="Icon metro-file-excel" d="M14.742,5.354a1.929,1.929,0,0,1,.4.63,1.913,1.913,0,0,1,.166.73v9.551a.793.793,0,0,1-.8.8H3.367a.793.793,0,0,1-.8-.8V3a.793.793,0,0,1,.8-.8H10.8a1.914,1.914,0,0,1,.73.166,1.929,1.929,0,0,1,.63.4ZM11.061,3.331V6.448h3.117A.906.906,0,0,0,14,6.109l-2.6-2.6a.906.906,0,0,0-.34-.182ZM14.244,16V7.51H10.8a.793.793,0,0,1-.8-.8V3.265H3.632V16H14.244ZM6.128,14.06v.879h2.33V14.06H7.835l.854-1.335a1.189,1.189,0,0,0,.083-.137q.041-.079.062-.112t.029-.033H8.88a.286.286,0,0,0,.041.083.463.463,0,0,0,.037.062l.05.066.054.07L9.95,14.06h-.63v.879h2.413V14.06h-.564L9.577,11.8l1.617-2.338h.555V8.571H9.436v.887h.614L9.2,10.776q-.033.058-.083.137t-.075.112l-.017.025H9a.285.285,0,0,0-.041-.083.989.989,0,0,0-.141-.191L7.943,9.458h.63V8.571h-2.4v.887h.564L8.3,11.713,6.691,14.06H6.128Z" transform="translate(-2.571 -2.204)"/>
</svg>
