<svg id="notification_1_" data-name="notification (1)" xmlns="http://www.w3.org/2000/svg" width="24.616" height="29.539" viewBox="0 0 24.616 29.539">
  <g id="Group_9" data-name="Group 9" transform="translate(0 4.308)">
    <g id="Group_8" data-name="Group 8">
      <path id="Path_27" data-name="Path 27" d="M42.745,95.274l2.114-3.522a10.47,10.47,0,0,0,1.49-5.383V83.282a8.615,8.615,0,1,1,17.231,0v3.086a10.47,10.47,0,0,0,1.49,5.383l2.114,3.522a.615.615,0,0,1-.528.932H43.273a.615.615,0,0,1-.528-.932Zm22.826-.3-1.554-2.591a11.69,11.69,0,0,1-1.666-6.016V83.282a7.385,7.385,0,0,0-14.769,0v3.086a11.7,11.7,0,0,1-1.665,6.016L44.36,94.975H65.571Z" transform="translate(-42.657 -74.667)" fill="#212121"/>
    </g>
  </g>
  <g id="Group_11" data-name="Group 11" transform="translate(9.847)">
    <g id="Group_10" data-name="Group 10" transform="translate(0)">
      <path id="Path_28" data-name="Path 28" d="M215.795,0a2.464,2.464,0,0,1,2.462,2.462V4.923a.615.615,0,0,1-1.231,0V2.462a1.231,1.231,0,0,0-2.462,0V4.923a.615.615,0,0,1-1.231,0V2.462A2.464,2.464,0,0,1,215.795,0Z" transform="translate(-213.333)" fill="#212121"/>
    </g>
  </g>
  <g id="Group_13" data-name="Group 13" transform="translate(9.229 24.616)">
    <g id="Group_12" data-name="Group 12" transform="translate(0)">
      <path id="Path_29" data-name="Path 29" d="M203.082,426.983a.616.616,0,0,1,1.063.623,1.846,1.846,0,1,0,3.2,0,.616.616,0,0,1,1.063-.623,3.078,3.078,0,1,1-5.324,0Z" transform="translate(-202.666 -426.68)" fill="#212121"/>
    </g>
  </g>
</svg>
