<svg xmlns="http://www.w3.org/2000/svg" width="31.5" height="31.5" viewBox="0 0 31.5 31.5">
  <g id="Icon_ionic-ios-help-circle-outline" data-name="Icon ionic-ios-help-circle-outline" transform="translate(-3.125 -3.125)">
    <path id="Path_61" data-name="Path 61" d="M18.875,5.462A13.408,13.408,0,1,1,9.389,9.389a13.325,13.325,0,0,1,9.486-3.927m0-2.087a15.5,15.5,0,1,0,15.5,15.5,15.5,15.5,0,0,0-15.5-15.5Z" transform="translate(0 0)" fill="#212121" stroke="#fff" stroke-width="0.5"/>
    <path id="Path_62" data-name="Path 62" d="M18.321,11.25c2.794,0,4.717,1.55,4.717,3.778a3.645,3.645,0,0,1-2.094,3.309c-1.3.753-1.736,1.3-1.736,2.258v.589H16.622l-.022-.641a3.1,3.1,0,0,1,1.759-3.279c1.259-.753,1.788-1.23,1.788-2.154a1.809,1.809,0,0,0-2-1.6,1.885,1.885,0,0,0-2,1.833H13.5C13.552,12.942,15.326,11.25,18.321,11.25Zm-1.96,12.773a1.6,1.6,0,1,1,1.595,1.535A1.561,1.561,0,0,1,16.362,24.023Z" transform="translate(0.606 0.471)" fill="#212121" stroke="#fff" stroke-width="0.5"/>
  </g>
</svg>
