<svg id="dashboard" xmlns="http://www.w3.org/2000/svg" width="31" height="31" viewBox="0 0 31 31">
  <path id="Path_2" data-name="Path 2" d="M12.109,0H2.422A2.425,2.425,0,0,0,0,2.422V15.984a2.425,2.425,0,0,0,2.422,2.422h9.688a2.425,2.425,0,0,0,2.422-2.422V2.422A2.425,2.425,0,0,0,12.109,0Zm1.453,15.984a1.455,1.455,0,0,1-1.453,1.453H2.422A1.455,1.455,0,0,1,.969,15.984V2.422A1.455,1.455,0,0,1,2.422.969h9.688a1.455,1.455,0,0,1,1.453,1.453Z" fill="#212121"/>
  <path id="Path_3" data-name="Path 3" d="M12.109,336H2.422A2.425,2.425,0,0,0,0,338.422v5.813a2.425,2.425,0,0,0,2.422,2.422h9.688a2.425,2.425,0,0,0,2.422-2.422v-5.812A2.425,2.425,0,0,0,12.109,336Zm1.453,8.234a1.455,1.455,0,0,1-1.453,1.453H2.422a1.455,1.455,0,0,1-1.453-1.453v-5.812a1.455,1.455,0,0,1,1.453-1.453h9.688a1.455,1.455,0,0,1,1.453,1.453Z" transform="translate(0 -315.656)" fill="#212121"/>
  <path id="Path_4" data-name="Path 4" d="M286.531,223.984V210.422A2.425,2.425,0,0,0,284.109,208h-9.687A2.425,2.425,0,0,0,272,210.422v13.563a2.425,2.425,0,0,0,2.422,2.422h9.688A2.425,2.425,0,0,0,286.531,223.984Zm-.969,0a1.455,1.455,0,0,1-1.453,1.453h-9.687a1.455,1.455,0,0,1-1.453-1.453V210.422a1.455,1.455,0,0,1,1.453-1.453h9.688a1.455,1.455,0,0,1,1.453,1.453Z" transform="translate(-255.531 -195.406)" fill="#212121"/>
  <path id="Path_5" data-name="Path 5" d="M286.531,8.234V2.422A2.425,2.425,0,0,0,284.109,0h-9.687A2.425,2.425,0,0,0,272,2.422V8.234a2.425,2.425,0,0,0,2.422,2.422h9.688A2.425,2.425,0,0,0,286.531,8.234Zm-.969,0a1.455,1.455,0,0,1-1.453,1.453h-9.687a1.455,1.455,0,0,1-1.453-1.453V2.422A1.455,1.455,0,0,1,274.422.969h9.688a1.455,1.455,0,0,1,1.453,1.453Z" transform="translate(-255.531)" fill="#212121"/>
</svg>
