<svg id="Group_14" data-name="Group 14" xmlns="http://www.w3.org/2000/svg" width="30.505" height="29.157" viewBox="0 0 30.505 29.157">
  <path id="Path_30" data-name="Path 30" d="M9.663,24.791h8.62a.663.663,0,0,0,0-1.326H9.663a.663.663,0,1,0,0,1.326Z" transform="translate(-3.032 -17.431)" fill="#212121"/>
  <path id="Path_31" data-name="Path 31" d="M26.9,29.465H9.663a.663.663,0,1,0,0,1.326H26.9a.663.663,0,1,0,0-1.326Z" transform="translate(-3.032 -19.452)" fill="#212121"/>
  <path id="Path_32" data-name="Path 32" d="M26.9,35.465H9.663a.663.663,0,0,0,0,1.326H26.9a.663.663,0,0,0,0-1.326Z" transform="translate(-3.032 -21.474)" fill="#212121"/>
  <path id="Subtraction_2" data-name="Subtraction 2" d="M8.62,29.157a.671.671,0,0,1-.239-.044.659.659,0,0,1-.424-.619V21.863H3.932A3.936,3.936,0,0,1,0,17.931V3.913A3.938,3.938,0,0,1,3.543,0H27.286A3.932,3.932,0,0,1,30.5,3.866V15.837l0,0v1.972l0,0v.075a3.936,3.936,0,0,1-3.932,3.931l-11.024.045L9.111,28.94A.667.667,0,0,1,8.62,29.157ZM9.947,1.293h0l-6.013.013A2.61,2.61,0,0,0,1.326,3.913V17.931a2.609,2.609,0,0,0,2.606,2.606H8.62a.664.664,0,0,1,.663.663v5.579l5.477-6.026a.663.663,0,0,1,.488-.217l11.319-.046a2.61,2.61,0,0,0,2.608-2.606V3.865A2.609,2.609,0,0,0,26.57,1.26L9.948,1.294Z" transform="translate(0 0)" fill="#212121"/>
</svg>
