<svg xmlns="http://www.w3.org/2000/svg" width="29.563" height="29.538" viewBox="0 0 29.563 29.538">
  <g id="setting" transform="translate(0 0)">
    <path id="Path_23" data-name="Path 23" d="M18.492,31.538H15.023a.844.844,0,0,1-.844-.738l-.422-2.916a10.853,10.853,0,0,1-2.789-1.139L8.651,28.521a.844.844,0,0,1-1.127-.076L5.077,25.989A.844.844,0,0,1,5,24.867l1.777-2.355a10.655,10.655,0,0,1-1.144-2.751l-2.916-.422a.865.865,0,0,1-.738-.844v-3.46a.844.844,0,0,1,.738-.844l2.916-.422a10.655,10.655,0,0,1,1.144-2.751L5.01,8.671a.844.844,0,0,1,.08-1.122L7.542,5.1A.844.844,0,0,1,8.66,5.021l2.355,1.772a10.617,10.617,0,0,1,2.751-1.139l.422-2.916A.844.844,0,0,1,15.032,2H18.5a.844.844,0,0,1,.844.738l.422,2.916a10.617,10.617,0,0,1,2.751,1.139l2.355-1.772A.844.844,0,0,1,25.99,5.1l2.452,2.452a.844.844,0,0,1,.08,1.122l-1.777,2.355a10.655,10.655,0,0,1,1.144,2.751l2.916.422a.844.844,0,0,1,.738.844v3.469a.865.865,0,0,1-.738.844l-2.916.422a10.655,10.655,0,0,1-1.144,2.751l1.777,2.355a.844.844,0,0,1-.08,1.122L25.99,28.458a.844.844,0,0,1-1.118.08l-2.355-1.777A10.617,10.617,0,0,1,19.766,27.9l-.422,2.916A.844.844,0,0,1,18.492,31.538Zm-7.541-5.73a.422.422,0,0,1,.219.063,10.127,10.127,0,0,0,3.072,1.266.422.422,0,0,1,.321.354l.447,3.2h3.481l.46-3.207a.422.422,0,0,1,.321-.354,9.765,9.765,0,0,0,3.03-1.266.422.422,0,0,1,.477,0l2.582,1.95,2.469-2.452-1.945-2.6a.422.422,0,0,1-.021-.477,9.858,9.858,0,0,0,1.266-3.03.422.422,0,0,1,.354-.321l3.2-.422V15.035l-3.211-.464a.422.422,0,0,1-.354-.321,9.9,9.9,0,0,0-1.266-3.03.422.422,0,0,1,.021-.477l1.945-2.578L25.366,5.7l-2.6,1.945a.422.422,0,0,1-.477.021A9.866,9.866,0,0,0,19.26,6.4a.422.422,0,0,1-.321-.35l-.435-3.2H15.023l-.46,3.211a.422.422,0,0,1-.321.35,9.866,9.866,0,0,0-3.03,1.266.422.422,0,0,1-.477-.021L8.153,5.7,5.685,8.157l1.945,2.6a.422.422,0,0,1,.021.477,9.9,9.9,0,0,0-1.266,3.03.422.422,0,0,1-.354.321l-3.2.443V18.5l3.211.46a.422.422,0,0,1,.354.321,9.857,9.857,0,0,0,1.266,3.03.422.422,0,0,1-.021.477l-1.95,2.582,2.452,2.473,2.561-1.95A.422.422,0,0,1,10.951,25.808Z" transform="translate(-1.98 -2)" fill="#212121"/>
    <path id="Path_24" data-name="Path 24" d="M26.018,34.035a8.018,8.018,0,1,1,8.018-8.018A8.018,8.018,0,0,1,26.018,34.035Zm0-15.191a7.174,7.174,0,1,0,7.174,7.174A7.174,7.174,0,0,0,26.018,18.844Z" transform="translate(-11.24 -11.248)" fill="#212121"/>
    <path id="Path_25" data-name="Path 25" d="M18.492,31.544H15.023a.844.844,0,0,1-.844-.738l-.422-2.916a10.853,10.853,0,0,1-2.789-1.139L8.651,28.527a.844.844,0,0,1-1.127-.076L5.077,25.995A.844.844,0,0,1,5,24.873l1.777-2.355a10.655,10.655,0,0,1-1.144-2.751l-2.916-.422A.844.844,0,0,1,1.98,18.5v-3.46a.865.865,0,0,1,.738-.844l2.916-.422a10.655,10.655,0,0,1,1.144-2.751L5.01,8.681a.844.844,0,0,1,.08-1.122L7.542,5.107a.844.844,0,0,1,1.118-.08L11.014,6.8a10.617,10.617,0,0,1,2.751-1.139l.422-2.916a.844.844,0,0,1,.844-.738H18.5a.844.844,0,0,1,.844.738l.422,2.916A10.617,10.617,0,0,1,22.517,6.8l2.355-1.777a.844.844,0,0,1,1.118.08l2.452,2.452a.844.844,0,0,1,.08,1.122l-1.793,2.355a10.655,10.655,0,0,1,1.144,2.751l2.916.422a.865.865,0,0,1,.738.844v3.469a.844.844,0,0,1-.738.844l-2.916.422a10.655,10.655,0,0,1-1.144,2.751l1.777,2.355a.844.844,0,0,1-.08,1.122l-2.452,2.452a.844.844,0,0,1-1.118.076L22.5,26.771a10.617,10.617,0,0,1-2.751,1.139l-.422,2.916A.844.844,0,0,1,18.492,31.544Zm-7.541-5.726a.422.422,0,0,1,.219.063,10.216,10.216,0,0,0,3.072,1.266.422.422,0,0,1,.321.35l.447,3.2h3.481l.46-3.211a.422.422,0,0,1,.321-.35,9.866,9.866,0,0,0,3.03-1.266.422.422,0,0,1,.477.021l2.582,1.95,2.469-2.456-1.945-2.6a.422.422,0,0,1-.021-.477,9.9,9.9,0,0,0,1.266-3.03.422.422,0,0,1,.354-.321l3.2-.443V15.041l-3.211-.46a.422.422,0,0,1-.354-.321,9.857,9.857,0,0,0-1.266-3.03.422.422,0,0,1,.021-.477l1.945-2.582L25.366,5.7l-2.6,1.95a.422.422,0,0,1-.477,0,9.765,9.765,0,0,0-3.03-1.266.422.422,0,0,1-.321-.354L18.5,2.85H15.023l-.46,3.207a.422.422,0,0,1-.321.354,9.765,9.765,0,0,0-3.03,1.266.422.422,0,0,1-.477,0L8.153,5.728,5.685,8.179l1.945,2.6a.422.422,0,0,1,.021.477,9.857,9.857,0,0,0-1.266,3.03.422.422,0,0,1-.354.321l-3.2.422v3.481l3.211.464a.422.422,0,0,1,.354.321,9.9,9.9,0,0,0,1.266,3.03.422.422,0,0,1-.021.477L5.681,25.383l2.452,2.473,2.561-1.95A.422.422,0,0,1,10.951,25.818Z" transform="translate(-1.98 -2.006)" fill="#212121"/>
    <path id="Path_26" data-name="Path 26" d="M26.018,34.035a8.018,8.018,0,1,1,8.018-8.018A8.018,8.018,0,0,1,26.018,34.035Zm0-15.191a7.174,7.174,0,1,0,7.174,7.174A7.174,7.174,0,0,0,26.018,18.844Z" transform="translate(-11.24 -11.248)" fill="#212121"/>
  </g>
</svg>
