<svg xmlns="http://www.w3.org/2000/svg" width="29.167" height="31" viewBox="0 0 29.167 31">
  <g id="invitation" transform="translate(0 0)">
    <path id="Path_18" data-name="Path 18" d="M29.144,12.374a.461.461,0,0,0-.006-.074,2.435,2.435,0,0,0-.85-1.473l-1.713-1.42V5.3a2.4,2.4,0,0,0-2.393-2.394H18.733L15.755.437a1.846,1.846,0,0,0-2.387,0L10.4,2.906H4.986A2.4,2.4,0,0,0,2.593,5.3V9.4L.877,10.827A2.44,2.44,0,0,0,.03,12.3a.46.46,0,0,0-.006.074L0,29.631A1.345,1.345,0,0,0,1.317,31H27.851a1.346,1.346,0,0,0,1.317-1.37ZM.931,13.3c1.762,1.379,6.331,4.957,9.634,7.562L.909,29.446Zm10.358,8.133c.861.68,1.6,1.266,2.127,1.689a1.859,1.859,0,0,0,2.338,0c.526-.421,1.26-1,2.115-1.679l9.7,8.645H1.549Zm16.971,8.057-9.668-8.619c3.3-2.606,7.882-6.19,9.646-7.57ZM13.949,1.137a.949.949,0,0,1,1.226,0l2.135,1.77H11.822ZM1.458,11.526l1.135-.944V12.46a.454.454,0,0,0,.908,0V5.3A1.487,1.487,0,0,1,4.986,3.814h19.2A1.487,1.487,0,0,1,25.667,5.3V12.46a.454.454,0,0,0,.908,0V10.586l1.134.94a1.534,1.534,0,0,1,.469.673c-1.534,1.2-10.2,7.98-12.993,10.219a.944.944,0,0,1-1.2,0C11.189,20.179,2.524,13.4.99,12.2a1.534,1.534,0,0,1,.468-.672Zm0,0" transform="translate(0 0)" fill="#212121"/>
    <path id="Path_19" data-name="Path 19" d="M143.315,109.8l2.71,1.969-1.035,3.186a.783.783,0,0,0,1.205.876l2.71-1.969,2.71,1.969a.783.783,0,0,0,1.205-.876l-1.035-3.186,2.71-1.969a.783.783,0,0,0-.461-1.417h-3.35l-1.035-3.186a.784.784,0,0,0-1.49,0l-1.035,3.186h-3.35a.783.783,0,0,0-.46,1.417Zm3.9-.509a.782.782,0,0,0,.745-.541l.944-2.907.945,2.907a.782.782,0,0,0,.745.541h3.056l-2.473,1.8a.781.781,0,0,0-.285.876l.944,2.907-2.472-1.8a.781.781,0,0,0-.921,0l-2.473,1.8.945-2.907a.782.782,0,0,0-.285-.876l-2.473-1.8Zm0,0" transform="translate(-134.334 -98.323)" fill="#212121"/>
  </g>
</svg>
