<svg xmlns="http://www.w3.org/2000/svg" width="29.838" height="31.179" viewBox="0 0 29.838 31.179">
  <path id="Path_289" data-name="Path 289" d="M57.319,32.779,43.446,19.384a1.041,1.041,0,0,0-1.453,0L28.12,32.778a1.046,1.046,0,0,0,.726,1.8H30.69V49.222a1.046,1.046,0,0,0,1.046,1.046h7.322A1.046,1.046,0,0,0,40.1,49.222V40.853h5.23v8.368a1.046,1.046,0,0,0,1.046,1.046H53.7a1.046,1.046,0,0,0,1.046-1.046V34.577h1.844a1.046,1.046,0,0,0,.727-1.8Zm-2.571.752A1.046,1.046,0,0,0,53.7,34.577V49.222H46.38V40.853a1.046,1.046,0,0,0-1.046-1.046H40.1a1.046,1.046,0,0,0-1.046,1.046v8.368H31.736V34.577a1.046,1.046,0,0,0-1.046-1.046H28.846L42.719,20.137,56.6,33.531Z" transform="translate(-27.8 -19.089)" fill="#212121"/>
</svg>
