<svg id="maps-and-flags" xmlns="http://www.w3.org/2000/svg" width="14.258" height="14.258" viewBox="0 0 14.258 14.258">
  <g id="Group_91" data-name="Group 91">
    <g id="Group_90" data-name="Group 90">
      <path id="Path_57" data-name="Path 57" d="M7.129,0a7.129,7.129,0,1,0,7.129,7.129A7.125,7.125,0,0,0,7.129,0Zm0,13.308a6.179,6.179,0,1,1,6.179-6.179A6.186,6.186,0,0,1,7.129,13.308Z"/>
    </g>
  </g>
  <g id="Group_93" data-name="Group 93" transform="translate(3.216 4.37)">
    <g id="Group_92" data-name="Group 92">
      <path id="Path_58" data-name="Path 58" d="M123.174,157.069a.475.475,0,0,0-.672,0l-4.231,4.231-1.972-1.972a.475.475,0,0,0-.672.672l2.308,2.308a.475.475,0,0,0,.672,0l4.567-4.567A.475.475,0,0,0,123.174,157.069Z" transform="translate(-115.487 -156.93)"/>
    </g>
  </g>
</svg>
