<svg xmlns="http://www.w3.org/2000/svg" width="10.499" height="12.855" viewBox="0 0 10.499 12.855">
  <g id="Group_134" data-name="Group 134" transform="translate(0.279 0.285)">
    <path id="Path_110" data-name="Path 110" d="M98.466,168.762l-.284-.851a.791.791,0,0,0-.752-.542H95.045v-.777a.7.7,0,0,0-.7-.7H92.157a.7.7,0,0,0-.7.7v.777H89.068a.792.792,0,0,0-.752.542l-.284.851a.637.637,0,0,0,.6.838h.3l.653,8.074a1.168,1.168,0,0,0,1.158,1.069h5.144a1.168,1.168,0,0,0,1.158-1.069L97.7,169.6h.164a.637.637,0,0,0,.6-.838Zm-6.26-2.12h2.086v.728H92.207Zm4.088,10.972a.411.411,0,0,1-.407.376H90.744a.411.411,0,0,1-.407-.376l-.648-8.014h7.254Zm-7.5-8.767.233-.7a.039.039,0,0,1,.037-.027h8.363a.039.039,0,0,1,.037.027l.233.7Zm0,0" transform="translate(-88.279 -166.174)"/>
    <path id="Path_111" data-name="Path 111" d="M356.653,339.007h.02a.377.377,0,0,0,.376-.357l.354-6.789a.377.377,0,0,0-.752-.039l-.354,6.789a.377.377,0,0,0,.357.4Zm0,0" transform="translate(-349.839 -327.593)"/>
    <path id="Path_112" data-name="Path 112" d="M194.164,338.654a.377.377,0,0,0,.376.356h.021a.377.377,0,0,0,.356-.4l-.37-6.789a.377.377,0,1,0-.752.041Zm0,0" transform="translate(-191.417 -327.595)"/>
    <path id="Path_113" data-name="Path 113" d="M282.631,339.009a.377.377,0,0,0,.377-.377v-6.789a.377.377,0,0,0-.753,0v6.789a.377.377,0,0,0,.377.377Zm0,0" transform="translate(-277.656 -327.594)"/>
  </g>
</svg>
