<svg xmlns="http://www.w3.org/2000/svg" width="18.48" height="10.78" viewBox="0 0 18.48 10.78">
  <g id="visibility_1_" data-name="visibility (1)" transform="translate(0 0)">
    <g id="Group_224" data-name="Group 224" transform="translate(0 0)">
      <g id="Group_223" data-name="Group 223" transform="translate(0)">
        <path id="Path_253" data-name="Path 253" d="M18.412,111.833c-.146-.212-3.643-5.171-9.172-5.171-4.744,0-8.972,4.931-9.149,5.141a.386.386,0,0,0,0,.5c.178.21,4.405,5.141,9.149,5.141s8.972-4.931,9.149-5.141A.385.385,0,0,0,18.412,111.833ZM9.24,116.672c-3.8,0-7.419-3.627-8.338-4.62.917-.994,4.529-4.62,8.338-4.62,4.45,0,7.591,3.621,8.358,4.6C16.713,112.993,13.076,116.672,9.24,116.672Z" transform="translate(0 -106.662)"/>
      </g>
    </g>
    <g id="Group_226" data-name="Group 226" transform="translate(6.16 2.31)">
      <g id="Group_225" data-name="Group 225">
        <path id="Path_254" data-name="Path 254" d="M173.742,170.662a3.08,3.08,0,1,0,3.08,3.08A3.083,3.083,0,0,0,173.742,170.662Zm0,5.39a2.31,2.31,0,1,1,2.31-2.31A2.313,2.313,0,0,1,173.742,176.052Z" transform="translate(-170.662 -170.662)"/>
      </g>
    </g>
  </g>
</svg>
