<svg xmlns="http://www.w3.org/2000/svg" width="12.857" height="12.321" viewBox="0 0 12.857 12.321">
  <g id="like_1_" data-name="like (1)" transform="translate(0 0)">
    <g id="Group_220" data-name="Group 220" transform="translate(0 0)">
      <g id="Group_219" data-name="Group 219" transform="translate(0 0)">
        <path id="Path_251" data-name="Path 251" d="M12.857,18.033a1.19,1.19,0,0,0-.349-.843,1.33,1.33,0,0,0,.343-1.023,1.385,1.385,0,0,0-1.4-1.214H8.145a7.7,7.7,0,0,0,.426-2.143,2.189,2.189,0,0,0-1.607-2.143,1.682,1.682,0,0,0-.971.326.268.268,0,0,0-.1.209v1.817L4.349,16.361l-.064.033v-.1a.268.268,0,0,0-.268-.268H1.339A1.34,1.34,0,0,0,0,17.363v4.286a1.34,1.34,0,0,0,1.339,1.339H2.946A1.342,1.342,0,0,0,4.207,22.1a3.492,3.492,0,0,0,1.418.35h4.917a1.232,1.232,0,0,0,1.214-.935,1.209,1.209,0,0,0-.1-.805A1.2,1.2,0,0,0,12.2,19.1,1.2,1.2,0,0,0,12.857,18.033Zm-1.13.661a.268.268,0,0,0-.153.461.664.664,0,0,1-.382,1.146.268.268,0,0,0-.153.461.662.662,0,0,1,.194.639.693.693,0,0,1-.691.515H5.625a2.539,2.539,0,0,1-1.417-.457.268.268,0,0,0-.457.19.8.8,0,0,1-.8.8H1.339a.8.8,0,0,1-.8-.8V17.363a.8.8,0,0,1,.8-.8H3.75v.268a.269.269,0,0,0,.127.228.274.274,0,0,0,.26.011l.536-.268a.267.267,0,0,0,.123-.127L6.4,13.19a.273.273,0,0,0,.025-.112v-1.73a1.13,1.13,0,0,1,.536-.145A1.769,1.769,0,0,1,8.036,12.81a8.341,8.341,0,0,1-.518,2.315.267.267,0,0,0,.25.363h3.686a.846.846,0,0,1,.864.728.8.8,0,0,1-.381.758.268.268,0,0,0,.018.467.663.663,0,0,1-.227,1.253Z" transform="translate(0 -10.667)"/>
      </g>
    </g>
    <g id="Group_222" data-name="Group 222" transform="translate(3.75 5.893)">
      <g id="Group_221" data-name="Group 221">
        <path id="Path_252" data-name="Path 252" d="M149.6,245.333a.268.268,0,0,0-.268.268v4.821a.268.268,0,0,0,.536,0V245.6A.268.268,0,0,0,149.6,245.333Z" transform="translate(-149.333 -245.333)"/>
      </g>
    </g>
  </g>
</svg>
