<svg xmlns="http://www.w3.org/2000/svg" width="11.552" height="12.322" viewBox="0 0 11.552 12.322">
  <path id="Path_250" data-name="Path 250" d="M25.386,7.99a2.164,2.164,0,0,0-1.742.88l-3.4-1.737a2.166,2.166,0,0,0-.07-1.423l3.563-2.141a2.157,2.157,0,1,0-.371-.62L19.794,5.1a2.166,2.166,0,1,0,.133,2.686l3.39,1.732A2.166,2.166,0,1,0,25.386,7.99Zm0-7.268a1.444,1.444,0,1,1-1.444,1.444A1.446,1.446,0,0,1,25.386.722Zm-7.22,7.244A1.444,1.444,0,1,1,19.61,6.522,1.446,1.446,0,0,1,18.166,7.966Zm7.22,3.634a1.444,1.444,0,1,1,1.444-1.444A1.446,1.446,0,0,1,25.386,11.6Z" transform="translate(-16)"/>
</svg>
