<svg xmlns="http://www.w3.org/2000/svg" width="13.202" height="12.321" viewBox="0 0 13.202 12.321">
  <g id="like_1_" data-name="like (1)" transform="translate(-2 -1)">
    <g id="message" transform="translate(2 0.933)">
      <g id="Group_229" data-name="Group 229" transform="translate(2.313 3.135)">
        <path id="Path_257" data-name="Path 257" d="M80.918,196.759H72.789a.223.223,0,1,1,0-.446h8.129a.223.223,0,1,1,0,.446Zm0,0" transform="translate(-72.566 -193.125)" fill="#fff"/>
        <path id="Path_258" data-name="Path 258" d="M80.918,146.759H72.789a.223.223,0,1,1,0-.446h8.129a.223.223,0,1,1,0,.446Zm0,0" transform="translate(-72.566 -144.719)" fill="#fff"/>
        <path id="Path_259" data-name="Path 259" d="M80.918,96.759H72.789a.223.223,0,1,1,0-.446h8.129a.223.223,0,1,1,0,.446Zm0,0" transform="translate(-72.566 -96.313)" fill="#fff"/>
      </g>
      <path id="Path_260" data-name="Path 260" d="M12.759.5A1.489,1.489,0,0,0,11.7.066h0L1.5.073A1.5,1.5,0,0,0,0,1.572L0,8.454a1.5,1.5,0,0,0,1.5,1.5h0l3.358,0L6.223,12.2l0,0a.4.4,0,0,0,.336.184h0A.4.4,0,0,0,6.9,12.2l0,0L8.258,9.947l3.447,0a1.5,1.5,0,0,0,1.5-1.5l0-6.882A1.488,1.488,0,0,0,12.759.5ZM11.7,9.5l-3.573,0a.223.223,0,0,0-.191.108L6.561,11.9,5.178,9.611A.223.223,0,0,0,4.987,9.5l-3.484,0h0A1.052,1.052,0,0,1,.451,8.454l0-6.882A1.053,1.053,0,0,1,1.5.519L11.7.512h0a1.053,1.053,0,0,1,1.052,1.051l0,6.882A1.053,1.053,0,0,1,11.7,9.5Zm0,0" transform="translate(0 0)" fill="#fff"/>
    </g>
  </g>
</svg>
