<svg xmlns="http://www.w3.org/2000/svg" width="11.581" height="14.259" viewBox="0 0 11.581 14.259">
  <g id="delete_1_" data-name="delete (1)" transform="translate(0.003 0.002)">
    <path id="Path_51" data-name="Path 51" d="M222.732,154.7a.334.334,0,0,0-.334.334v6.311a.334.334,0,1,0,.668,0v-6.311A.334.334,0,0,0,222.732,154.7Zm0,0" transform="translate(-214.975 -149.539)"/>
    <path id="Path_52" data-name="Path 52" d="M104.732,154.7a.334.334,0,0,0-.334.334v6.311a.334.334,0,1,0,.668,0v-6.311A.334.334,0,0,0,104.732,154.7Zm0,0" transform="translate(-100.915 -149.539)"/>
    <path id="Path_53" data-name="Path 53" d="M.945,4.243v8.227a1.842,1.842,0,0,0,.49,1.271,1.644,1.644,0,0,0,1.193.516H8.946a1.644,1.644,0,0,0,1.193-.516,1.842,1.842,0,0,0,.49-1.271V4.243A1.276,1.276,0,0,0,10.3,1.735H8.592V1.318A1.312,1.312,0,0,0,7.27,0H4.3A1.312,1.312,0,0,0,2.982,1.318v.417H1.272A1.276,1.276,0,0,0,.945,4.243Zm8,9.346H2.628a1.058,1.058,0,0,1-1.015-1.119v-8.2H9.961v8.2a1.058,1.058,0,0,1-1.015,1.119ZM3.65,1.318A.643.643,0,0,1,4.3.666H7.27a.643.643,0,0,1,.655.651v.417H3.65ZM1.272,2.4H10.3a.6.6,0,1,1,0,1.2H1.272a.6.6,0,0,1,0-1.2Zm0,0" transform="translate(0 0)"/>
    <path id="Path_54" data-name="Path 54" d="M163.732,154.7a.334.334,0,0,0-.334.334v6.311a.334.334,0,1,0,.668,0v-6.311A.334.334,0,0,0,163.732,154.7Zm0,0" transform="translate(-157.945 -149.539)"/>
  </g>
</svg>
