<svg xmlns="http://www.w3.org/2000/svg" width="29.986" height="31" viewBox="0 0 29.986 31">
  <g id="dollar" transform="translate(-3.141 -2)">
    <path id="Path_8" data-name="Path 8" d="M53.5,30.226a.443.443,0,0,1-.383-.664,13.463,13.463,0,0,0-6.648-19.218.443.443,0,1,1,.329-.822,14.349,14.349,0,0,1,7.086,20.483A.443.443,0,0,1,53.5,30.226Z" transform="translate(-23.984 -4.173)" fill="#212121"/>
    <path id="Path_9" data-name="Path 9" d="M19.808,62.127A14.393,14.393,0,0,1,7.389,54.959a.443.443,0,1,1,.766-.443,13.454,13.454,0,0,0,20.976,2.969.443.443,0,0,1,.614.638A14.268,14.268,0,0,1,19.808,62.127Z" transform="translate(-2.328 -29.127)" fill="#212121"/>
    <path id="Path_10" data-name="Path 10" d="M3.928,25.118a.443.443,0,0,1-.432-.345A14.352,14.352,0,0,1,17.479,7.248a.443.443,0,1,1,0,.886A13.463,13.463,0,0,0,4.363,24.576a.443.443,0,0,1-.334.531.45.45,0,0,1-.1.011Z" transform="translate(0 -2.924)" fill="#212121"/>
    <path id="Path_11" data-name="Path 11" d="M29.713,7.536A.443.443,0,0,1,29.4,6.78l2.009-2.013L29.4,2.756a.443.443,0,1,1,.627-.626L32.35,4.454a.443.443,0,0,1,0,.626L30.027,7.4a.443.443,0,0,1-.313.133Z" transform="translate(-14.558 0)" fill="#212121"/>
    <path id="Path_12" data-name="Path 12" d="M5.868,58.372a.45.45,0,0,1-.115-.015.443.443,0,0,1-.313-.542l.85-3.174a.443.443,0,0,1,.541-.313l3.174.851a.443.443,0,1,1-.229.855L7.031,55.3l-.736,2.746A.443.443,0,0,1,5.868,58.372Z" transform="translate(-1.272 -29.146)" fill="#212121"/>
    <path id="Path_13" data-name="Path 13" d="M61.065,51.219a.443.443,0,0,1-.427-.328l-.852-3.176a.443.443,0,0,1,.855-.229l.736,2.746,2.746-.736a.443.443,0,1,1,.229.856l-3.174.851a.438.438,0,0,1-.112.017Z" transform="translate(-31.552 -25.167)" fill="#212121"/>
    <path id="Path_14" data-name="Path 14" d="M25.043,37.252a8.71,8.71,0,1,1,8.71-8.71,8.71,8.71,0,0,1-8.71,8.71Zm0-16.534a7.824,7.824,0,1,0,7.824,7.824A7.824,7.824,0,0,0,25.043,20.719Z" transform="translate(-7.35 -9.936)" fill="#212121"/>
    <path id="Path_15" data-name="Path 15" d="M32.866,34.087A2.491,2.491,0,1,1,35.357,31.6a.443.443,0,0,1-.886,0A1.605,1.605,0,1,0,32.866,33.2a.443.443,0,1,1,0,.886Z" transform="translate(-15.173 -15.102)" fill="#212121"/>
    <path id="Path_16" data-name="Path 16" d="M32.866,43.337a2.494,2.494,0,0,1-2.491-2.491.443.443,0,0,1,.886,0,1.605,1.605,0,1,0,1.605-1.605.443.443,0,1,1,0-.886,2.491,2.491,0,0,1,0,4.982Z" transform="translate(-15.173 -20.255)" fill="#212121"/>
    <path id="Path_17" data-name="Path 17" d="M35.443,38.093A.443.443,0,0,1,35,37.65V27.632a.443.443,0,0,1,.886,0V37.65A.443.443,0,0,1,35.443,38.093Z" transform="translate(-17.75 -14.034)" fill="#212121"/>
  </g>
</svg>
