<svg xmlns="http://www.w3.org/2000/svg" width="14.257" height="14.258" viewBox="0 0 14.257 14.258">
  <g id="edit" transform="translate(-12.266 -0.261)">
    <path id="Path_46" data-name="Path 46" d="M121.237.9a2.187,2.187,0,0,0-3.093,0l-8.671,8.671a.486.486,0,0,0-.125.214l-1.14,4.117a.486.486,0,0,0,.6.6l4.117-1.14a.486.486,0,0,0,.214-.125l8.671-8.671a2.19,2.19,0,0,0,0-3.093ZM110.532,9.889l7.1-7.1,2.289,2.289-7.1,7.1Zm-.457.917,1.829,1.829-2.529.7ZM121.12,3.878l-.515.515L118.316,2.1l.516-.515a1.215,1.215,0,0,1,1.718,0l.571.57A1.217,1.217,0,0,1,121.12,3.878Zm0,0" transform="translate(-95.924)" fill="#212121"/>
  </g>
</svg>
