<svg xmlns="http://www.w3.org/2000/svg" width="12.669" height="13.971" viewBox="0 0 12.669 13.971">
  <path id="Icon_simple-email" data-name="Icon simple-email" d="M14.33,6.448A7.2,7.2,0,0,1,14.1,8.011a4.522,4.522,0,0,1-.608,1.372,3.206,3.206,0,0,1-1.03.975,2.907,2.907,0,0,1-1.5.371,2.181,2.181,0,0,1-1.088-.266,1.863,1.863,0,0,1-.735-.753,2.33,2.33,0,0,1-1.971.99,2,2,0,0,1-1.721-.925A3.029,3.029,0,0,1,5.013,8.7a4.623,4.623,0,0,1-.056-1.4,6.5,6.5,0,0,1,.426-1.713,4.656,4.656,0,0,1,.787-1.312,3.331,3.331,0,0,1,1.083-.836A3.021,3.021,0,0,1,8.57,3.15a4.094,4.094,0,0,1,.787.067,3.223,3.223,0,0,1,.611.183,3.3,3.3,0,0,1,.506.267c.155.1.31.2.464.307l-.382,4.4a1.463,1.463,0,0,0,.011.515.721.721,0,0,0,.157.318.566.566,0,0,0,.255.166.946.946,0,0,0,.9-.176,1.909,1.909,0,0,0,.48-.611,3.936,3.936,0,0,0,.323-.918,6.3,6.3,0,0,0,.141-1.144,7.309,7.309,0,0,0-.18-2.137,4.248,4.248,0,0,0-.791-1.653,3.673,3.673,0,0,0-1.418-1.065A5.146,5.146,0,0,0,8.366,1.29a4.561,4.561,0,0,0-2.043.445A4.687,4.687,0,0,0,4.771,2.97,5.924,5.924,0,0,0,3.755,4.827,8.368,8.368,0,0,0,3.328,7.14,7.693,7.693,0,0,0,3.546,9.5a4.263,4.263,0,0,0,.863,1.692A3.6,3.6,0,0,0,5.87,12.209a5.606,5.606,0,0,0,2.017.337A6.907,6.907,0,0,0,9.21,12.4c.218-.044.425-.1.622-.154a4.685,4.685,0,0,0,.536-.192l.277,1.245a3.072,3.072,0,0,1-.6.3,5.773,5.773,0,0,1-.709.205,6.917,6.917,0,0,1-1.481.166,7.765,7.765,0,0,1-2.7-.435,4.968,4.968,0,0,1-1.968-1.294,5.434,5.434,0,0,1-1.181-2.136,9.112,9.112,0,0,1-.33-2.966,9.044,9.044,0,0,1,.567-2.846A7.043,7.043,0,0,1,3.612,2.033,6.23,6.23,0,0,1,5.7.541,6.53,6.53,0,0,1,8.4,0a6.817,6.817,0,0,1,2.617.469,5.09,5.09,0,0,1,1.889,1.318,5.41,5.41,0,0,1,1.121,2.037A7.788,7.788,0,0,1,14.33,6.448Zm-7.5.856a2.97,2.97,0,0,0,.154,1.473.79.79,0,0,0,.76.5.839.839,0,0,0,.26-.048.928.928,0,0,0,.3-.18,1.6,1.6,0,0,0,.3-.367,2.814,2.814,0,0,0,.279-.62l.3-3.419a1.784,1.784,0,0,0-.464-.061,1.606,1.606,0,0,0-.773.177,1.53,1.53,0,0,0-.547.52,3.056,3.056,0,0,0-.363.856A7.257,7.257,0,0,0,6.833,7.3Z" transform="translate(-1.67)" fill="#212121"/>
</svg>
