<svg id="Group_390" data-name="Group 390" xmlns="http://www.w3.org/2000/svg" width="77.942" height="77.942" viewBox="0 0 77.942 77.942">
  <circle id="Ellipse_1" data-name="Ellipse 1" cx="38.971" cy="38.971" r="38.971" transform="translate(0 0)" fill="#fff"/>
  <g id="Group_56" data-name="Group 56" transform="translate(-70.17 -195.002)">
    <path id="Path_36" data-name="Path 36" d="M333.651,230.48l-2.679,11.389-14.115,4.7L305,237.09V223.117l13.531-5.412a36.3,36.3,0,0,1,15.12,12.775Z" transform="translate(-194.57 -16.624)" fill="#006400"/>
    <path id="Path_37" data-name="Path 37" d="M381.4,409.235l-12.78,2.018-6.959-9.192,3.545-14.175,13.959-4.652,8,9.6a35.847,35.847,0,0,1-5.762,16.407Z" transform="translate(-242.107 -155.488)" fill="#006400"/>
    <path id="Path_38" data-name="Path 38" d="M92.636,411.241,79.8,409.214a35.852,35.852,0,0,1-5.761-16.41l7.99-9.6,13.959,4.652,3.545,14.183Z" transform="translate(-0.813 -155.468)" fill="#006400"/>
    <path id="Path_39" data-name="Path 39" d="M73.07,333.142A35.851,35.851,0,0,1,77.3,316.674l2.09,8.892Z" transform="translate(0 -99.651)" fill="#006400"/>
    <path id="Path_40" data-name="Path 40" d="M229.442,374.969l-3.419-13.688,11.433-9.146,11.436,9.15-3.421,13.684Z" transform="translate(-128.315 -129.399)" fill="#006400"/>
    <path id="Path_41" data-name="Path 41" d="M481.7,325.535l2.09-8.892a35.848,35.848,0,0,1,4.228,16.467Z" transform="translate(-342.81 -99.625)" fill="#006400"/>
    <path id="Path_42" data-name="Path 42" d="M249.112,199.713l-11.305,4.522-11.366-4.5a35.952,35.952,0,0,1,22.671-.021Z" transform="translate(-128.666 0)" fill="#006400"/>
    <path id="Path_43" data-name="Path 43" d="M126.195,217.889l13.593,5.387v13.969l-11.856,9.483-14.115-4.7-2.679-11.389a36.308,36.308,0,0,1,15.058-12.745Z" transform="translate(-31.935 -16.778)" fill="#006400"/>
    <path id="Path_44" data-name="Path 44" d="M123.168,562.959l10.475,1.655,6.335,9.923a36.2,36.2,0,0,1-16.81-11.578Z" transform="translate(-42.028 -306.264)" fill="#006400"/>
    <path id="Path_45" data-name="Path 45" d="M210.417,531.008l-7.69-12.039,6.809-9.08h16.753l6.907,9.124-6.7,11.743a35.971,35.971,0,0,1-16.077.258Z" transform="translate(-108.772 -261.742)" fill="#006400"/>
    <path id="Path_46" data-name="Path 46" d="M372.5,574.2,378,564.584l10.351-1.633A36.221,36.221,0,0,1,372.5,574.2Z" transform="translate(-251.201 -306.257)" fill="#006400"/>
    <path id="Path_47" data-name="Path 47" d="M372.5,632.76" transform="translate(-251.201 -364.821)" fill="#006400"/>
  </g>
</svg>
