<svg xmlns="http://www.w3.org/2000/svg" width="30.946" height="21.625" viewBox="0 0 30.946 21.625">
  <g id="football-field" transform="translate(0 -61.6)">
    <g id="Group_3" data-name="Group 3" transform="translate(0 61.6)">
      <path id="Path_7" data-name="Path 7" d="M28.664,61.6H2.282A2.285,2.285,0,0,0,0,63.882V80.943a2.285,2.285,0,0,0,2.282,2.282H28.664a2.285,2.285,0,0,0,2.282-2.282V63.882A2.285,2.285,0,0,0,28.664,61.6ZM15.857,68.23a4.2,4.2,0,0,1,0,8.367ZM.766,66.36H4.654a.908.908,0,0,1,.908.908V77.557a.908.908,0,0,1-.908.908H.766V66.36ZM15.089,76.595a4.2,4.2,0,0,1,0-8.367Zm0-9.133a4.966,4.966,0,0,0,0,9.9v5.1H2.282A1.513,1.513,0,0,1,.769,80.946V79.231H4.654a1.673,1.673,0,0,0,1.673-1.673V75.439a3.053,3.053,0,0,0,0-6.052V67.268a1.674,1.674,0,0,0-1.67-1.67H.766V63.882a1.513,1.513,0,0,1,1.513-1.513h12.81ZM6.313,74.667V70.161a2.285,2.285,0,0,1,0,4.506Zm23.867,3.8H26.291a.908.908,0,0,1-.908-.908V67.268a.908.908,0,0,1,.908-.908H30.18Zm-3.889-12.87a1.673,1.673,0,0,0-1.673,1.673v2.118a3.053,3.053,0,0,0,0,6.052v2.118a1.674,1.674,0,0,0,1.67,1.67H30.18V80.94a1.513,1.513,0,0,1-1.513,1.513H15.857v-5.09a4.966,4.966,0,0,0,0-9.9v-5.1H28.664a1.513,1.513,0,0,1,1.513,1.513l0,1.716Zm-1.673,4.563v4.506a2.285,2.285,0,0,1,0-4.506Z" transform="translate(0 -61.6)" fill="#212121"/>
    </g>
  </g>
</svg>
