<svg id="Group_330" data-name="Group 330" xmlns="http://www.w3.org/2000/svg" width="26.511" height="26.511" viewBox="0 0 26.511 26.511">
  <path id="Path_16" data-name="Path 16" d="M68.674,181.889a11.674,11.674,0,1,0,11.674,11.674A11.675,11.675,0,0,0,68.674,181.889Zm10.893,11.528-1.908-2.288.631-2.685A10.825,10.825,0,0,1,79.567,193.417Zm-1.852-5.928-.809,3.439-4.263,1.421-3.58-2.864v-4.22l4.086-1.634A10.962,10.962,0,0,1,77.716,187.489Zm-5.588,5.444-1.033,4.132h-4.84l-1.032-4.134,3.453-2.762Zm-.039-9.715-3.414,1.365-3.432-1.359A10.857,10.857,0,0,1,72.088,183.218Zm-7.908.422,4.1,1.627v4.218l-3.58,2.864-4.263-1.421-.809-3.439A10.964,10.964,0,0,1,64.181,183.64Zm-5.122,4.805.631,2.685-1.908,2.288A10.826,10.826,0,0,1,59.059,188.445Zm-1.23,6.134,2.413-2.9,4.215,1.4,1.071,4.283-2.083,2.777-3.876-.612A10.826,10.826,0,0,1,57.829,194.579Zm2.39,5.846,3.163.5,1.913,3A10.932,10.932,0,0,1,60.219,200.426Zm6.193,3.8v0l-2.322-3.635,2.056-2.742H71.2L73.29,200.6l-2.023,3.546A10.862,10.862,0,0,1,66.411,204.223Zm5.936-.4,1.659-2.9,3.126-.493A10.939,10.939,0,0,1,72.347,203.821Zm5.433-4.286-3.859.609-2.1-2.776,1.071-4.281,4.215-1.4,2.415,2.9A10.825,10.825,0,0,1,77.781,199.535Z" transform="translate(-55.419 -180.308)" fill="#006400"/>
  <path id="Path_17" data-name="Path 17" d="M372.5,632.76" transform="translate(-355.576 -609.247)" fill="#006400"/>
  <ellipse id="Ellipse_3" data-name="Ellipse 3" cy="0.663" ry="0.663" transform="translate(13.255)" fill="#006400"/>
  <ellipse id="Ellipse_4" data-name="Ellipse 4" cy="0.663" ry="0.663" transform="translate(13.255 25.185)" fill="#006400"/>
  <g id="Group_8" data-name="Group 8" transform="translate(13.255)">
    <ellipse id="Ellipse_5" data-name="Ellipse 5" cy="0.663" ry="0.663" fill="#006400"/>
    <ellipse id="Ellipse_6" data-name="Ellipse 6" cy="0.663" ry="0.663" transform="translate(0 25.185)" fill="#006400"/>
  </g>
  <g id="Group_9" data-name="Group 9" transform="translate(11.456 0.07)">
    <ellipse id="Ellipse_7" data-name="Ellipse 7" cx="0.462" cy="0.462" rx="0.462" ry="0.462" transform="translate(2.675 0)" fill="#006400"/>
    <ellipse id="Ellipse_8" data-name="Ellipse 8" cx="0.462" cy="0.462" rx="0.462" ry="0.462" transform="translate(0 25.446)" fill="#006400"/>
  </g>
  <g id="Group_10" data-name="Group 10" transform="translate(10.133 0.28)">
    <ellipse id="Ellipse_9" data-name="Ellipse 9" cx="0.462" cy="0.462" rx="0.462" ry="0.462" transform="translate(5.32 0)" fill="#006400"/>
    <ellipse id="Ellipse_10" data-name="Ellipse 10" cx="0.462" cy="0.462" rx="0.462" ry="0.462" transform="translate(0 25.027)" fill="#006400"/>
  </g>
  <g id="Group_11" data-name="Group 11" transform="translate(8.84 0.626)">
    <ellipse id="Ellipse_11" data-name="Ellipse 11" cx="0.462" cy="0.462" rx="0.462" ry="0.462" transform="translate(7.907 0)" fill="#006400"/>
    <ellipse id="Ellipse_12" data-name="Ellipse 12" cx="0.462" cy="0.462" rx="0.462" ry="0.462" transform="translate(0 24.334)" fill="#006400"/>
  </g>
  <g id="Group_12" data-name="Group 12" transform="translate(7.59 1.106)">
    <ellipse id="Ellipse_13" data-name="Ellipse 13" cx="0.462" cy="0.462" rx="0.462" ry="0.462" transform="translate(10.407 0)" fill="#006400"/>
    <ellipse id="Ellipse_14" data-name="Ellipse 14" cx="0.462" cy="0.462" rx="0.462" ry="0.462" transform="translate(0 23.374)" fill="#006400"/>
  </g>
  <g id="Group_13" data-name="Group 13" transform="translate(6.397 1.714)">
    <ellipse id="Ellipse_15" data-name="Ellipse 15" cx="0.462" cy="0.462" rx="0.462" ry="0.462" transform="translate(12.793 0)" fill="#006400"/>
    <ellipse id="Ellipse_16" data-name="Ellipse 16" cx="0.462" cy="0.462" rx="0.462" ry="0.462" transform="translate(0 22.159)" fill="#006400"/>
  </g>
  <g id="Group_14" data-name="Group 14" transform="translate(5.274 2.443)">
    <ellipse id="Ellipse_17" data-name="Ellipse 17" cx="0.462" cy="0.462" rx="0.462" ry="0.462" transform="translate(15.039)" fill="#006400"/>
    <ellipse id="Ellipse_18" data-name="Ellipse 18" cx="0.462" cy="0.462" rx="0.462" ry="0.462" transform="translate(0 20.7)" fill="#006400"/>
  </g>
  <g id="Group_15" data-name="Group 15" transform="translate(4.233 3.286)">
    <ellipse id="Ellipse_19" data-name="Ellipse 19" cx="0.462" cy="0.462" rx="0.462" ry="0.462" transform="translate(17.121)" fill="#006400"/>
    <ellipse id="Ellipse_20" data-name="Ellipse 20" cx="0.462" cy="0.462" rx="0.462" ry="0.462" transform="translate(0 19.015)" fill="#006400"/>
  </g>
  <g id="Group_16" data-name="Group 16" transform="translate(3.286 4.233)">
    <ellipse id="Ellipse_21" data-name="Ellipse 21" cx="0.462" cy="0.462" rx="0.462" ry="0.462" transform="translate(19.015)" fill="#006400"/>
    <ellipse id="Ellipse_22" data-name="Ellipse 22" cx="0.462" cy="0.462" rx="0.462" ry="0.462" transform="translate(0 17.121)" fill="#006400"/>
  </g>
  <g id="Group_17" data-name="Group 17" transform="translate(2.443 5.274)">
    <ellipse id="Ellipse_23" data-name="Ellipse 23" cx="0.462" cy="0.462" rx="0.462" ry="0.462" transform="translate(20.7 0)" fill="#006400"/>
    <ellipse id="Ellipse_24" data-name="Ellipse 24" cx="0.462" cy="0.462" rx="0.462" ry="0.462" transform="translate(0 15.039)" fill="#006400"/>
  </g>
  <g id="Group_18" data-name="Group 18" transform="translate(1.714 6.397)">
    <ellipse id="Ellipse_25" data-name="Ellipse 25" cx="0.462" cy="0.462" rx="0.462" ry="0.462" transform="translate(22.159)" fill="#006400"/>
    <ellipse id="Ellipse_26" data-name="Ellipse 26" cx="0.462" cy="0.462" rx="0.462" ry="0.462" transform="translate(0 12.793)" fill="#006400"/>
  </g>
  <g id="Group_19" data-name="Group 19" transform="translate(1.106 7.59)">
    <ellipse id="Ellipse_27" data-name="Ellipse 27" cx="0.462" cy="0.462" rx="0.462" ry="0.462" transform="translate(23.374 0)" fill="#006400"/>
    <ellipse id="Ellipse_28" data-name="Ellipse 28" cx="0.462" cy="0.462" rx="0.462" ry="0.462" transform="translate(0 10.407)" fill="#006400"/>
  </g>
  <g id="Group_20" data-name="Group 20" transform="translate(0.626 8.84)">
    <ellipse id="Ellipse_29" data-name="Ellipse 29" cx="0.462" cy="0.462" rx="0.462" ry="0.462" transform="translate(24.334)" fill="#006400"/>
    <ellipse id="Ellipse_30" data-name="Ellipse 30" cx="0.462" cy="0.462" rx="0.462" ry="0.462" transform="translate(0 7.907)" fill="#006400"/>
  </g>
  <g id="Group_21" data-name="Group 21" transform="translate(0.28 10.133)">
    <ellipse id="Ellipse_31" data-name="Ellipse 31" cx="0.462" cy="0.462" rx="0.462" ry="0.462" transform="translate(25.027 0)" fill="#006400"/>
    <ellipse id="Ellipse_32" data-name="Ellipse 32" cx="0.462" cy="0.462" rx="0.462" ry="0.462" transform="translate(0 5.32)" fill="#006400"/>
  </g>
  <g id="Group_22" data-name="Group 22" transform="translate(0.07 11.456)">
    <ellipse id="Ellipse_33" data-name="Ellipse 33" cx="0.462" cy="0.462" rx="0.462" ry="0.462" transform="translate(25.446)" fill="#006400"/>
    <ellipse id="Ellipse_34" data-name="Ellipse 34" cx="0.462" cy="0.462" rx="0.462" ry="0.462" transform="translate(0 2.675)" fill="#006400"/>
  </g>
  <g id="Group_23" data-name="Group 23" transform="translate(0 13.255)">
    <ellipse id="Ellipse_35" data-name="Ellipse 35" cx="0.663" rx="0.663" transform="translate(25.185)" fill="#006400"/>
    <ellipse id="Ellipse_36" data-name="Ellipse 36" cx="0.663" rx="0.663" fill="#006400"/>
  </g>
  <g id="Group_24" data-name="Group 24" transform="translate(0.07 11.456)">
    <ellipse id="Ellipse_37" data-name="Ellipse 37" cx="0.462" cy="0.462" rx="0.462" ry="0.462" transform="translate(25.446 2.675)" fill="#006400"/>
    <ellipse id="Ellipse_38" data-name="Ellipse 38" cx="0.462" cy="0.462" rx="0.462" ry="0.462" fill="#006400"/>
  </g>
  <g id="Group_25" data-name="Group 25" transform="translate(0.28 10.133)">
    <ellipse id="Ellipse_39" data-name="Ellipse 39" cx="0.462" cy="0.462" rx="0.462" ry="0.462" transform="translate(25.027 5.32)" fill="#006400"/>
    <ellipse id="Ellipse_40" data-name="Ellipse 40" cx="0.462" cy="0.462" rx="0.462" ry="0.462" transform="translate(0 0)" fill="#006400"/>
  </g>
  <g id="Group_26" data-name="Group 26" transform="translate(0.626 8.84)">
    <ellipse id="Ellipse_41" data-name="Ellipse 41" cx="0.462" cy="0.462" rx="0.462" ry="0.462" transform="translate(24.334 7.907)" fill="#006400"/>
    <ellipse id="Ellipse_42" data-name="Ellipse 42" cx="0.462" cy="0.462" rx="0.462" ry="0.462" fill="#006400"/>
  </g>
  <g id="Group_27" data-name="Group 27" transform="translate(1.106 7.59)">
    <ellipse id="Ellipse_43" data-name="Ellipse 43" cx="0.462" cy="0.462" rx="0.462" ry="0.462" transform="translate(23.374 10.407)" fill="#006400"/>
    <ellipse id="Ellipse_44" data-name="Ellipse 44" cx="0.462" cy="0.462" rx="0.462" ry="0.462" transform="translate(0 0)" fill="#006400"/>
  </g>
  <g id="Group_28" data-name="Group 28" transform="translate(1.714 6.397)">
    <ellipse id="Ellipse_45" data-name="Ellipse 45" cx="0.462" cy="0.462" rx="0.462" ry="0.462" transform="translate(22.159 12.793)" fill="#006400"/>
    <ellipse id="Ellipse_46" data-name="Ellipse 46" cx="0.462" cy="0.462" rx="0.462" ry="0.462" fill="#006400"/>
  </g>
  <g id="Group_29" data-name="Group 29" transform="translate(2.443 5.274)">
    <ellipse id="Ellipse_47" data-name="Ellipse 47" cx="0.462" cy="0.462" rx="0.462" ry="0.462" transform="translate(20.7 15.039)" fill="#006400"/>
    <ellipse id="Ellipse_48" data-name="Ellipse 48" cx="0.462" cy="0.462" rx="0.462" ry="0.462" transform="translate(0 0)" fill="#006400"/>
  </g>
  <g id="Group_30" data-name="Group 30" transform="translate(3.286 4.233)">
    <ellipse id="Ellipse_49" data-name="Ellipse 49" cx="0.462" cy="0.462" rx="0.462" ry="0.462" transform="translate(19.015 17.121)" fill="#006400"/>
    <ellipse id="Ellipse_50" data-name="Ellipse 50" cx="0.462" cy="0.462" rx="0.462" ry="0.462" fill="#006400"/>
  </g>
  <g id="Group_31" data-name="Group 31" transform="translate(4.233 3.286)">
    <ellipse id="Ellipse_51" data-name="Ellipse 51" cx="0.462" cy="0.462" rx="0.462" ry="0.462" transform="translate(17.121 19.015)" fill="#006400"/>
    <ellipse id="Ellipse_52" data-name="Ellipse 52" cx="0.462" cy="0.462" rx="0.462" ry="0.462" fill="#006400"/>
  </g>
  <g id="Group_32" data-name="Group 32" transform="translate(5.274 2.443)">
    <ellipse id="Ellipse_53" data-name="Ellipse 53" cx="0.462" cy="0.462" rx="0.462" ry="0.462" transform="translate(15.039 20.7)" fill="#006400"/>
    <ellipse id="Ellipse_54" data-name="Ellipse 54" cx="0.462" cy="0.462" rx="0.462" ry="0.462" fill="#006400"/>
  </g>
  <g id="Group_33" data-name="Group 33" transform="translate(6.397 1.714)">
    <ellipse id="Ellipse_55" data-name="Ellipse 55" cx="0.462" cy="0.462" rx="0.462" ry="0.462" transform="translate(12.793 22.159)" fill="#006400"/>
    <ellipse id="Ellipse_56" data-name="Ellipse 56" cx="0.462" cy="0.462" rx="0.462" ry="0.462" transform="translate(0 0)" fill="#006400"/>
  </g>
  <g id="Group_34" data-name="Group 34" transform="translate(7.59 1.106)">
    <ellipse id="Ellipse_57" data-name="Ellipse 57" cx="0.462" cy="0.462" rx="0.462" ry="0.462" transform="translate(10.407 23.374)" fill="#006400"/>
    <ellipse id="Ellipse_58" data-name="Ellipse 58" cx="0.462" cy="0.462" rx="0.462" ry="0.462" transform="translate(0 0)" fill="#006400"/>
  </g>
  <g id="Group_35" data-name="Group 35" transform="translate(8.84 0.626)">
    <ellipse id="Ellipse_59" data-name="Ellipse 59" cx="0.462" cy="0.462" rx="0.462" ry="0.462" transform="translate(7.907 24.334)" fill="#006400"/>
    <ellipse id="Ellipse_60" data-name="Ellipse 60" cx="0.462" cy="0.462" rx="0.462" ry="0.462" transform="translate(0 0)" fill="#006400"/>
  </g>
  <g id="Group_36" data-name="Group 36" transform="translate(10.133 0.28)">
    <ellipse id="Ellipse_61" data-name="Ellipse 61" cx="0.462" cy="0.462" rx="0.462" ry="0.462" transform="translate(5.32 25.027)" fill="#006400"/>
    <ellipse id="Ellipse_62" data-name="Ellipse 62" cx="0.462" cy="0.462" rx="0.462" ry="0.462" transform="translate(0 0)" fill="#006400"/>
  </g>
  <g id="Group_37" data-name="Group 37" transform="translate(11.456 0.07)">
    <ellipse id="Ellipse_63" data-name="Ellipse 63" cx="0.462" cy="0.462" rx="0.462" ry="0.462" transform="translate(2.675 25.446)" fill="#006400"/>
    <ellipse id="Ellipse_64" data-name="Ellipse 64" cx="0.462" cy="0.462" rx="0.462" ry="0.462" transform="translate(0 0)" fill="#006400"/>
  </g>
</svg>
