<svg xmlns="http://www.w3.org/2000/svg" width="24.839" height="25.955" viewBox="0 0 24.839 25.955">
  <path id="Path_14" data-name="Path 14" d="M52.373,30.485,40.824,19.334a.866.866,0,0,0-1.21,0L28.066,30.485a.871.871,0,0,0,.6,1.5h1.535V44.173a.871.871,0,0,0,.871.871h6.1a.871.871,0,0,0,.871-.871V37.207H42.4v6.966a.871.871,0,0,0,.871.871h6.1a.871.871,0,0,0,.871-.871V31.982h1.535a.871.871,0,0,0,.605-1.5Zm-2.14.626a.871.871,0,0,0-.871.871V44.173h-6.1V37.207a.871.871,0,0,0-.871-.871H38.043a.871.871,0,0,0-.871.871v6.966h-6.1V31.982a.871.871,0,0,0-.871-.871H28.671l11.549-11.15,11.553,11.15Z" transform="translate(-27.8 -19.089)" fill="#006400"/>
</svg>
