<svg id="edit" xmlns="http://www.w3.org/2000/svg" width="13.999" height="14" viewBox="0 0 13.999 14">
  <path id="Path_46" data-name="Path 46" d="M121,.89a2.148,2.148,0,0,0-3.037,0L109.45,9.4a.477.477,0,0,0-.122.21l-1.12,4.042a.477.477,0,0,0,.587.587l4.042-1.12a.477.477,0,0,0,.21-.122l8.514-8.514a2.15,2.15,0,0,0,0-3.037ZM110.489,9.714l6.968-6.968L119.7,4.993l-6.968,6.968Zm-.449.9,1.8,1.8-2.483.688Zm10.845-6.8-.506.506-2.247-2.247.506-.506a1.193,1.193,0,0,1,1.687,0l.56.56A1.2,1.2,0,0,1,120.886,3.812Zm0,0" transform="translate(-108.19 -0.261)" fill="#006400"/>
</svg>
