<svg xmlns="http://www.w3.org/2000/svg" width="17.386" height="24.727" viewBox="0 0 17.386 24.727">
  <g id="Group_251" data-name="Group 251" transform="translate(-76)" style="mix-blend-mode: multiply;isolation: isolate">
    <path id="Path_263" data-name="Path 263" d="M84.693,0a8.695,8.695,0,0,0-7.4,13.264l6.9,11.12a.724.724,0,0,0,.616.342h.006a.724.724,0,0,0,.616-.352L92.16,13.147A8.695,8.695,0,0,0,84.693,0Zm6.224,12.4L84.8,22.611,78.529,12.5a7.249,7.249,0,1,1,12.388-.1Z" fill="#006400"/>
    <path id="Path_264" data-name="Path 264" d="M170.347,90a4.347,4.347,0,1,0,4.347,4.347A4.351,4.351,0,0,0,170.347,90Zm0,7.254a2.907,2.907,0,1,1,2.9-2.907A2.91,2.91,0,0,1,170.347,97.254Z" transform="translate(-85.653 -85.653)" fill="#006400"/>
  </g>
</svg>
