<svg id="Group_329" data-name="Group 329" xmlns="http://www.w3.org/2000/svg" width="27.213" height="25.955" viewBox="0 0 27.213 25.955">
  <path id="Path_15" data-name="Path 15" d="M122.561,236.623a7.652,7.652,0,0,0-5.955,2.853,7.648,7.648,0,0,0-13.607,4.8c0,3.314,1.98,7.151,5.885,11.406A56.785,56.785,0,0,0,116.1,262.2l.506.38.505-.38a56.77,56.77,0,0,0,7.216-6.518c3.905-4.254,5.885-8.092,5.885-11.406A7.66,7.66,0,0,0,122.561,236.623Zm.793,18.132a57.173,57.173,0,0,1-6.748,6.168,57.171,57.171,0,0,1-6.748-6.168c-3.707-4.038-5.666-7.735-5.666-10.69a6.211,6.211,0,0,1,11.648-3.007l.766,1.382.766-1.382a6.211,6.211,0,0,1,11.648,3.007C129.021,247.02,127.061,250.716,123.355,254.755Z" transform="translate(-103 -236.623)" fill="#006400"/>
</svg>
