<svg id="Group_328" data-name="Group 328" xmlns="http://www.w3.org/2000/svg" xmlns:xlink="http://www.w3.org/1999/xlink" width="25.89" height="25.955" viewBox="0 0 25.89 25.955">
  <defs>
    <clipPath id="clip-path">
      <rect id="Rectangle_2" data-name="Rectangle 2" width="25.89" height="25.955" fill="#006400"/>
    </clipPath>
  </defs>
  <g id="Group_5" data-name="Group 5" transform="translate(0 0)">
    <g id="Group_4" data-name="Group 4" clip-path="url(#clip-path)">
      <path id="Path_10" data-name="Path 10" d="M130.057,236.237a12.923,12.923,0,0,0-19.091,17.38,4.947,4.947,0,0,1-2.071,2.3,1.212,1.212,0,0,0,.35,2.284,6.654,6.654,0,0,0,1.022.077,7.718,7.718,0,0,0,4.547-1.508,12.921,12.921,0,0,0,15.243-20.528Zm-1.044,17.232a11.447,11.447,0,0,1-13.893,1.782.735.735,0,0,0-.9.115.244.244,0,0,0-.06.044,6.31,6.31,0,0,1-3.9,1.388h-.005a7.237,7.237,0,0,0,2.219-2.946.754.754,0,0,0,.038-.475.765.765,0,0,0-.18-.416,11.448,11.448,0,1,1,16.675.508Zm0,0" transform="translate(-108 -232.411)" fill="#006400"/>
    </g>
  </g>
  <path id="Path_11" data-name="Path 11" d="M285.624,409.278a.907.907,0,1,1-.907-.907.907.907,0,0,1,.907.907Zm0,0" transform="translate(-271.798 -396.314)" fill="#006400"/>
  <path id="Path_12" data-name="Path 12" d="M354.1,409.278a.907.907,0,1,1-.907-.907.907.907,0,0,1,.907.907Zm0,0" transform="translate(-335.6 -396.314)" fill="#006400"/>
  <path id="Path_13" data-name="Path 13" d="M217.143,409.278a.907.907,0,1,1-.907-.907.907.907,0,0,1,.907.907Zm0,0" transform="translate(-207.996 -396.314)" fill="#006400"/>
</svg>
