<svg xmlns="http://www.w3.org/2000/svg" width="16.868" height="12.651" viewBox="0 0 16.868 12.651">
  <g id="Group_256" data-name="Group 256" transform="translate(0.001 -64.016)" opacity="0.4">
    <path id="Path_281" data-name="Path 281" d="M194.639,197.451a2.789,2.789,0,0,1-1.988-.824.351.351,0,1,1,.5-.5,2.108,2.108,0,1,0,2.981-2.981.351.351,0,1,1,.5-.5,2.811,2.811,0,0,1-1.988,4.8Z" transform="translate(-186.206 -124.298)"/>
    <path id="Path_282" data-name="Path 282" d="M171.061,174.259a.352.352,0,0,1-.345-.29,2.749,2.749,0,0,1-.049-.49,2.783,2.783,0,0,1,3.3-2.763.351.351,0,0,1-.122.692,2.083,2.083,0,0,0-2.476,2.071,2.037,2.037,0,0,0,.038.368.352.352,0,0,1-.285.407A.311.311,0,0,1,171.061,174.259Z" transform="translate(-165.045 -103.137)"/>
    <path id="Path_283" data-name="Path 283" d="M137.472,145.326a8.788,8.788,0,0,1-3.839-.917.351.351,0,0,1,.305-.633,8.1,8.1,0,0,0,3.534.847c3.476,0,6.773-3.31,7.61-4.217a16.515,16.515,0,0,0-4.185-3.274.352.352,0,0,1,.323-.625,17.072,17.072,0,0,1,4.6,3.672.351.351,0,0,1,0,.454C145.661,140.825,141.8,145.326,137.472,145.326Z" transform="translate(-129.038 -70.065)"/>
    <path id="Path_284" data-name="Path 284" d="M3.481,114.9a.345.345,0,0,1-.194-.059,13.047,13.047,0,0,1-3.224-3.057.352.352,0,0,1,.02-.428c.162-.192,4.021-4.693,8.351-4.693a7.257,7.257,0,0,1,2.306.4.351.351,0,0,1,.221.445.347.347,0,0,1-.445.221,6.578,6.578,0,0,0-2.082-.368c-3.5,0-6.82,3.357-7.629,4.236a12.852,12.852,0,0,0,2.87,2.653.352.352,0,0,1-.194.645Z" transform="translate(0 -41.246)"/>
    <path id="Path_285" data-name="Path 285" d="M64.347,76.667a.351.351,0,0,1-.249-.6L76.046,64.119a.351.351,0,0,1,.5.5L64.595,76.564A.35.35,0,0,1,64.347,76.667Z" transform="translate(-61.887)"/>
  </g>
</svg>
