<svg id="Layer_1" data-name="Layer 1" xmlns="http://www.w3.org/2000/svg" viewBox="0 0 794 132"><defs><style>.cls-1,.cls-2{fill:none;}.cls-2{stroke:#c7c7c7;stroke-width:2px;stroke-dasharray:9;}.cls-3{fill:#ababab;}</style></defs><title>img_upload</title><g id="Rectangle_711" data-name="Rectangle 711"><rect class="cls-1" width="794" height="132"/><rect class="cls-2" x="1" y="1" width="792" height="130"/></g><g id="upload"><g id="Group_1152" data-name="Group 1152"><g id="Group_1151" data-name="Group 1151"><path id="Path_272" data-name="Path 272" class="cls-3" d="M407.62,69.91V76a1,1,0,0,1-1,.88H387.34a.94.94,0,0,1-1-.88h0V69.91h-2V76a2.82,2.82,0,0,0,3,2.63h19.33a2.82,2.82,0,0,0,3-2.63h0V69.91Z"/></g></g><g id="Group_1154" data-name="Group 1154"><g id="Group_1153" data-name="Group 1153"><path id="Path_273" data-name="Path 273" class="cls-3" d="M397,53.39l-5.43,5.43,1.23,1.23,3.32-3.32V70.39h1.75V56.73l3.32,3.32,1.23-1.23Z"/></g></g></g></svg>