<svg xmlns="http://www.w3.org/2000/svg" xmlns:xlink="http://www.w3.org/1999/xlink" width="298.629" height="368.084" viewBox="0 0 298.629 368.084">
  <defs>
    <clipPath id="clip-path">
      <path id="Path_528" data-name="Path 528" d="M314.724,298.3c.09.191,31.883,0,31.883,0s2.82-4.689,1.41-6.293-3.666,1.429-3.666,1.429-.141-5.288-.705-4.443-1.269-4.446-2.256-2.293-1.409,4.758-2.256,3.243-.278-6.6-1.41-5.744-.83,4.988-2.115,2.961-3.525-6.382-6.627-4.742-3.931,7.282-4.935,5.188-3.666-5.945-3.525-2.984-3.749.187-3.144,2.984-2.248,1.313-2.654,2.337S311.464,291.393,314.724,298.3Z" transform="translate(-313.181 -282.06)" fill="#21201f"/>
    </clipPath>
    <clipPath id="clip-path-2">
      <path id="Path_575" data-name="Path 575" d="M506.608,296.3c-.09.191-31.883,0-31.883,0s-2.82-4.689-1.41-6.293,3.666,1.429,3.666,1.429.141-5.288.7-4.442,1.269-4.446,2.257-2.294,1.409,4.758,2.256,3.243.278-6.6,1.409-5.744.831,4.988,2.115,2.961,3.525-6.382,6.628-4.742,3.931,7.282,4.935,5.188,3.666-5.945,3.525-2.984,3.749.187,3.144,2.984,2.248,1.313,2.654,2.337S509.867,289.393,506.608,296.3Z" transform="translate(-472.92 -280.06)" fill="#21201f"/>
    </clipPath>
  </defs>
  <g id="Group_1319" data-name="Group 1319" transform="translate(-213.911 -34.121)">
    <path id="Path_463" data-name="Path 463" d="M558.112,465.138l1.646-16.45-31.409,11.091,8.233,19.972q6.359-2.062,12.632-4.37l.294,1.073q-2.811.95-5.636,1.859-3.487,1.092-7,2.152l2.294,5.567,31.128-11.6Z" transform="translate(-87.155 -114.908)" fill="#0c0b0b"/>
    <path id="Path_464" data-name="Path 464" d="M274.408,476.166l.3-1.094q3.239,1.2,6.5,2.336,3.072,1.047,6.162,2.069l8.119-19.7L264.08,448.688l1.645,16.45-12.186,9.293,31.128,11.6,2.393-5.808Q280.694,478.314,274.408,476.166Z" transform="translate(-10.984 -114.908)" fill="#0c0b0b"/>
    <path id="Path_465" data-name="Path 465" d="M492.283,125.03a44.772,44.772,0,0,1-10.813-13.6,44.243,44.243,0,0,1-2.71-6.376,44.83,44.83,0,0,1-2.351-14.287c.053-.675.053-1.333.053-1.982a253.068,253.068,0,0,0-55.911-17.6c-1.42-.272-2.833-.526-4.253-.772-.7-.123-1.412-.245-2.123-.359-.447-.079-.885-.149-1.333-.21-.237-.044-.482-.088-.728-.123s-.491-.07-.737-.114c-.482-.079-.974-.149-1.464-.219-.789-.114-1.57-.228-2.359-.333q-2.368-.33-4.719-.606l-3.28-.368c-.885-.1-1.78-.184-2.666-.263q-2.829-.276-5.658-.465c-.675-.053-1.35-.1-2.025-.14-.939-.061-1.886-.114-2.833-.167-1.1-.053-2.193-.1-3.3-.149a1.2,1.2,0,0,0-.176-.009q-3.21-.119-6.429-.167c-5.455-.061-10.928.044-16.383.325q-8.644.448-17.26,1.491A252.3,252.3,0,0,0,270.1,88.686c.044.746.071,1.483.071,2.228A45.048,45.048,0,0,1,252.152,126.8q-1.341,1.013-2.763,1.921a261.155,261.155,0,0,0,10.937,48.237,3.023,3.023,0,0,0,.132.4c.044.149.087.289.14.429q2.5,7.565,5.464,14.945c.114.289.237.578.351.868q1.894,4.67,3.956,9.252c.1.237.219.483.333.729q2.132,4.709,4.455,9.322c.1.2.2.4.307.6q2.394,4.763,4.99,9.411c.087.158.176.315.272.473q4.618,8.235,9.822,16.128c.08.132.167.263.254.386.088.14.176.272.263.4a260.675,260.675,0,0,0,23.794,30.617v.009c.815.9,1.631,1.8,2.473,2.693q5.315,5.736,11,11.155c.544.526,1.087,1.044,1.631,1.544a261.737,261.737,0,0,0,43.387,32.994,262.227,262.227,0,0,0,43.036-32.608q5.881-5.5,11.4-11.322a262.556,262.556,0,0,0,28.591-36.1c.1-.131.184-.262.272-.4s.176-.263.254-.395q5.131-7.853,9.7-16.058c.07-.132.14-.272.219-.4q2.618-4.723,5.034-9.568c.1-.176.184-.36.272-.544q2.328-4.67,4.473-9.445c.1-.228.2-.447.3-.676q2.078-4.657,3.973-9.392c.1-.254.2-.518.3-.781q3-7.539,5.517-15.27c.044-.14.1-.289.14-.429s.088-.28.132-.412a262.245,262.245,0,0,0,10.463-46.7A45.088,45.088,0,0,1,492.283,125.03Zm-206.057-1.1a4.583,4.583,0,0,1-2.844-1.434,4.177,4.177,0,0,1-.509,1.873,3.528,3.528,0,0,1-3.084,1.87,3.455,3.455,0,0,1-.814-.1,3.569,3.569,0,0,1-2.276-5.113,5.067,5.067,0,0,1-1.132.149,3.747,3.747,0,0,1-1.18-.185,2.956,2.956,0,0,1-1.832-3.95,4.082,4.082,0,0,1,2.746-2.691,3.74,3.74,0,0,1,1.461-.113,4.558,4.558,0,0,1-.314-1.077,3.411,3.411,0,0,1,.76-2.788,2.931,2.931,0,0,1,2.089-1.042,3.555,3.555,0,0,1,2.587.938,4.174,4.174,0,0,1,1.17,1.986,4.6,4.6,0,0,1,2.276-1.454,3.154,3.154,0,0,1,3.23.948,3.864,3.864,0,0,1,.332,4.236,3.744,3.744,0,0,1-1.2,1.386,3.792,3.792,0,0,1,1.463,1.575,3.421,3.421,0,0,1-.252,3.428,2.994,2.994,0,0,1-2.562,1.558ZM397.742,235.359l-5.442,3.932v48.94a.271.271,0,0,1-.271.271H366.442a.271.271,0,0,1-.271-.271v-8.9a.271.271,0,0,1,.271-.271h16.416V246.113L365.984,258.3v18.473a.271.271,0,0,1-.271.271h-8.9a.271.271,0,0,1-.271-.271V227.218a.271.271,0,0,1,.271-.271h8.9a.271.271,0,0,1,.271.271v19.437l26.229-18.949a.272.272,0,0,1,.379.061l5.211,7.215A.271.271,0,0,1,397.742,235.359Zm33.318,1.126A86.514,86.514,0,0,0,416.4,225.839q-2.927-1.688-6-3.149a84.919,84.919,0,0,0-8.612-3.544,86.731,86.731,0,0,0-57.16.1c-.373.134-.742.265-1.11.4-1.01.373-2.007.761-3,1.169a86.123,86.123,0,0,0-18.9,10.759q-3.1,2.322-5.974,4.91-1.427-1.287-2.8-2.636-1.888-1.855-3.662-3.824A86.35,86.35,0,0,1,340.525,92.518c.991-.408,1.987-.8,3-1.169.369-.136.737-.267,1.11-.4a86.294,86.294,0,0,1,107.179,45.428,84.791,84.791,0,0,1,4.37,11.7q.711,2.408,1.274,4.877a86.435,86.435,0,0,1-26.4,83.527Zm39.685-115.5a3.75,3.75,0,0,1-1.18.185,5.067,5.067,0,0,1-1.132-.149,3.569,3.569,0,0,1-2.276,5.113,3.46,3.46,0,0,1-.814.1,3.527,3.527,0,0,1-3.084-1.87,4.177,4.177,0,0,1-.509-1.873,4.585,4.585,0,0,1-2.844,1.434l-.121,0a3,3,0,0,1-2.562-1.558,3.421,3.421,0,0,1-.251-3.428,3.79,3.79,0,0,1,1.467-1.577,3.71,3.71,0,0,1-1.2-1.384,3.861,3.861,0,0,1,.332-4.236,3.146,3.146,0,0,1,3.229-.948,4.589,4.589,0,0,1,2.276,1.454,4.181,4.181,0,0,1,1.171-1.986,3.555,3.555,0,0,1,2.586-.938,2.933,2.933,0,0,1,2.09,1.042,3.411,3.411,0,0,1,.76,2.788,4.519,4.519,0,0,1-.315,1.078,3.709,3.709,0,0,1,1.461.113,4.08,4.08,0,0,1,2.747,2.691A2.957,2.957,0,0,1,470.745,120.989Z" transform="translate(-9.834 -9.03)" fill="#21201f"/>
    <path id="Path_466" data-name="Path 466" d="M461.515,123.923A86.385,86.385,0,0,0,367,98.356c-.373.132-.741.263-1.11.4-1.011.373-2.007.761-3,1.169a86.543,86.543,0,0,0-27.78,18.408c-1.807,1.783-3.525,3.655-5.17,5.59Z" transform="translate(-32.162 -16.447)" fill="#186634"/>
    <g id="Group_1294" data-name="Group 1294" transform="translate(277.282 139.98)">
      <path id="Path_467" data-name="Path 467" d="M355.794,218.991c-.016-.181-.031-.358-.048-.553-.2-2.237-.376-4.492-.425-6.535-.523,1.327-.992,2.685-1.452,4.012q-.184.533-.369,1.066a5.026,5.026,0,0,1,.374,2.01Z" transform="translate(-315.972 -189.257)" fill="#397f45"/>
      <path id="Path_468" data-name="Path 468" d="M433.09,189.186a3.786,3.786,0,0,0,1.884-1.109,7.344,7.344,0,0,0,1.307-5.183,17.574,17.574,0,0,0-.345-2.322h-13.9C423.942,184.113,427.031,188.514,433.09,189.186Z" transform="translate(-334.969 -180.573)" fill="#397f45"/>
      <path id="Path_469" data-name="Path 469" d="M334.639,207.754a5.5,5.5,0,0,1,1.346-.731c.865-2.62,1.928-5.189,2.873-7.475a22.043,22.043,0,0,1,4.2-7.242c.108-.238.207-.455.314-.669,1.694-3.378,4.522-5.545,7.039-7.449l1.3-1.576q.836-1.012,1.681-2.038H304.778a86.318,86.318,0,0,0-3.2,23.31c0,2.162.088,4.3.244,6.424H332.25A9.054,9.054,0,0,1,334.639,207.754Z" transform="translate(-301.582 -180.573)" fill="#397f45"/>
      <path id="Path_470" data-name="Path 470" d="M516.343,184.506c-.3-1.326-.646-2.635-1.011-3.933H462.215a44.765,44.765,0,0,1,1.289,4.315l.008.022a37.8,37.8,0,0,1,1.246,17.5,16.946,16.946,0,0,1-3.032,7.893h56.559c.156-2.121.242-4.262.242-6.424A86.529,86.529,0,0,0,516.343,184.506Z" transform="translate(-345.97 -180.573)" fill="#397f45"/>
    </g>
    <path id="Path_471" data-name="Path 471" d="M360.4,161.624c.4-.514.784-1.043,1.172-1.574.153-.208.306-.418.459-.625a1.075,1.075,0,0,1,.095-.348,12.081,12.081,0,0,1,6.186-5.99,10.725,10.725,0,0,1,9.306.142c2.069,1.191,5.613,4.211,6.542,5.788a1.082,1.082,0,0,1,.113.834,60.045,60.045,0,0,1,3.693,4.9,17.918,17.918,0,0,1,1.1,2.022l.241.481h14.3c-.061-.252-.121-.5-.185-.757-.126-.511-.253-1.023-.37-1.535a43.312,43.312,0,0,1-.984-6.643,16.9,16.9,0,0,1-.036-2.035,8.018,8.018,0,0,1-.191-5.01l.045-.149a20.409,20.409,0,0,1-2.407-.077,1.084,1.084,0,0,1-.174-2.134c.452-.11.9-.24,1.34-.387-.035-.043-.069-.087-.1-.133a1.084,1.084,0,0,1,1.086-1.7l.056.011a1.086,1.086,0,0,1,.288-1.119,1.123,1.123,0,0,1,.8-.293c-.085-.15-.166-.3-.24-.464a3.53,3.53,0,0,1,.639-4.238,3.253,3.253,0,0,1,4.192.42,4.59,4.59,0,0,1,.732.925,1.086,1.086,0,0,1,1.23.371l.156.207c.023-.014.048-.027.072-.04a2.943,2.943,0,0,1,1.149-2.742,3.1,3.1,0,0,1,3.936.648,4.982,4.982,0,0,1,1.012,1.819,1.085,1.085,0,0,1,.931,1.759,4.57,4.57,0,0,0-.141.65c.146.069.337.143.471.194s.273.106.4.16c.687.2,1.428.433,2.322.738a28.055,28.055,0,0,0,2.893.647c3.434.667,7.707,1.5,9.736,3.376,1.517,1.405,2.207,4.779,1.9,7.008a1.031,1.031,0,0,1-.019.162l-.025.125c-.008.045-.022.115-.038.185-.042.212-.107.5-.15.639a2,2,0,0,1-.648,1.089c-1.667,1.975-5.306,2.028-7.371,1.278a10.023,10.023,0,0,1-1.2-.553c-.225-.116-.449-.232-.681-.333a9.518,9.518,0,0,0-6.018-.14,10.255,10.255,0,0,0-2.126.808,4.2,4.2,0,0,0,.073.421,20.846,20.846,0,0,0,1.428,3.744l.176.389c.408.9.776,1.8,1.125,2.706h53.235a84.793,84.793,0,0,0-4.232-11.261,86.312,86.312,0,0,0-11.5-18.473H322.3a85.871,85.871,0,0,0-15.74,29.733h49.352C357.438,165.38,358.961,163.493,360.4,161.624Z" transform="translate(-25.679 -28.66)" fill="#287039"/>
    <path id="Path_472" data-name="Path 472" d="M372.465,248.812c-.695-.956-1.988-2.733-1.169-4.531.025-.053.051-.106.077-.157a13.963,13.963,0,0,1-3.848,2.071c-.421.146-.86.275-1.3.4-1.43.419-2.781.815-3.425,1.808-.769,1.187-.329,2.948.233,4.8.581,1.918,1.088,3.869,1.533,5.833h14.107A71.373,71.373,0,0,0,372.465,248.812Z" transform="translate(-41.154 -58.208)" fill="#44844d"/>
    <path id="Path_473" data-name="Path 473" d="M415.882,246.588a13.273,13.273,0,0,1,.43-2.27,7.27,7.27,0,0,1-.483-3.368,7.062,7.062,0,0,1,.914-3.177c-.013-1.769.061-3.562.15-5.119a116.788,116.788,0,0,1-15.594,1.026h-.015c-1.345,0-2.69-.03-4.007-.088a18.214,18.214,0,0,1-3.64,4.145,21.907,21.907,0,0,0-2.6,2.671c-.163.205-.33.409-.5.614a8.6,8.6,0,0,0-1.528,2.287c-.658,1.783.285,3.819,1.489,6.1,1.109,2.1,2.19,4.26,3.24,6.45H414.82Z" transform="translate(-48.472 -55.028)" fill="#44844d"/>
    <path id="Path_474" data-name="Path 474" d="M443.01,255.2a18.859,18.859,0,0,0,3.021-3.339c.215-.682.44-1.361.667-2.038l3.449-10.316c.027-.081.056-.163.084-.244a8.227,8.227,0,0,1-.439-.7c-2.351-1.436-4.678-3.1-6.936-4.721-.428.4-.871.781-1.322,1.134a1.087,1.087,0,0,1-.926.2q-.405.383-.835.735a1.083,1.083,0,0,1-1.714-.487c-.408,1.411-.807,2.716-1.167,3.824a6.644,6.644,0,0,1,.327,4.181,5.5,5.5,0,0,1-1.791,2.7,22.813,22.813,0,0,1-.836,2.325c-.165.408-.318.789-.429,1.116a50.921,50.921,0,0,0-1.753,6.615h9.553A6.456,6.456,0,0,1,443.01,255.2Z" transform="translate(-60.563 -55.358)" fill="#44844d"/>
    <path id="Path_475" data-name="Path 475" d="M338.677,247.115l-.079-.223a27.88,27.88,0,0,1-1.616-5.994,10.009,10.009,0,0,1,1.357-6.7,14.052,14.052,0,0,1,1.052-1.337c.287-.335.558-.653.792-.982,1.608-2.26,1.66-5.41,1.464-8.252h-2.135a9.059,9.059,0,0,1-.263,1.208,6.359,6.359,0,0,1-2.242,3.319c-.135.1-.277.192-.418.285a3.173,3.173,0,0,0-.559.421,2.9,2.9,0,0,0-.253.348,3.492,3.492,0,0,1-.833.945,1.085,1.085,0,0,1-1.14.088c-.022-.011-.042-.023-.063-.035-.056.108-.109.217-.159.329a1.084,1.084,0,0,1-2.059-.262,8.4,8.4,0,0,1,0-2.744,1.087,1.087,0,0,1-.553-1.017,9.049,9.049,0,0,1,.682-2.887H302.072a85.518,85.518,0,0,0,8.223,29.734h30.411C340.093,251.228,339.389,249.14,338.677,247.115Z" transform="translate(-24.436 -52.526)" fill="#44844d"/>
    <path id="Path_476" data-name="Path 476" d="M348.685,280.436c-.216-.1-.429-.218-.638-.34a3.251,3.251,0,0,1-.341-.232,1.161,1.161,0,0,1-.12-.108,4.215,4.215,0,0,1-1.386-3.19,11.684,11.684,0,0,1-.354-2.361l-.021-.263a42.366,42.366,0,0,0-1.313-7.264h-30.1a86.426,86.426,0,0,0,12.843,18.753q1.773,1.97,3.662,3.824,1.372,1.348,2.8,2.635,2.874-2.585,5.973-4.909a86.276,86.276,0,0,1,9.644-6.271C349.119,280.63,348.9,280.54,348.685,280.436Z" transform="translate(-27.857 -64.459)" fill="#5d9362"/>
    <path id="Path_477" data-name="Path 477" d="M442.286,269.894a8.22,8.22,0,0,1-.789-1.3,3.7,3.7,0,0,1-.4-1.747c0-.059.015-.113.021-.17h-9.228q-.283,1.7-.449,3.414a86.058,86.058,0,0,1,12.555,2.048C443.406,271.405,442.831,270.659,442.286,269.894Z" transform="translate(-60.293 -64.459)" fill="#5d9362"/>
    <path id="Path_478" data-name="Path 478" d="M416.792,266.813l.015-.135H396.533c.7,1.488,1.387,2.987,2.052,4.5a86.731,86.731,0,0,1,15.594-1.42c.773,0,1.539.029,2.307.049C416.573,268.768,416.685,267.752,416.792,266.813Z" transform="translate(-50.618 -64.459)" fill="#5d9362"/>
    <path id="Path_479" data-name="Path 479" d="M382.753,272.594c-.722-2.006-1.55-3.977-2.46-5.916H365.83q.267,1.274.494,2.551c.108.61.2,1.222.295,1.835.567,1.679,2.306,2.411,3.934,2.906a32.972,32.972,0,0,1,3.893,1.389c.029.011.057.024.085.037l-.082.2.08-.032.068-.138.119.065c.375-.144.745-.3,1.124-.438s.737-.267,1.11-.4c1.931-.681,3.9-1.281,5.889-1.825Z" transform="translate(-42.108 -64.459)" fill="#5d9362"/>
    <path id="Path_480" data-name="Path 480" d="M483.607,186.294c-.132.351-.272.7-.413,1.052q-1.789,4.539-3.736,9.007c.017,0,.026,0,.035.009q1.947-4.459,3.728-9.007c.149-.351.28-.7.412-1.052.21-.535.421-1.061.623-1.6v-.079C484.045,185.18,483.826,185.742,483.607,186.294ZM247.861,198.4c.053.123.1.254.166.377h.009C247.975,198.652,247.923,198.52,247.861,198.4Zm235.746-12.1c-.132.351-.272.7-.413,1.052q-1.789,4.539-3.736,9.007c.017,0,.026,0,.035.009q1.947-4.459,3.728-9.007c.149-.351.28-.7.412-1.052.21-.535.421-1.061.623-1.6v-.079C484.045,185.18,483.826,185.742,483.607,186.294ZM392.413,46.549h-.035a.066.066,0,0,1,.044.009A.008.008,0,0,0,392.413,46.549Zm-.079-.009.009.009h.035c-.009,0-.017-.009-.026-.009Zm.21.026c0,.009,0,.009.009.009v-.009Zm.149.017.009.009h.009v-.009Zm-38.229-1.622c-.254.009-.518.017-.772.035l1.438-.053C354.912,44.943,354.683,44.953,354.464,44.961ZM247.861,198.4c.053.123.1.254.166.377h.009C247.975,198.652,247.923,198.52,247.861,198.4ZM243.423,96.565c-.009.035-.026.061-.035.088.132-.246.254-.5.386-.755C243.66,96.127,243.546,96.346,243.423,96.565Zm240.184,89.729c-.132.351-.272.7-.413,1.052q-1.789,4.539-3.736,9.007c.017,0,.026,0,.035.009q1.947-4.459,3.728-9.007c.149-.351.28-.7.412-1.052.21-.535.421-1.061.623-1.6v-.079C484.045,185.18,483.826,185.742,483.607,186.294ZM393,46.619h-.009a.008.008,0,0,1,.009.009h.017A.027.027,0,0,0,393,46.619Zm-.307-.035.009.009h.009v-.009Zm-.149-.017h-.009v.009h.017v-.009Zm-.079-.009.009.009.009-.009C392.475,46.566,392.475,46.557,392.466,46.557Zm-.114-.017h-.017l.009.009h.017A.008.008,0,0,0,392.352,46.54Zm.061.009h-.035a.066.066,0,0,1,.044.009A.008.008,0,0,0,392.413,46.549Zm-7.13-.719c-.254-.017-.509-.044-.763-.061.491.035.974.079,1.456.132C385.739,45.873,385.511,45.847,385.283,45.829Zm-30.819-.868c-.254.009-.518.017-.772.035l1.438-.053C354.912,44.943,354.683,44.953,354.464,44.961ZM247.861,198.4c.053.123.1.254.166.377h.009C247.975,198.652,247.923,198.52,247.861,198.4ZM243.423,96.565c-.009.035-.026.061-.035.088.132-.246.254-.5.386-.755C243.66,96.127,243.546,96.346,243.423,96.565Zm240.184,89.729c-.132.351-.272.7-.413,1.052q-1.789,4.539-3.736,9.007c.017,0,.026,0,.035.009q1.947-4.459,3.728-9.007c.149-.351.28-.7.412-1.052.21-.535.421-1.061.623-1.6v-.079C484.045,185.18,483.826,185.742,483.607,186.294ZM392.992,46.619a.008.008,0,0,1,.009.009h.017a.027.027,0,0,0-.017-.009Zm-.307-.035a.016.016,0,0,0-.026,0,.078.078,0,0,1,.043.009h.027c-.009-.009-.009-.009-.017-.009Zm-.087-.009.026.009h.009a.032.032,0,0,0-.026-.009Zm-.053-.009h-.009c-.009.009-.009,0-.017,0h-.009a.034.034,0,0,0,.027.009h.035c-.009-.009-.009-.009-.017-.009Zm-.079-.009h-.018a.034.034,0,0,0,.027.009h.017l-.009-.009C392.475,46.566,392.475,46.557,392.466,46.557Zm-.088-.009a.066.066,0,0,1,.044.009.008.008,0,0,0-.009-.009Zm-.061-.009h-.009c.009,0,.027.009.035.009l-.009-.009C392.326,46.549,392.326,46.54,392.317,46.54ZM391.9,46.5l.237.026-.21-.026Zm-.894-.1c.043.009.087.009.14.017l.175.017c.114.009.237.027.351.035a.113.113,0,0,0-.053-.009C391.422,46.434,391.221,46.408,391.01,46.4Zm-6.49-.632c.491.035.974.079,1.456.132-.236-.026-.465-.053-.692-.07C385.029,45.812,384.774,45.785,384.52,45.768ZM353.692,45l1.438-.053c-.219,0-.447.009-.666.018C354.21,44.97,353.947,44.979,353.692,45ZM248.028,198.775h.009c-.061-.123-.113-.254-.175-.377C247.914,198.52,247.966,198.652,248.028,198.775ZM243.389,96.653c.132-.246.254-.5.386-.755-.114.228-.228.447-.351.666C243.415,96.6,243.4,96.627,243.389,96.653ZM510.856,106.3l-10.454-6.07c-.395-.228-.772-.465-1.149-.719a21.068,21.068,0,0,1-7.806-9.481v-.009a20.838,20.838,0,0,1-1.175-3.789,21.062,21.062,0,0,1-.447-4.35c0-.2,0-.4.009-.588a6.593,6.593,0,0,1,.071-1.034L491.263,65.2,477.4,58.985A284.268,284.268,0,0,0,363.252,34.174h-.272v-.053a284.244,284.244,0,0,0-114.189,24.7l-13.91,6.2-.035.017,1.42,15.208a13.685,13.685,0,0,1,.079,1.693c0,.666-.035,1.324-.1,1.973a20.462,20.462,0,0,1-.851,4.271l-.053.158a21.083,21.083,0,0,1-9.454,11.823l-.833.492-11.147,6.586.009.061.122,1.008,1.518,12.735c.675,5.683,1.535,11.331,2.543,16.935q.224,1.2.447,2.395a.016.016,0,0,1,0,.026q.618,3.183,1.29,6.341.908,4.223,1.938,8.411.961,3.854,2.017,7.683c.245.912.5,1.816.763,2.719.009.009.009.009,0,.017q1.447,5,3.061,9.928a3.91,3.91,0,0,0,.132.421c.044.14.087.281.14.412.833,2.561,1.719,5.1,2.631,7.631.053.14.106.28.149.421s.106.263.149.4c.781,2.122,1.588,4.245,2.421,6.35.184.473.369.956.57,1.429q1.7,4.276,3.552,8.49.276.658.579,1.316c.3.685.605,1.36.912,2.044s.614,1.359.921,2.034q.934,2.026,1.912,4.043c.061.123.123.254.184.386h.009c.035.079.079.158.114.246.052.113.113.236.175.359.1.2.193.4.289.6h.009q2.092,4.315,4.359,8.551c.114.219.228.43.342.649v.009c.079.14.149.28.228.412s.132.254.21.377v.009c.14.272.28.535.439.8v.009q1.486,2.749,3.034,5.454,1.986,3.474,4.078,6.894a.047.047,0,0,1,.017.035c.254.412.509.824.772,1.237.07.132.149.254.236.386a1.4,1.4,0,0,0,.132.21,2.006,2.006,0,0,0,.114.175l.421.685c.14.228.28.456.429.692a282.826,282.826,0,0,0,19.2,26.872c1.35,1.684,2.737,3.359,4.131,5.016q4.236,5.025,8.717,9.849v.009c.728.772,1.438,1.535,2.175,2.307q4.749,5.025,9.77,9.814,3.947,3.8,8.069,7.438,3.025,2.684,6.148,5.288,7.8,6.525,16.111,12.515,4.973,3.579,10.121,6.964t10.472,6.56l10.9,6.49,5.455-3.236L374,331.3c.737-.439,1.473-.877,2.21-1.324q3.3-2.012,6.552-4.1,4.315-2.79,8.516-5.718c1.394-.982,2.789-1.965,4.166-2.964s2.754-2.017,4.114-3.034,2.71-2.061,4.051-3.105,2.667-2.1,3.982-3.166q4.736-3.855,9.3-7.876c2.193-1.947,4.359-3.911,6.482-5.92q2.71-2.538,5.35-5.157l6.876-7.06,31.24-39.721c1.36-2.1,2.7-4.2,4.008-6.333.079-.132.166-.263.245-.4.079-.123.158-.254.237-.386q4.433-7.274,8.428-14.813c.176-.307.342-.622.492-.938q2.078-3.908,4.008-7.9c.14-.272.272-.553.412-.833a.432.432,0,0,0,.026-.061c.15-.307.29-.614.439-.921a.314.314,0,0,0,.035-.079v-.009q2.065-4.315,3.982-8.7c.176-.395.351-.8.518-1.2h.009q1.592-3.683,3.078-7.428c.158-.4.325-.807.473-1.219.009-.009.009-.009.009,0v-.009c.088-.219.176-.438.254-.658.044-.113.087-.219.132-.333s.079-.219.123-.333q.974-2.486,1.895-5c.176-.5.359-.991.526-1.49a.535.535,0,0,1,.043-.106.4.4,0,0,0,.035-.1,2,2,0,0,0,.07-.21h.009c.053-.132.1-.263.14-.4v-.009c.948-2.631,1.842-5.288,2.7-7.955v-.009c.053-.14.1-.272.141-.412l.131-.421c.456-1.42.895-2.841,1.334-4.271.588-1.947,1.157-3.894,1.7-5.858s1.07-3.929,1.579-5.9c.561-2.218,1.1-4.455,1.622-6.691s1-4.482,1.465-6.736c.684-3.385,1.324-6.788,1.894-10.208.193-1.131.377-2.281.553-3.42q.474-3.052.877-6.122c.132-1.018.263-2.043.386-3.07l1.693-13.927ZM246.168,71.614l.193-.087,5.508-2.447,1.271-.561q3.8-1.7,7.639-3.254a.724.724,0,0,1,.21-.087c.833-.351,1.667-.684,2.5-1.008a.638.638,0,0,1,.114-.044c.877-.351,1.737-.692,2.614-1.026.307-.132.622-.246.93-.369.552-.219,1.123-.43,1.684-.632a.608.608,0,0,1,.113-.043c.2-.08.395-.15.6-.22l.009-.009c.71-.272,1.42-.526,2.14-.781a1.038,1.038,0,0,1,.21-.079l.439-.158c.176-.07.359-.132.535-.193l.974-.342c.719-.254,1.438-.509,2.158-.755s1.438-.482,2.158-.719c.465-.166.938-.325,1.412-.473.254-.079.5-.167.754-.237.211-.07.413-.14.623-.2.359-.123.728-.236,1.1-.351.158-.053.306-.1.465-.149l.763-.237c.254-.079.518-.166.772-.237.21-.07.421-.132.632-.192.544-.176,1.1-.343,1.649-.509q3.394-1.013,6.8-1.939c.851-.228,1.71-.456,2.561-.675q2.565-.671,5.148-1.29c.483-.113.965-.228,1.447-.333.123-.035.246-.061.369-.087s.219-.061.333-.079l.429-.106c1.561-.359,3.131-.711,4.71-1.026.816-.184,1.64-.351,2.455-.509.992-.21,1.991-.4,2.991-.588h.026c.4-.079.8-.158,1.2-.228.588-.123,1.184-.228,1.771-.325.018-.009.035-.018.053-.009.413-.079.816-.149,1.228-.21,1.456-.263,2.911-.5,4.377-.728,1.149-.184,2.307-.359,3.464-.518.3-.053.606-.1.912-.132l.176-.026h.035c.018,0,.035-.009.053-.009s.035-.009.053-.009c.272-.044.552-.088.824-.123.833-.114,1.667-.228,2.5-.333.017,0,.043-.009.061-.009s.061-.009.087-.009c.132-.017.254-.035.377-.043s.246-.027.369-.044c.439-.061.877-.1,1.324-.158.623-.08,1.254-.15,1.886-.22,1.184-.14,2.377-.263,3.561-.377,1.386-.132,2.78-.263,4.166-.369.588-.053,1.184-.1,1.772-.14l.316-.027c.395-.035.781-.061,1.175-.087a.03.03,0,0,1,.017-.009c.5-.035,1.009-.07,1.517-.1a.466.466,0,0,0,.114-.009h.044c.1,0,.2-.009.306-.017l1.658-.1c.113,0,.236-.009.351-.018.974-.061,1.938-.1,2.912-.149l.693-.026a.983.983,0,0,0,.166-.009c.088,0,.176,0,.263-.009.106,0,.211,0,.316-.009l1.438-.053c.965-.035,1.921-.061,2.886-.087.588-.017,1.184-.026,1.772-.035,1.087-.018,2.175-.035,3.262-.044h.114q4.1.026,8.209.184c.149.009.289.009.439.017.3.009.6.017.894.035.088.009.167.009.254.018.895.035,1.8.079,2.693.123.632.026,1.254.061,1.886.113l.421.027c.193,0,.395.017.588.035s.4.018.605.035c.114,0,.22.009.333.017h.07c.088.009.167.009.254.017l.483.027a1.719,1.719,0,0,0,.21.017c.316.017.622.044.938.07.816.061,1.631.123,2.438.193.132.017.254.026.377.035l.263.026c.491.035.974.079,1.456.132.079.009.167.009.246.017.035,0,.061.009.1.009h.009a.034.034,0,0,0,.027.009.4.4,0,0,1,.1.009l.351.026a.112.112,0,0,0,.053.009c.64.053,1.28.114,1.929.176.28.035.57.061.851.087.035.009.07.009.1.017.3.027.6.061.886.1l.237.026c.043.009.1.009.14.018s.087.009.14.017l.175.017.11.011c.343.038.686.078,1.028.117,0,0,.008,0,.012,0h.022l.02,0a.042.042,0,0,0,.02.007h.038l.036,0,.014,0h.027l.02,0a.071.071,0,0,1,.033.007h.025l.061.007a.719.719,0,0,1,.142.02h.029l.036,0s.005,0,.005,0h.035c.018,0,.044.009.061.009l.465.053h.014l.186.021s.005.005.011.005h.017c.053.009.1.009.149.018a.768.768,0,0,1,.14.017h.027l1.263.158c.622.08,1.245.167,1.868.246.553.07,1.1.149,1.64.219q3.3.461,6.578.991c.982.158,1.956.325,2.93.492,1.149.2,2.3.412,3.446.622q3.17.606,6.323,1.281a.271.271,0,0,1,.114.026,270.763,270.763,0,0,1,30.845,8.49c.123.035.246.07.36.114.009,0,.017.009.026.009.439.15.886.3,1.324.465q2.921,1,5.8,2.07,8.3,3.091,16.41,6.718l1.921.859,5.016,2.254-.684,7.56c-.07.859-.1,1.728-.123,2.588q0,.578.027,1.157c.009.14.009.272.017.4s.009.281.026.413c.017.306.035.614.07.911.027.316.061.623.106.939a.607.607,0,0,0,.017.123c.017.2.044.395.079.588.009.1.018.2.035.3.009.044.009.079.017.123s.009.07.017.106a.049.049,0,0,0,.009.035c.026.149.052.3.079.447q.079.487.184.974h.009a.152.152,0,0,0,.009.061c-.009.009,0,.017,0,.026s.009.026.009.044c.087.386.176.763.272,1.131.106.421.219.842.342,1.254s.254.825.395,1.228a.055.055,0,0,0,.018.043c.1.316.21.623.333.939q.368.96.789,1.894c.289.623.588,1.237.912,1.842a27.746,27.746,0,0,0,1.587,2.649c.377.57.781,1.131,1.193,1.675a28.331,28.331,0,0,0,2,2.368c.237.254.473.5.719.746.061.061.123.122.184.175a1.855,1.855,0,0,1,.193.176.669.669,0,0,1,.079.079c.1.079.2.176.3.263.28.272.561.535.851.789s.587.518.885.763.605.491.912.728.622.465.947.692c.1.07.2.14.307.2s.2.123.307.184c.043.027.079.053.122.079.263.176.518.342.79.509.009.009.026.017.035.026.114.071.237.15.351.228s.228.149.351.219l6.06,3.517-.833,6.964q-.671,5.551-1.561,11.042c-.2,1.219-.412,2.438-.622,3.657q-.776,4.367-1.684,8.709v.009c-.544,2.561-1.123,5.122-1.728,7.665q-.461,1.908-.947,3.815c-.333,1.29-.676,2.579-1.018,3.859q-1.579,5.776-3.385,11.445a3.918,3.918,0,0,1-.132.421c-.044.141-.088.272-.132.413v.009h-.009c-.272.877-.553,1.745-.842,2.614-.666,1.973-1.342,3.938-2.052,5.893a3.21,3.21,0,0,1-.15.4v.009c-.043.14-.1.28-.149.412-.237.666-.473,1.324-.728,1.982v.009c-.14.395-.289.781-.439,1.167s-.289.789-.438,1.175c-.211.552-.43,1.114-.649,1.666-.132.351-.272.7-.413,1.052q-1.789,4.539-3.736,9.007c-.132.316-.272.622-.413.938q-1.92,4.381-4.008,8.7c-.052.1-.1.21-.158.324-.14.281-.272.553-.412.833q-2.237,4.579-4.64,9.069c-.132.237-.254.473-.386.719h-.009c-.438.815-.885,1.631-1.324,2.438q-1.342,2.434-2.737,4.841c-.473.807-.938,1.6-1.412,2.4-.632,1.061-1.271,2.123-1.912,3.175-.526.85-1.052,1.7-1.587,2.543v.009c-.079.132-.158.263-.246.386s-.158.263-.246.395q-5.144,8.17-10.875,15.953c-.763,1.044-1.543,2.078-2.315,3.1q-1.645,2.171-3.333,4.307c-1.123,1.429-2.262,2.841-3.42,4.253-.772.938-1.543,1.868-2.324,2.8q-1.566,1.841-3.167,3.675-2.736,3.13-5.586,6.183-3.763,4.065-7.718,7.972c-.465.465-.938.93-1.412,1.377-1.772,1.745-3.561,3.446-5.385,5.122a272.618,272.618,0,0,1-45.878,34.283l-5.394,3.254-5.455-3.245c-.675-.4-1.35-.807-2.017-1.21s-1.334-.816-2-1.228q-6-3.71-11.752-7.709-1.539-1.066-3.052-2.149-3.039-2.171-6.007-4.411T327,300.887q-4.354-3.487-8.56-7.122-4.183-3.644-8.218-7.446c-.439-.412-.877-.815-1.307-1.228s-.859-.833-1.289-1.245c-.859-.833-1.719-1.667-2.561-2.509q-4.631-4.6-9.034-9.41a272.623,272.623,0,0,1-28.766-37.476c-.087-.132-.176-.263-.254-.4h-.009c-.079-.123-.158-.246-.237-.377q-4.788-7.551-9.077-15.409c-.149-.263-.289-.526-.429-.8-.009-.009-.009-.009-.009,0v-.009c-.22-.395-.43-.789-.649-1.193-.614-1.141-1.211-2.289-1.807-3.438q-1.092-2.118-2.148-4.262c-.167-.316-.316-.632-.465-.948q-1.29-2.6-2.509-5.245c-.28-.587-.544-1.175-.815-1.762s-.535-1.175-.8-1.772a.6.6,0,0,1-.027-.061c-.061-.123-.113-.254-.175-.377-.079-.184-.158-.359-.237-.544v-.009a.771.771,0,0,1-.061-.15c-.132-.28-.254-.561-.377-.851-.755-1.71-1.483-3.42-2.193-5.148-.193-.465-.386-.93-.579-1.4s-.377-.938-.561-1.412c-.114-.254-.22-.518-.325-.781-.044-.132-.1-.263-.158-.4v-.009c-.385-.974-.763-1.956-1.14-2.938-.272-.7-.535-1.4-.789-2.1-.1-.29-.2-.57-.307-.859a3.208,3.208,0,0,1-.158-.4c-.053-.132-.106-.272-.149-.412-.114-.316-.237-.631-.351-.956s-.228-.64-.342-.956c-.228-.632-.456-1.271-.684-1.912v-.009c-.421-1.228-.842-2.465-1.254-3.7-.07-.22-.149-.43-.219-.658v-.009a2,2,0,0,0-.071-.21c-.017-.07-.043-.14-.061-.21a3.946,3.946,0,0,1-.132-.412H237.7A273.792,273.792,0,0,1,226.2,119.78l-.824-6.9v-.009l5.99-3.534a2.109,2.109,0,0,0,.228-.14h.009c.587-.351,1.149-.719,1.71-1.105s1.088-.789,1.614-1.2a31.934,31.934,0,0,0,2.973-2.674c.237-.246.473-.492.711-.746a33.109,33.109,0,0,0,2.57-3.183c.254-.369.492-.745.737-1.114,0-.009,0-.009.009-.017v-.009c.026-.044.052-.079.079-.123.043-.07.1-.149.149-.22s.1-.158.149-.228c.114-.193.237-.386.351-.588s.219-.395.324-.588c.079-.14.158-.28.228-.421.07-.106.123-.21.184-.325.132-.246.254-.5.386-.755.149-.306.3-.614.438-.93s.272-.631.4-.947c0-.009.009-.027.009-.035.132-.3.245-.605.368-.912v-.009c.114-.316.228-.631.333-.956h.009V92.1c.106-.325.21-.649.307-.974s.193-.649.289-.982.167-.666.246-1c.158-.676.29-1.351.4-2.035s.2-1.368.272-2.061a31.54,31.54,0,0,0,.158-3.166c0-.219,0-.447-.009-.666s-.017-.43-.027-.649c-.009-.236-.026-.482-.043-.719-.018-.21-.035-.412-.053-.622l-.5-5.368-.184-1.973-.026-.236Zm-2.745,24.951c-.009.035-.026.061-.035.088.132-.246.254-.5.386-.755C243.66,96.127,243.546,96.346,243.423,96.565ZM247.861,198.4c.053.123.1.254.166.377h.009C247.975,198.652,247.923,198.52,247.861,198.4Zm106.6-153.436c-.254.009-.518.017-.772.035l1.438-.053C354.912,44.943,354.683,44.953,354.464,44.961Zm30.819.868c-.254-.017-.509-.044-.763-.061.491.035.974.079,1.456.132C385.739,45.873,385.511,45.847,385.283,45.829Zm7.13.719h-.035a.066.066,0,0,1,.044.009A.008.008,0,0,0,392.413,46.549Zm-.1-.009h-.009c.009,0,.027.009.035.009l-.009-.009C392.326,46.549,392.326,46.54,392.317,46.54Zm.228.026h-.009c-.009.009-.009,0-.017,0h-.009a.034.034,0,0,0,.027.009h.017v-.009Zm-.079-.009h-.018a.034.034,0,0,0,.027.009h.017l-.009-.009C392.475,46.566,392.475,46.557,392.466,46.557Zm.14.017H392.6l.026.009h.009A.032.032,0,0,0,392.606,46.575Zm.079.009a.03.03,0,0,0-.017-.009.008.008,0,0,0-.009.009.078.078,0,0,1,.043.009h.009v-.009Zm.316.035h-.009a.008.008,0,0,1,.009.009h.017A.027.027,0,0,0,393,46.619Zm90.606,139.676c-.132.351-.272.7-.413,1.052q-1.789,4.539-3.736,9.007c.017,0,.026,0,.035.009q1.947-4.459,3.728-9.007c.149-.351.28-.7.412-1.052.21-.535.421-1.061.623-1.6v-.079C484.045,185.18,483.826,185.742,483.607,186.294ZM243.423,96.565c-.009.035-.026.061-.035.088.132-.246.254-.5.386-.755C243.66,96.127,243.546,96.346,243.423,96.565ZM247.861,198.4c.053.123.1.254.166.377h.009C247.975,198.652,247.923,198.52,247.861,198.4Zm106.6-153.436c-.254.009-.518.017-.772.035l1.438-.053C354.912,44.943,354.683,44.953,354.464,44.961Zm38.229,1.622.009.009h.009v-.009Zm90.913,139.711c-.132.351-.272.7-.413,1.052q-1.789,4.539-3.736,9.007c.017,0,.026,0,.035.009q1.947-4.459,3.728-9.007c.149-.351.28-.7.412-1.052.21-.535.421-1.061.623-1.6v-.079C484.045,185.18,483.826,185.742,483.607,186.294ZM243.423,96.565c-.009.035-.026.061-.035.088.132-.246.254-.5.386-.755C243.66,96.127,243.546,96.346,243.423,96.565ZM247.861,198.4c.053.123.1.254.166.377h.009C247.975,198.652,247.923,198.52,247.861,198.4ZM392.413,46.549h-.035a.066.066,0,0,1,.044.009A.008.008,0,0,0,392.413,46.549Zm-.079-.009.009.009h.035c-.009,0-.017-.009-.026-.009Zm.21.026c0,.009,0,.009.009.009v-.009Zm.149.017.009.009h.009v-.009Zm90.913,139.711c-.132.351-.272.7-.413,1.052q-1.789,4.539-3.736,9.007c.017,0,.026,0,.035.009q1.947-4.459,3.728-9.007c.149-.351.28-.7.412-1.052.21-.535.421-1.061.623-1.6v-.079C484.045,185.18,483.826,185.742,483.607,186.294ZM247.861,198.4c.053.123.1.254.166.377h.009C247.975,198.652,247.923,198.52,247.861,198.4Zm235.746-12.1c-.132.351-.272.7-.413,1.052.009-.009.009,0,.009,0a.03.03,0,0,1,.017.009c.149-.351.28-.7.412-1.052.21-.535.421-1.061.623-1.6v-.079C484.045,185.18,483.826,185.742,483.607,186.294Z" transform="translate(0)" fill="#21201f"/>
    <g id="Group_1295" data-name="Group 1295" transform="translate(377.489 280.062)">
      <path id="Path_481" data-name="Path 481" d="M441.68,442.032a1.465,1.465,0,0,1-.447-2.859c.3-.1,30.007-9.723,49.922-24.369,27.124-19.946,35.6-39.351,35.684-39.544a1.465,1.465,0,0,1,2.7,1.144c-.348.819-8.817,20.3-36.646,40.76-20.307,14.932-50.461,24.7-50.763,24.8A1.488,1.488,0,0,1,441.68,442.032Z" transform="translate(-440.215 -374.37)" fill="#d0b659"/>
    </g>
    <g id="Group_1296" data-name="Group 1296" transform="translate(439.729 309.456)">
      <path id="Path_482" data-name="Path 482" d="M537.909,442.542a10.407,10.407,0,0,1-10.285-8.952,8.6,8.6,0,0,1,7.333-9.712,7.174,7.174,0,0,1,8.1,6.114,6.032,6.032,0,0,1-5.141,6.81c-.812.109,2.355-1.572,2.241-6.4a3.761,3.761,0,0,0-1.647-2.8,4.25,4.25,0,0,0-3.146-.816,5.674,5.674,0,0,0-4.837,6.407,7.471,7.471,0,0,0,8.422,6.356A9.7,9.7,0,0,0,547.2,428.6c-.39-2.794-1.543-6.584-4.818-8.768-3.256-2.174-8.047-2.455-14.227-.84a1.465,1.465,0,1,1-.741-2.835c7.027-1.832,12.611-1.421,16.593,1.237,3.308,2.207,5.415,5.941,6.093,10.8a12.634,12.634,0,0,1-10.752,14.246A10.506,10.506,0,0,1,537.909,442.542Z" transform="translate(-526.322 -415.037)" fill="#d0b659"/>
    </g>
    <g id="Group_1297" data-name="Group 1297" transform="translate(432.982 285.293)">
      <path id="Path_483" data-name="Path 483" d="M534.86,399.382a1.467,1.467,0,0,1-1.412-1.854c1.158-4.2,1.022-7.447-.4-9.645a8.225,8.225,0,0,0-5.812-3.273,6.37,6.37,0,0,0-7.263,5.332,4.8,4.8,0,0,0,4.02,5.475,3.548,3.548,0,0,0,4.047-2.971,2.7,2.7,0,0,0-.465-1.894c-2.543-3.916-6.673.808-6.55.008a4.675,4.675,0,0,1,5.328-3.912,5.474,5.474,0,0,1,4.582,6.242,6.479,6.479,0,0,1-7.385,5.422,7.74,7.74,0,0,1-6.471-8.813,9.3,9.3,0,0,1,10.6-7.783c3.532.541,6.24,2.124,7.827,4.576,1.9,2.929,2.157,6.972.767,12.015A1.466,1.466,0,0,1,534.86,399.382Z" transform="translate(-516.987 -381.608)" fill="#d0b659"/>
    </g>
    <path id="Path_484" data-name="Path 484" d="M449.361,455.568s19.822-6.3,33.232-13.943c13.148-7.5,26.111-18.42,26.111-18.42s-4.961,5.126-4.536,12.261c.456,7.643,7.285,10.443,7.285,10.443s-17.365,2.772-21.01-4.283C486.914,447.706,470.244,455.568,449.361,455.568Z" transform="translate(-65.261 -107.844)" fill="#186634"/>
    <path id="Path_485" data-name="Path 485" d="M568.638,362.147c.995-1.118,3.428-1.016,3.428-1.016s-6.57-6.064-8.982-1.021c2.412-5.043-6.432-6.352-6.432-6.352s1.607,1.83,1.36,3.306-3.537,3.929-6.236,7.82c-2.375,3.424-2.709,9.148,3.277,12.012s10.233-.988,11.408-4.987C567.8,367.367,567.644,363.265,568.638,362.147Z" transform="translate(-93.206 -88.596)" fill="#186634"/>
    <path id="Path_486" data-name="Path 486" d="M573.17,353.36a2.807,2.807,0,0,1-5.065-2.423c.669-1.4,5.9-5.835,5.9-5.835S573.839,351.961,573.17,353.36Z" transform="translate(-98.098 -86.196)" fill="#d0b659"/>
    <path id="Path_487" data-name="Path 487" d="M576.926,409.328c.951-.035,1.973,1.128,1.973,1.128s-.1-5.681-3.479-4.572c3.376-1.109.09-5.744.09-5.744s-.134,1.542-.92,2.077-3.358.1-6.33.574a5.229,5.229,0,1,0,3.229,9.83C574.161,411.237,575.976,409.362,576.926,409.328Z" transform="translate(-96.994 -101.451)" fill="#186634"/>
    <path id="Path_488" data-name="Path 488" d="M584.881,407.4a1.784,1.784,0,1,1-1.113-3.389c.936-.308,5.272.145,5.272.145S585.817,407.089,584.881,407.4Z" transform="translate(-102.175 -102.494)" fill="#d0b659"/>
    <path id="Path_489" data-name="Path 489" d="M541.8,368.162c.273-.669,1.4-1.015,1.4-1.015s-3.971-1.706-4.258.981c.287-2.687-3.955-1.858-3.955-1.858s1.028.575,1.153,1.287-.979,2.361-1.583,4.569a3.977,3.977,0,1,0,7.825.836C542.257,370.676,541.526,368.832,541.8,368.162Z" transform="translate(-88.832 -92.03)" fill="#186634"/>
    <path id="Path_490" data-name="Path 490" d="M541.947,363.492a1.357,1.357,0,1,1-2.7-.288A20.841,20.841,0,0,1,541,359.593,20.873,20.873,0,0,1,541.947,363.492Z" transform="translate(-90.174 -90.213)" fill="#d0b659"/>
    <path id="Path_491" data-name="Path 491" d="M459.97,441.167s8.276-2.138,22.944-10.607a131.951,131.951,0,0,0,25.017-18.917s-2.622,1.526-5.368-1.22-10.74,11.716-10.74,11.716-5.751-.88-8.543.733S459.97,441.167,459.97,441.167Z" transform="translate(-68.202 -104.206)" fill="#186634"/>
    <path id="Path_492" data-name="Path 492" d="M543.61,406.539a73.588,73.588,0,0,0,6.871-6.664,58.9,58.9,0,0,0,5.9-7.773s2.909,3.884,1.932,7.238-5.471,3.539-5.471,3.539c1.321,2.685,2.742,9.163,3.143,14.188,0,0-1.709-5.645-5.462-8.385C547.956,406.806,543.61,406.539,543.61,406.539Z" transform="translate(-91.384 -99.223)" fill="#186634"/>
    <g id="Group_1298" data-name="Group 1298" transform="translate(258.772 280.062)">
      <path id="Path_493" data-name="Path 493" d="M363.947,442.032a1.465,1.465,0,0,0,.447-2.859c-.3-.1-30.007-9.723-49.922-24.369-27.123-19.946-35.6-39.351-35.685-39.544a1.465,1.465,0,0,0-2.7,1.144c.348.819,8.817,20.3,36.646,40.76,20.307,14.932,50.461,24.7,50.763,24.8A1.493,1.493,0,0,0,363.947,442.032Z" transform="translate(-275.975 -374.37)" fill="#d0b659"/>
    </g>
    <g id="Group_1300" data-name="Group 1300" transform="translate(262.065 309.456)">
      <g id="Group_1299" data-name="Group 1299">
        <path id="Path_494" data-name="Path 494" d="M292.848,442.542a10.405,10.405,0,0,0,10.284-8.952,8.6,8.6,0,0,0-7.332-9.712,7.173,7.173,0,0,0-8.1,6.114,6.032,6.032,0,0,0,5.141,6.81c.812.109-2.356-1.572-2.241-6.4a3.76,3.76,0,0,1,1.647-2.8,4.249,4.249,0,0,1,3.146-.816,5.673,5.673,0,0,1,4.836,6.407,7.47,7.47,0,0,1-8.422,6.356,9.7,9.7,0,0,1-8.257-10.94c.39-2.794,1.543-6.584,4.818-8.768,3.256-2.174,8.047-2.455,14.227-.84a1.465,1.465,0,0,0,.741-2.835c-7.027-1.832-12.611-1.421-16.593,1.237-3.308,2.207-5.416,5.941-6.093,10.8a12.634,12.634,0,0,0,10.752,14.246A10.5,10.5,0,0,0,292.848,442.542Z" transform="translate(-280.531 -415.037)" fill="#d0b659"/>
      </g>
    </g>
    <g id="Group_1302" data-name="Group 1302" transform="translate(272.553 285.293)">
      <g id="Group_1301" data-name="Group 1301">
        <path id="Path_495" data-name="Path 495" d="M297.33,399.382a1.467,1.467,0,0,0,1.413-1.854c-1.159-4.2-1.023-7.447.4-9.645a8.225,8.225,0,0,1,5.812-3.273,6.371,6.371,0,0,1,7.263,5.332,4.806,4.806,0,0,1-4.02,5.475,3.549,3.549,0,0,1-4.048-2.971,2.711,2.711,0,0,1,.465-1.894c2.544-3.916,6.673.808,6.55.008a4.674,4.674,0,0,0-5.327-3.912,5.474,5.474,0,0,0-4.583,6.242,6.48,6.48,0,0,0,7.386,5.422,7.74,7.74,0,0,0,6.471-8.813,9.3,9.3,0,0,0-10.6-7.783c-3.532.541-6.24,2.124-7.827,4.576-1.9,2.929-2.157,6.972-.767,12.015A1.465,1.465,0,0,0,297.33,399.382Z" transform="translate(-295.04 -381.608)" fill="#d0b659"/>
      </g>
    </g>
    <path id="Path_496" data-name="Path 496" d="M366.752,455.568s-19.822-6.3-33.232-13.943c-13.148-7.5-26.111-18.42-26.111-18.42s4.961,5.126,4.536,12.261c-.456,7.643-7.285,10.443-7.285,10.443s17.365,2.772,21.01-4.283C329.2,447.706,345.868,455.568,366.752,455.568Z" transform="translate(-25.153 -107.844)" fill="#186634"/>
    <path id="Path_497" data-name="Path 497" d="M262.892,362.147c-.995-1.118-3.428-1.016-3.428-1.016s6.569-6.064,8.982-1.021c-2.413-5.043,6.432-6.352,6.432-6.352s-1.607,1.83-1.36,3.306,3.537,3.929,6.237,7.82c2.375,3.424,2.708,9.148-3.278,12.012s-10.234-.988-11.408-4.987C263.732,367.367,263.886,363.265,262.892,362.147Z" transform="translate(-12.626 -88.596)" fill="#186634"/>
    <path id="Path_498" data-name="Path 498" d="M264.384,353.36a2.807,2.807,0,0,0,5.065-2.423c-.669-1.4-5.9-5.835-5.9-5.835S263.715,351.961,264.384,353.36Z" transform="translate(-13.757 -86.196)" fill="#d0b659"/>
    <path id="Path_499" data-name="Path 499" d="M257.225,409.328c-.95-.035-1.973,1.128-1.973,1.128s.1-5.681,3.479-4.572c-3.376-1.109-.09-5.744-.09-5.744s.134,1.542.92,2.077,3.358.1,6.33.574a5.229,5.229,0,1,1-3.23,9.83C259.99,411.237,258.175,409.362,257.225,409.328Z" transform="translate(-11.459 -101.451)" fill="#186634"/>
    <path id="Path_500" data-name="Path 500" d="M252.549,407.4a1.784,1.784,0,0,0,1.113-3.389c-.936-.308-5.273.145-5.273.145S251.612,407.089,252.549,407.4Z" transform="translate(-9.556 -102.494)" fill="#d0b659"/>
    <path id="Path_501" data-name="Path 501" d="M294.751,368.162c-.273-.669-1.4-1.015-1.4-1.015s3.97-1.706,4.257.981c-.287-2.687,3.955-1.858,3.955-1.858s-1.027.575-1.152,1.287.979,2.361,1.583,4.569a3.977,3.977,0,1,1-7.825.836C294.292,370.676,295.024,368.832,294.751,368.162Z" transform="translate(-22.019 -92.03)" fill="#186634"/>
    <path id="Path_502" data-name="Path 502" d="M296.936,363.492a1.357,1.357,0,0,0,2.7-.288,20.846,20.846,0,0,0-1.751-3.611A20.871,20.871,0,0,0,296.936,363.492Z" transform="translate(-23.011 -90.213)" fill="#d0b659"/>
    <path id="Path_503" data-name="Path 503" d="M361.561,441.167s-8.275-2.138-22.944-10.607A131.933,131.933,0,0,1,313.6,411.643s2.622,1.526,5.368-1.22,10.74,11.716,10.74,11.716,5.751-.88,8.543.733S361.561,441.167,361.561,441.167Z" transform="translate(-27.632 -104.206)" fill="#186634"/>
    <path id="Path_504" data-name="Path 504" d="M290.6,406.539a73.587,73.587,0,0,1-6.87-6.664,58.894,58.894,0,0,1-5.9-7.773s-2.909,3.884-1.933,7.238,5.472,3.539,5.472,3.539c-1.321,2.685-2.742,9.163-3.143,14.188,0,0,1.709-5.645,5.462-8.385C286.252,406.806,290.6,406.539,290.6,406.539Z" transform="translate(-17.126 -99.223)" fill="#186634"/>
    <path id="Path_505" data-name="Path 505" d="M473.483,501.717c-12.183,3.816-24.565,7.476-37.338,8.805a150.07,150.07,0,0,0,24.887-5.737c7.381-2.256,14.685-4.8,21.885-7.544L481.18,490.9q-3.837,1.324-7.7,2.573c-12.183,3.816-24.565,7.476-37.338,8.806a150.144,150.144,0,0,0,24.887-5.737c6.682-2.043,13.3-4.32,19.839-6.769q-.876-3.2-1.753-6.407-2.811.95-5.636,1.859c-12.183,3.816-24.565,7.476-37.338,8.806a150.218,150.218,0,0,0,24.887-5.737q8.977-2.745,17.792-6l-2.375-8.679a266.6,266.6,0,0,1-193.67,0q-1.145,4.185-2.291,8.371,3.239,1.2,6.5,2.336c12.055,4.109,24.3,8.065,37.014,9.71a150.721,150.721,0,0,1-25.076-5.127q-9.463-2.637-18.737-5.825l-1.746,6.379q4.25,1.6,8.544,3.112c12.055,4.109,24.3,8.066,37.014,9.71a150.56,150.56,0,0,1-25.076-5.127c-7.011-1.953-13.935-4.153-20.8-6.547l-1.731,6.325q5.253,2.028,10.59,3.888c12.055,4.109,24.3,8.065,37.014,9.709a150.645,150.645,0,0,1-25.076-5.126c-7.713-2.149-15.322-4.591-22.857-7.27q-.836,3.055-1.673,6.112a289.691,289.691,0,0,0,210.436,0q-.8-2.909-1.592-5.817Q478.381,500.138,473.483,501.717Z" transform="translate(-16.765 -121.815)" fill="#21201f"/>
    <path id="Path_506" data-name="Path 506" d="M282.779,473.609a266.6,266.6,0,0,0,193.67,0q4.188,15.316,8.383,30.628a289.691,289.691,0,0,1-210.436,0Q278.59,488.921,282.779,473.609Z" transform="translate(-16.765 -121.815)" fill="none"/>
    <g id="Group_1303" data-name="Group 1303" transform="translate(321.574 376.75)">
      <path id="Path_507" data-name="Path 507" d="M367.54,511.828l-.377,2.641,4.261.608-.351,2.456-4.26-.609-.409,2.865,4.819.687-.364,2.549-8-1.141,1.864-13.061,8,1.141-.364,2.549Z" transform="translate(-362.858 -508.326)" fill="#fff"/>
      <path id="Path_508" data-name="Path 508" d="M379.451,523.817a4.224,4.224,0,0,1-1.685-1.566,3.8,3.8,0,0,1-.5-2.279l3.4.34a1.661,1.661,0,0,0,.394,1.163,1.63,1.63,0,0,0,1.084.5,1.762,1.762,0,0,0,1.155-.215,1.1,1.1,0,0,0,.5-.866,1.084,1.084,0,0,0-.247-.837,2.643,2.643,0,0,0-.752-.6,12.92,12.92,0,0,0-1.309-.6,14.872,14.872,0,0,1-2-.993,3.846,3.846,0,0,1-1.268-1.3,3.247,3.247,0,0,1-.379-2.059,3.457,3.457,0,0,1,1.614-2.738,5.489,5.489,0,0,1,3.564-.692,5.549,5.549,0,0,1,3.393,1.387,3.735,3.735,0,0,1,1.133,3.031l-3.459-.345a1.361,1.361,0,0,0-.368-1.047,1.659,1.659,0,0,0-1.067-.476,1.387,1.387,0,0,0-.966.215,1.119,1.119,0,0,0-.444.853,1.1,1.1,0,0,0,.5,1.051,9.786,9.786,0,0,0,1.793.953,17.54,17.54,0,0,1,1.984,1.029,3.961,3.961,0,0,1,1.26,1.279,3.064,3.064,0,0,1,.387,1.983,3.791,3.791,0,0,1-.774,1.981,4.008,4.008,0,0,1-1.8,1.293,5.686,5.686,0,0,1-2.616.287A6.784,6.784,0,0,1,379.451,523.817Z" transform="translate(-366.848 -508.937)" fill="#fff"/>
      <path id="Path_509" data-name="Path 509" d="M403.8,512.726l-.142,2.57-3.491-.194-.589,10.6-3.209-.179.588-10.6-3.49-.194.143-2.571Z" transform="translate(-371.341 -509.25)" fill="#fff"/>
      <path id="Path_510" data-name="Path 510" d="M409.349,529.574a1.614,1.614,0,0,1-.507-1.243,1.662,1.662,0,0,1,.565-1.245,1.92,1.92,0,0,1,1.392-.475,1.9,1.9,0,0,1,1.35.539,1.659,1.659,0,0,1,.506,1.271,1.612,1.612,0,0,1-.564,1.218,1.919,1.919,0,0,1-1.374.466A1.942,1.942,0,0,1,409.349,529.574Z" transform="translate(-375.603 -513.256)" fill="#fff"/>
      <path id="Path_511" data-name="Path 511" d="M422.544,522.911q1.8-1.564,2.843-2.566a11.983,11.983,0,0,0,1.746-2.09,3.7,3.7,0,0,0,.684-2.1,1.841,1.841,0,0,0-.384-1.194,1.486,1.486,0,0,0-2.187.155,2.469,2.469,0,0,0-.369,1.522l-3.1.072a5.318,5.318,0,0,1,.623-2.684,3.986,3.986,0,0,1,1.673-1.618,5.393,5.393,0,0,1,2.346-.562,4.551,4.551,0,0,1,3.4,1.067,4.063,4.063,0,0,1,1.207,2.96,5.86,5.86,0,0,1-1.284,3.762,20.166,20.166,0,0,1-3.415,3.436l5.073-.119.061,2.612-9.431.221-.056-2.386Q422.6,522.873,422.544,522.911Z" transform="translate(-379.189 -509.162)" fill="#fff"/>
      <path id="Path_512" data-name="Path 512" d="M437.819,513.285a5.3,5.3,0,0,1,8.044-.55,11.083,11.083,0,0,1,.7,10.2,5.3,5.3,0,0,1-8.044.55,11.077,11.077,0,0,1-.7-10.2Zm5.876,1.775a1.94,1.94,0,0,0-3.412.233,8.1,8.1,0,0,0-.213,2.943,12.23,12.23,0,0,0,.294,2.1,2.7,2.7,0,0,0,.7,1.309,2.055,2.055,0,0,0,2.719-.186,2.716,2.716,0,0,0,.518-1.391,12.445,12.445,0,0,0,.005-2.119A8.129,8.129,0,0,0,443.695,515.059Z" transform="translate(-383.376 -508.966)" fill="#fff"/>
      <path id="Path_513" data-name="Path 513" d="M454.667,521.066q1.658-1.718,2.6-2.81a12.058,12.058,0,0,0,1.553-2.238,3.7,3.7,0,0,0,.493-2.155,1.837,1.837,0,0,0-.49-1.155,1.487,1.487,0,0,0-2.165.349,2.474,2.474,0,0,0-.231,1.55l-3.081.349a5.318,5.318,0,0,1,.382-2.729,3.98,3.98,0,0,1,1.521-1.762,5.407,5.407,0,0,1,2.286-.771,4.557,4.557,0,0,1,3.481.759,4.058,4.058,0,0,1,1.467,2.841,5.862,5.862,0,0,1-.943,3.861,20.232,20.232,0,0,1-3.094,3.728l5.042-.572.295,2.595-9.374,1.064-.27-2.371Q454.719,521.023,454.667,521.066Z" transform="translate(-387.931 -508.553)" fill="#fff"/>
      <path id="Path_514" data-name="Path 514" d="M467.312,511.855l-.439-2.955,5.149-.766,2.017,13.57-3.309.492-1.577-10.615Z" transform="translate(-391.688 -508.135)" fill="#fff"/>
    </g>
    <path id="Path_515" data-name="Path 515" d="M458.238,223.625c-.237.28-.473.56-.721.834,1.488,1.587,2.884,3.131,4.084,4.523a6.935,6.935,0,0,1,4.256,3.162,5.44,5.44,0,0,1,.311,4.388,4.774,4.774,0,0,1-2.056,2.411c-.153.223-.307.442-.455.653-.259.368-.5.708-.683,1.007a47.494,47.494,0,0,0-5.338,12.248c.018.176.048.339.074.507H460.4c-.007-.162-.024-.321-.024-.484a10.979,10.979,0,1,1,21.957,0c0,.163-.018.322-.025.484H508.78A85.72,85.72,0,0,0,517,223.625Z" transform="translate(-67.522 -52.526)" fill="#44844d"/>
    <g id="Group_1304" data-name="Group 1304" transform="translate(393.915 190.414)">
      <path id="Path_516" data-name="Path 516" d="M465.46,268.228a10.005,10.005,0,0,0,2.08,1.559l.11.064a13.854,13.854,0,0,1,.668-1.286c.177-.307.36-.613.546-.934q-.28-.172-.546-.363a9.7,9.7,0,0,1-.778-.619,10.38,10.38,0,0,1-2.08-2.552c-.034-.059-.068-.118-.1-.177a14.679,14.679,0,0,1-1.66-5.123,9.9,9.9,0,0,0-.759,3.811q0,.459.041.908a10.49,10.49,0,0,0,1.665,3.757A7.836,7.836,0,0,0,465.46,268.228Z" transform="translate(-462.94 -252.688)" fill="#7f451d"/>
      <path id="Path_517" data-name="Path 517" d="M465.932,262.109a9.324,9.324,0,0,0,1.971,2.447q.372.329.778.62.324.233.668.445c.287-.486.588-.938.9-1.383.325-.468.661-.928,1-1.413a18.679,18.679,0,0,1-1-1.666,27.656,27.656,0,0,1-1.565-3.459q-.1-.282-.2-.563a18.512,18.512,0,0,1-.577-2.034,8.224,8.224,0,0,1-.22-2.416,9.91,9.91,0,0,0-1.474,1.214c-.132.132-.261.269-.386.408a9.943,9.943,0,0,0-1.574,2.373,14.879,14.879,0,0,0,1.574,5.228C465.859,261.976,465.895,262.043,465.932,262.109Z" transform="translate(-463.303 -250.995)" fill="#7f451d"/>
      <path id="Path_518" data-name="Path 518" d="M467.727,272.728l-.03-.017a10.01,10.01,0,0,1-2.08-1.571,9.271,9.271,0,0,1-1.008-1.18,9.941,9.941,0,0,1-1.1-1.974,9.912,9.912,0,0,0,2.11,3.775q.188.21.386.408a9.943,9.943,0,0,0,1.457,1.2q.115-.289.237-.575Z" transform="translate(-463.097 -255.235)" fill="#7f451d"/>
      <path id="Path_519" data-name="Path 519" d="M470.082,253.706a13.049,13.049,0,0,1,1.565-.9,12.635,12.635,0,0,1,5.129-1.3,8.572,8.572,0,0,1,3.684.675,9.312,9.312,0,0,0-3.684-1.618,10.757,10.757,0,0,0-2.152-.213,9.886,9.886,0,0,0-4.542,1.1q-.335.173-.656.371l-.081.061a7.082,7.082,0,0,0,.139,2.259Q469.772,253.914,470.082,253.706Z" transform="translate(-464.704 -250.346)" fill="#7f451d"/>
      <path id="Path_520" data-name="Path 520" d="M476.865,252.321a12.013,12.013,0,0,0-5.129,1.3,12.475,12.475,0,0,0-1.565.927c-.171.119-.338.241-.5.367a.14.14,0,0,1-.047.022,18.091,18.091,0,0,0,.546,1.941l.028.082c.135.4.284.794.442,1.188.345-.129.711-.253,1.1-.37a24.284,24.284,0,0,1,5.129-.952,21.67,21.67,0,0,1,3.91.039q.617.065,1.223.172a14.276,14.276,0,0,1,2.107.535A9.219,9.219,0,0,0,482,254.078q-.132-.141-.27-.279c-.069-.069-.139-.136-.21-.2a7.4,7.4,0,0,0-.743-.427A8.425,8.425,0,0,0,476.865,252.321Z" transform="translate(-464.793 -250.893)" fill="#7f451d"/>
      <path id="Path_521" data-name="Path 521" d="M483.236,266.955q-.426.041-.857.071c-.7.048-1.41.074-2.128.082-.248,0-.5,0-.745,0a22.5,22.5,0,0,1-1.037,3.091,12.435,12.435,0,0,1-3.058,4.576,9.3,9.3,0,0,0,3.058-.212,9.96,9.96,0,0,0,2.2-.8,11.605,11.605,0,0,0,1.711-2.557A8.435,8.435,0,0,0,483.236,266.955Z" transform="translate(-466.397 -254.95)" fill="#7f451d"/>
      <path id="Path_522" data-name="Path 522" d="M490.151,262.243c0,.224-.011.448-.024.672q-.027.481-.084.958-.065.545-.173,1.084l-.022.108v.007c.007.04.014.079.021.119a6.78,6.78,0,0,1,.082.749q.05-.2.091-.408a10.019,10.019,0,0,0,.108-3.288Z" transform="translate(-470.398 -253.644)" fill="#7f451d"/>
      <path id="Path_523" data-name="Path 523" d="M481.2,259.118a22.345,22.345,0,0,0-3.91-.123,21.938,21.938,0,0,0-5.129.876q-.518.158-1,.34c.31.754.653,1.491,1,2.172a19.74,19.74,0,0,0,1.182,2.013c1.334.117,2.653.2,3.947.239q.9.025,1.78.017c.7-.008,1.414-.046,2.13-.11q.613-.054,1.223-.133c.665-.085,1.324-.191,1.967-.312a15.6,15.6,0,0,0,.3-2.308,12.077,12.077,0,0,0,0-1.491c-.009-.141-.022-.278-.039-.411a16.252,16.252,0,0,0-2.228-.58Q481.818,259.193,481.2,259.118Z" transform="translate(-465.217 -252.734)" fill="#7f451d"/>
      <path id="Path_524" data-name="Path 524" d="M485.942,266.789l-.125.013a8.97,8.97,0,0,1-1.1,5.115,9.705,9.705,0,0,1-.864,1.281,8.732,8.732,0,0,0,.864-.583,9.307,9.307,0,0,0,1.223-1.121,9.923,9.923,0,0,0,2.047-3.459,7.085,7.085,0,0,0-.005-1.546Q486.981,266.678,485.942,266.789Z" transform="translate(-468.737 -254.821)" fill="#7f451d"/>
      <path id="Path_525" data-name="Path 525" d="M476.764,269.476a20.859,20.859,0,0,0,.785-2.406q-.391,0-.785-.015c-1.278-.035-2.575-.119-3.886-.232-.427.6-.844,1.212-1.243,1.832q-.408.632-.787,1.283-.41.7-.778,1.436c-.282.564-.543,1.141-.778,1.736l-.03.077.03.02q.385.246.778.452a9.015,9.015,0,0,0,1.565.645,9.365,9.365,0,0,0,1.516.326A12.384,12.384,0,0,0,476.764,269.476Z" transform="translate(-464.692 -254.913)" fill="#7f451d"/>
    </g>
    <g id="Group_1308" data-name="Group 1308" transform="translate(285.666 213.337)">
      <path id="Path_526" data-name="Path 526" d="M314.724,298.3c.09.191,31.883,0,31.883,0s2.82-4.689,1.41-6.293-3.666,1.429-3.666,1.429-.141-5.288-.705-4.443-1.269-4.446-2.256-2.293-1.409,4.758-2.256,3.243-.278-6.6-1.41-5.744-.83,4.988-2.115,2.961-3.525-6.382-6.627-4.742-3.931,7.282-4.935,5.188-3.666-5.945-3.525-2.984-3.749.187-3.144,2.984-2.248,1.313-2.654,2.337S311.464,291.393,314.724,298.3Z" transform="translate(-313.181 -282.06)" fill="#21201f"/>
      <g id="Group_1307" data-name="Group 1307" transform="translate(0 0)">
        <path id="Path_527" data-name="Path 527" d="M314.724,298.3c.09.191,31.883,0,31.883,0s2.82-4.689,1.41-6.293-3.666,1.429-3.666,1.429-.141-5.288-.705-4.443-1.269-4.446-2.256-2.293-1.409,4.758-2.256,3.243-.278-6.6-1.41-5.744-.83,4.988-2.115,2.961-3.525-6.382-6.627-4.742-3.931,7.282-4.935,5.188-3.666-5.945-3.525-2.984-3.749.187-3.144,2.984-2.248,1.313-2.654,2.337S311.464,291.393,314.724,298.3Z" transform="translate(-313.181 -282.06)" fill="#21201f"/>
        <g id="Group_1306" data-name="Group 1306" clip-path="url(#clip-path)">
          <g id="Group_1305" data-name="Group 1305" transform="translate(14.566 -40.416)">
            <line id="Line_9" data-name="Line 9" x1="21.422" y1="79.136" transform="translate(2.8 0.797)" fill="#21201f"/>
            <line id="Line_10" data-name="Line 10" x1="21.422" y1="79.137" transform="translate(7.761)" fill="#21201f"/>
            <line id="Line_11" data-name="Line 11" x1="21.422" y1="79.136" transform="translate(0 9.265)" fill="#21201f"/>
          </g>
        </g>
      </g>
    </g>
    <path id="Path_529" data-name="Path 529" d="M443.335,157.778l-.006,0c.322-2.048-.386-5.092-1.55-6.17-2.549-2.36-10.054-3.047-12.242-3.793-.819-.28-1.6-.53-2.341-.743-.538-.243-1.36-.453-1.577-.887a3.26,3.26,0,0,1,.373-1.816,6.133,6.133,0,0,0-.832.32,5.305,5.305,0,0,0-1.066-2.492,2.02,2.02,0,0,0-2.516-.487,2.244,2.244,0,0,0-.484,2.655,5.474,5.474,0,0,0,.469.9,6.142,6.142,0,0,1-.661.173l-.6-.909q-.177.583-.354,1.166l-1.236-1.646a3.684,3.684,0,0,1-.373,1.982l-.134-.463a5.892,5.892,0,0,0-1.343-2.688,2.176,2.176,0,0,0-2.758-.353,2.473,2.473,0,0,0-.335,2.934,11.151,11.151,0,0,0,1.923,2.566,3.76,3.76,0,0,1-2.721-.561l.855,1.431a6.362,6.362,0,0,1-2.151-.048,2.179,2.179,0,0,0,1.772.888,17.791,17.791,0,0,1-3.631,1.321,12.327,12.327,0,0,0,4.13-.189,7.526,7.526,0,0,0-.812,1.8,6.884,6.884,0,0,0,.248,4.529,15.266,15.266,0,0,0,.02,2.135,42.216,42.216,0,0,0,.96,6.476,41.367,41.367,0,0,1,1.243,6.163,8.423,8.423,0,0,1-1.548,5.946,4.993,4.993,0,0,1-2.628,1.524c-9.683-.933-12.5-10.669-14.1-12.987a46.576,46.576,0,0,0-5.128-6.445c-.023-.027-.041-.053-.066-.08l1.346.725a23.576,23.576,0,0,0-6.149-5.4c-2.461-1.417-5.717-1.195-8.344-.083a10.975,10.975,0,0,0-5.624,5.446,5.909,5.909,0,0,1,.489-.391c-.8,1.034-1.55,2.12-2.341,3.145-2.776,3.6-5.838,7.264-8.714,10.757-2.674,2.023-5.267,4.041-6.824,7.147-.132.265-.254.537-.376.809-1.91,1.878-3.066,4.51-4.109,7.031-1.086,2.625-2.171,5.266-3.03,7.969a3.448,3.448,0,0,0-1.562.706,8.137,8.137,0,0,0-3.35,6.012,10.514,10.514,0,0,1,1.549-1.577,7.4,7.4,0,0,0-1.01,5.088,7.222,7.222,0,0,1,1.741-2.4q-.015.794-.029,1.587a7.557,7.557,0,0,0,.927-1.15,7.13,7.13,0,0,1,1.136-.85,5.269,5.269,0,0,0,1.845-2.756c.413-1.376.5-3.3-.154-4.187.892-2.53,1.711-5.089,2.821-7.529a28.943,28.943,0,0,1,1.837-3.475c-1.172,2.985-.247,10.711-.007,13.9s.215,6.659-1.643,9.27c-.567.8-1.284,1.479-1.826,2.291A8.915,8.915,0,0,0,349.557,218a28.1,28.1,0,0,0,1.64,5.984c1.732,4.929,3.352,9.957,3.783,15.163a11.361,11.361,0,0,0,.385,2.569v.007a3.146,3.146,0,0,0,1.115,2.592l-.034-.014a2.1,2.1,0,0,0,.226.154c.184.108.37.208.559.3a6.035,6.035,0,0,0,1.179.428,5.2,5.2,0,0,0,.622.112q1.073.126,2.15.2,2.154.157,4.317.124,1.08-.016,2.158-.08c.063,0,.129-.009.194-.02a.754.754,0,0,0,.348-.133.373.373,0,0,0,.11-.141.662.662,0,0,0-.145-.606,4.641,4.641,0,0,0-.445-.557c-.056-.061-.12-.113-.179-.17a4.513,4.513,0,0,0-.343-.312c-.078-.063-.162-.116-.244-.173-.113-.079-.224-.157-.343-.226-.093-.053-.189-.1-.285-.146-.077-.038-.151-.085-.231-.118.012.009.022.02.035.03-.095-.041-.185-.093-.282-.127.1.016.2.038.309.059l.213.044.266.06.357.08.208.045c.084.017.167.031.251.046.066.012.132.025.2.034.083.012.164.018.246.026.061.005.124.014.185.016.084,0,.163,0,.244-.005.055,0,.111,0,.164-.007a1.9,1.9,0,0,0,.25-.053c.042-.012.087-.016.128-.03a1.367,1.367,0,0,0,.34-.172.356.356,0,0,0,.053-.163.379.379,0,0,0-.007-.056.4.4,0,0,0-.022-.112.731.731,0,0,0-.038-.069.747.747,0,0,0-.066-.1c-.02-.025-.045-.05-.069-.075s-.063-.066-.1-.1-.064-.053-.1-.079-.085-.065-.132-.1-.082-.053-.125-.081-.1-.064-.158-.1l-.147-.082-.183-.1-.164-.081-.071-.034.006,0a31.407,31.407,0,0,0-3.819-1.366c-1.463-.445-3.9-1.3-4.661-3.643,0-.012-.009-.02-.014-.033-.1-.638-.194-1.277-.306-1.913a83.43,83.43,0,0,0-2.307-9.645c-.571-1.883-1.176-4.054-.106-5.705,1.1-1.689,3.379-1.989,5.282-2.646,3.123-1.079,5.543-3.389,7.6-6.039a5.262,5.262,0,0,1-1.242,4.117,6.6,6.6,0,0,0-1.247,1.481c-.524,1.149.3,2.4,1.059,3.444a71.3,71.3,0,0,1,9.466,17.771c.1.271.2.544.3.817-.036.946.138,2.335.1,2.934a2.763,2.763,0,0,0,.725,2.147c.017.017.036.03.054.046h-.006c.021.019.045.034.066.051a2,2,0,0,0,.163.129c.025.017.051.032.077.048.061.039.123.077.188.111.024.012.049.022.073.034.069.033.137.065.209.093l.069.025c.074.027.149.053.225.077l.067.017c.079.022.158.043.238.061l.067.014c.081.017.163.034.244.048l.061.009c.084.014.168.027.252.039.1.014.208.027.312.039q1.072.126,2.15.2,2.154.157,4.317.124,1.081-.017,2.159-.081c.251-.015.55-.064.651-.293a.66.66,0,0,0-.145-.606,4.683,4.683,0,0,0-.44-.552c-.055-.059-.117-.111-.175-.168-.111-.108-.222-.215-.343-.312-.076-.061-.157-.114-.236-.17-.113-.08-.226-.158-.346-.228-.089-.052-.181-.1-.273-.143-.069-.035-.134-.077-.205-.108.013.009.024.022.037.032-.112-.051-.22-.111-.337-.152.1,0,.214,0,.322,0,.072,0,.143,0,.215,0l.269.012.214.011.3.021.359.025.237.016c.08.005.154.007.23.01l.191.007c.076,0,.143,0,.213-.005.051,0,.1,0,.152,0a1.822,1.822,0,0,0,.2-.03c.033-.006.072-.009.1-.017a.638.638,0,0,0,.215-.1.324.324,0,0,0,.1-.156.291.291,0,0,0,0-.061.317.317,0,0,0-.006-.116.568.568,0,0,0-.041-.077.707.707,0,0,0-.064-.119c-.021-.028-.053-.059-.079-.087s-.068-.08-.113-.123-.075-.062-.112-.093-.1-.085-.155-.128c-.042-.032-.092-.064-.138-.1-.064-.045-.124-.089-.2-.134-.049-.032-.106-.064-.158-.1-.076-.046-.15-.092-.231-.138-.056-.032-.116-.064-.174-.1-.085-.047-.169-.093-.259-.14l-.02-.011,0,0a24.7,24.7,0,0,0-3.767-1.531,12.288,12.288,0,0,1-2.534-1.046q-2.835-6.5-6.161-12.835c-1.165-2.21-2.4-4.67-1.547-6.984a12.629,12.629,0,0,1,2.194-3.2c2.24-2.826,4.578-3.8,6.488-7.257q2.191.115,4.613.119a114.849,114.849,0,0,0,16.772-1.2c-.147,2.257-.255,4.512-.226,6.7a6.667,6.667,0,0,0-.348,6.144,10.842,10.842,0,0,0-.522,2.475q-.618,5.4-1.237,10.795c-.192,1.681-.382,3.369-.426,5.058l-.742,1.542a8.171,8.171,0,0,0-.806,2.187c-.01.063-.017.126-.023.19v-.008c0,.009,0,.018,0,.027a3.422,3.422,0,0,0-.015.479c0,.025,0,.048,0,.072a2.932,2.932,0,0,0,.064.471c.005.022.012.044.017.066a2.479,2.479,0,0,0,.157.45c.007.015.015.029.022.043a2.167,2.167,0,0,0,.267.419v0a3.97,3.97,0,0,0,2.258,1.085,49.114,49.114,0,0,0,8.55,1.163,1.938,1.938,0,0,0,.194,0,.554.554,0,0,0,.485-.223.661.661,0,0,0-.079-.617l0,0-.015-.028h0a4.724,4.724,0,0,0-2.095-2.007c.409.111.935.234,1.451.335h0l.038.007.246.046.1.017.19.032.1.016.183.027.085.012c.085.011.166.021.244.029h.009c.073.007.141.012.206.016l.06,0c.045,0,.087,0,.127,0h.057c.037,0,.069,0,.1-.008l.04-.005a.339.339,0,0,0,.1-.029l0,0a.319.319,0,0,0,.073-.152.325.325,0,0,0,0-.065.428.428,0,0,0-.01-.119.824.824,0,0,0-.033-.087.869.869,0,0,0-.057-.121c-.019-.033-.042-.067-.065-.1s-.027-.046-.045-.069h-.007c-.774-1.026-3.431-2.573-5.019-3.248a11.37,11.37,0,0,1-3.31-2.029,52.277,52.277,0,0,1,2.658-13.48,39.043,39.043,0,0,0,1.337-3.731,4.415,4.415,0,0,0,1.707-2.374,5.684,5.684,0,0,0-.446-3.818v0c.439-1.329.928-2.933,1.427-4.68a12.922,12.922,0,0,0,3.245-3.183,9.7,9.7,0,0,1-1.322,3.637,15.105,15.105,0,0,0,1.882-1.842q-.05.446-.1.892a19.289,19.289,0,0,0,1.884-1.694c2.586,1.857,5.205,3.758,7.86,5.36a7.262,7.262,0,0,0,.846,1.289c-.1.257-.194.515-.278.768q-1.725,5.158-3.449,10.316c-.242.724-.483,1.449-.711,2.179l0,0a19.967,19.967,0,0,1-3.272,3.656c-.606.49-1.268,1-1.293,1.781a2.671,2.671,0,0,0,.3,1.254,7.159,7.159,0,0,0,.688,1.127,49.1,49.1,0,0,0,5.6,6.565c.179.176.416.366.654.287a.61.61,0,0,0,.336-.455.428.428,0,0,1-.052-.008c.013-.04.026-.079.036-.119a4.725,4.725,0,0,0-.22-2.927c.382.594.97,2.346,1.994,2.248a.793.793,0,0,0,.2-.566l-.005,0c.249-1.187-.45-3.795-1.25-5.495a11.289,11.289,0,0,1-1.151-4.019c0-.027-.007-.055-.01-.083a48.651,48.651,0,0,1,5.514-12.726c.33-.538.837-1.211,1.314-1.924a3.693,3.693,0,0,0,1.792-1.968,4.32,4.32,0,0,0-.26-3.5,5.868,5.868,0,0,0-3.884-2.686c-1.366-1.6-3.1-3.513-4.98-5.495a31.828,31.828,0,0,0,2.974-3.59q-.024.763-.049,1.526c2.181-2.121,3.083-5.223,3.563-8.226a36.577,36.577,0,0,0-1.2-16.976c0,.019,0,.035.005.054a46.462,46.462,0,0,0-2.909-8.393,24.206,24.206,0,0,1-1.671-4.329,5.523,5.523,0,0,1-.1-.6c-.006-.047-.012-.094-.016-.141-.019-.194-.032-.389-.035-.583a14.344,14.344,0,0,1,3.015-1.208,10.7,10.7,0,0,1,6.7.2c.614.27,1.188.631,1.818.859,1.88.681,5.081.523,6.272-1.084a.4.4,0,0,0,.052-.022c.072-.052.147-.107.291-.565.036-.116.088-.356.127-.55.012-.055.023-.109.033-.166S443.335,157.778,443.335,157.778Zm-29.822,47.649a17.982,17.982,0,0,1-.711,2.623Q413.159,206.772,413.513,205.427Z" transform="translate(-35.933 -29.749)" fill="#21201f"/>
    <path id="Path_530" data-name="Path 530" d="M482.358,266.678a10.966,10.966,0,0,1-21.615,0h-2.527a12.724,12.724,0,0,0,.654,1.66c.682,1.449,1.629,4.317,1.357,6.03a2.068,2.068,0,0,1-.044.357,84.809,84.809,0,0,1,8.139,3.372q3.069,1.457,6,3.149a86.509,86.509,0,0,1,14.656,10.646,86.607,86.607,0,0,0,19.307-25.213Z" transform="translate(-67.715 -64.459)" fill="#5d9362"/>
    <g id="Group_1309" data-name="Group 1309" transform="translate(446.515 101.014)">
      <path id="Path_531" data-name="Path 531" d="M541.822,131.659a.12.12,0,0,1-.031-.064c-.009-.07-.016-.141-.022-.211-.531-2.152-3.467-3.942-5.249-2.006a3.168,3.168,0,0,0-.217,3.422,2.959,2.959,0,0,0,2.941,1.638.094.094,0,0,1,.093.043.831.831,0,0,1,.369-.271,1.164,1.164,0,0,1,.493-.069c-.027-.025-.055-.048-.082-.074-.308-.309-.679-.8-.408-1.24a1.027,1.027,0,0,1,1.316-.207,1.9,1.9,0,0,1,.543.39,1.593,1.593,0,0,1,.013-.94,1.027,1.027,0,0,1,.247-.384Z" transform="translate(-535.765 -127.187)" fill="#d0b659"/>
      <path id="Path_532" data-name="Path 532" d="M545.694,135.439a.315.315,0,0,1,.243.058,1.435,1.435,0,0,0,.4-.5c.033-.068.15-.02.124.051a1.133,1.133,0,0,1-.44.554.27.27,0,0,1-.008.211l.027-.007a.066.066,0,0,1,.012-.007c.344-.133.688-.343,1.043-.512a2.673,2.673,0,0,0,.4-.417c.28-.365.374-.857-.077-1.131-.244-.148-1.1-.207-1.19.233a.1.1,0,0,1-.126.069A1.98,1.98,0,0,1,545.694,135.439Z" transform="translate(-538.477 -128.595)" fill="#287039"/>
      <path id="Path_533" data-name="Path 533" d="M543.64,135.751a.085.085,0,0,1-.048-.036,4.813,4.813,0,0,1-.369-.692,3.081,3.081,0,0,0-.258-.291c-.311-.3-1.1-.781-1.507-.314-.357.407.136.917.428,1.162a2.235,2.235,0,0,0,.359.244c.185.061.366.139.54.213a2.49,2.49,0,0,0,.361.064.392.392,0,0,1,.118-.134.069.069,0,0,1-.037-.025,3.975,3.975,0,0,0-.7-.7c-.057-.048.016-.127.076-.1a1.739,1.739,0,0,1,.726.734.061.061,0,0,1,.007.043.492.492,0,0,1,.237-.043.361.361,0,0,1,.067.011A.417.417,0,0,1,543.64,135.751Z" transform="translate(-537.268 -128.76)" fill="#287039"/>
      <path id="Path_534" data-name="Path 534" d="M544.3,136.718a.294.294,0,0,0-.284.187.2.2,0,0,0,.107.256c.108.034.154-.045.239-.082a.089.089,0,0,1,.023-.005.515.515,0,0,1,.158-.237.42.42,0,0,1-.087-.089A.4.4,0,0,0,544.3,136.718Z" transform="translate(-538.009 -129.451)" fill="#d0b659"/>
      <path id="Path_535" data-name="Path 535" d="M545.057,137.557a.334.334,0,0,0,.345-.313.427.427,0,0,0-.33-.393.041.041,0,0,1-.03.02C544.656,136.94,544.606,137.572,545.057,137.557Z" transform="translate(-538.211 -129.488)" fill="#fff"/>
      <path id="Path_536" data-name="Path 536" d="M545.146,138.46c.194-.03.128-.288.1-.442a.606.606,0,0,1-.1.02.523.523,0,0,1-.213-.025C544.922,138.174,544.922,138.495,545.146,138.46Z" transform="translate(-538.265 -129.81)" fill="#d0b659"/>
      <path id="Path_537" data-name="Path 537" d="M545.755,137.581a.471.471,0,0,1-.215.262.492.492,0,0,1,.027.06c.128.1.312.221.442.1.093-.089.023-.226-.054-.3A1.008,1.008,0,0,0,545.755,137.581Z" transform="translate(-538.434 -129.69)" fill="#d0b659"/>
      <path id="Path_538" data-name="Path 538" d="M546.215,137.08a.466.466,0,0,0-.482-.1h0a.542.542,0,0,1,.1.245.454.454,0,0,1,0,.053l.037.01a.043.043,0,0,1,.02-.009A.426.426,0,0,0,546.215,137.08Z" transform="translate(-538.487 -129.517)" fill="#d0b659"/>
      <path id="Path_539" data-name="Path 539" d="M544.4,137.516a.341.341,0,0,1-.083.029c-.16.052-.264.3-.116.422s.316-.02.38-.154A.429.429,0,0,1,544.4,137.516Z" transform="translate(-538.042 -129.672)" fill="#d0b659"/>
      <path id="Path_540" data-name="Path 540" d="M544.86,136.58a.041.041,0,0,1,.013.012.373.373,0,0,1,.069-.02.041.041,0,0,1,.034-.04.452.452,0,0,1,.054,0,.027.027,0,0,1,.014-.032.212.212,0,1,0-.3-.286.055.055,0,0,1-.023.052A.292.292,0,0,0,544.86,136.58Z" transform="translate(-538.206 -129.281)" fill="#d0b659"/>
      <path id="Path_541" data-name="Path 541" d="M545.271,136.593a.478.478,0,0,1,.251.127.03.03,0,0,1,.036-.034.151.151,0,0,0,.077-.011l.022-.009a.22.22,0,0,0,.123-.245.059.059,0,0,1-.074-.073.214.214,0,0,0-.273.13.055.055,0,0,1-.08.033A.309.309,0,0,1,545.271,136.593Z" transform="translate(-538.36 -129.344)" fill="#d0b659"/>
      <path id="Path_542" data-name="Path 542" d="M547.217,136.148a2.8,2.8,0,0,1-.347.178c-.2.1-.384.2-.548.274a.573.573,0,0,1,.147.133.066.066,0,0,1,0,.068c-.007.012-.016.021-.023.032h0a3.63,3.63,0,0,1,.8-.071.048.048,0,0,1,.012.094,3.66,3.66,0,0,1-.79.118.071.071,0,0,1-.069-.076.475.475,0,0,1-.265.142c.017.009.031.022.048.032a.1.1,0,0,1,.111-.04,11.2,11.2,0,0,1,1.631.376,1.32,1.32,0,0,0,.693-.138.722.722,0,0,0,.255-1.159C548.434,135.655,547.8,135.862,547.217,136.148Z" transform="translate(-538.598 -129.209)" fill="#287039"/>
      <path id="Path_543" data-name="Path 543" d="M547.777,138.172a3.693,3.693,0,0,1-.818-.217c-.2-.043-.393-.085-.588-.13a.365.365,0,0,1,.02.2,1.53,1.53,0,0,1,.341.249,3.973,3.973,0,0,0,.389.249c.043.025.014.1-.035.082a2.338,2.338,0,0,1-.424-.212.986.986,0,0,1-.316-.264.239.239,0,0,1-.022.033.3.3,0,0,1-.135.079,3.486,3.486,0,0,1,.372.5c.562.7,1.324,1.589,2.012.876C549.181,138.986,548.329,138.369,547.777,138.172Z" transform="translate(-538.615 -129.758)" fill="#287039"/>
      <path id="Path_544" data-name="Path 544" d="M545.643,138.384l0-.011a.414.414,0,0,1-.06-.011.479.479,0,0,1-.164-.1c0,.013,0,.025,0,.038a11.526,11.526,0,0,1,.275,1.13.058.058,0,0,1-.112.03c-.089-.292-.158-.592-.22-.893a.274.274,0,0,1-.228.132.291.291,0,0,1-.213-.08,1.651,1.651,0,0,1-.082.717,2.236,2.236,0,0,0,.061.609,1.853,1.853,0,0,0,.237.554.68.68,0,0,0,1.094.077C546.736,139.8,546.055,139,545.643,138.384Z" transform="translate(-538.239 -129.879)" fill="#287039"/>
      <path id="Path_545" data-name="Path 545" d="M544.118,138.571v0a.041.041,0,0,1,.013-.016.321.321,0,0,1-.022-.033.447.447,0,0,1-.042-.22.37.37,0,0,1-.056.033.062.062,0,0,1-.012.052,7.21,7.21,0,0,0-.552.837c-.033.055-.129.02-.106-.044a2.389,2.389,0,0,1,.513-.8.394.394,0,0,1-.257-.057,4.533,4.533,0,0,1-.659.318,1.8,1.8,0,0,0-.365.291c-.361.385-.548,1.152.067,1.414.912.387,1.27-1.189,1.446-1.737A.054.054,0,0,1,544.118,138.571Z" transform="translate(-537.52 -129.889)" fill="#287039"/>
      <path id="Path_546" data-name="Path 546" d="M543.052,137.676a.392.392,0,0,1,.042-.29,4.23,4.23,0,0,0-.875.063c-.106.019-.15-.145-.045-.161a4.292,4.292,0,0,1,.893-.046.359.359,0,0,1-.139-.282,2.507,2.507,0,0,1-.972-.284c-.679-.15-1.4-.146-1.223.707C540.963,138.518,542.381,138.008,543.052,137.676Z" transform="translate(-537.094 -129.419)" fill="#287039"/>
      <path id="Path_547" data-name="Path 547" d="M543.989,134.168a3.047,3.047,0,0,0,.168.481c.111.166.21.342.3.518a.355.355,0,0,1,.231-.11.293.293,0,0,1,.043,0,1.555,1.555,0,0,0-.138-.723.069.069,0,0,1,.119-.07,1.141,1.141,0,0,1,.15.822.3.3,0,0,1,.166.178c.486-.607.656-2.139-.241-2.374C543.992,132.678,543.855,133.625,543.989,134.168Z" transform="translate(-537.992 -128.381)" fill="#287039"/>
      <path id="Path_548" data-name="Path 548" d="M549.122,127.454a2.523,2.523,0,0,0-3.629-.038,4.34,4.34,0,0,0-1.143,3.6.768.768,0,0,1,.541-.082,1.072,1.072,0,0,1,.791.893c.132-.249.587-.366.831-.385a1.011,1.011,0,0,1,1.039.593.964.964,0,0,1-.111.891C549.173,131.828,550.65,129.279,549.122,127.454Z" transform="translate(-538.1 -126.664)" fill="#d0b659"/>
      <path id="Path_549" data-name="Path 549" d="M553.475,138.8a2.232,2.232,0,0,0,1.373-3.038,3.156,3.156,0,0,0-5.042-1.6c-.085.087-.173.169-.263.249-.04.042-.081.085-.12.13a.032.032,0,0,1-.043.006,3.7,3.7,0,0,1-.7.441,1.529,1.529,0,0,1,.377-.007,1.054,1.054,0,0,1,.955.8,1.08,1.08,0,0,1-.757,1.11,1.383,1.383,0,0,1-.218.059,1.679,1.679,0,0,1,.213.156,1.17,1.17,0,0,1,.414,1.083.1.1,0,0,1,.014,0C550.862,138.655,552.194,139.22,553.475,138.8Z" transform="translate(-539.305 -128.537)" fill="#d0b659"/>
      <path id="Path_550" data-name="Path 550" d="M544.6,144.356a2.776,2.776,0,0,0,3.1,1.42,2.844,2.844,0,0,0,2.124-2.576,3.311,3.311,0,0,0-1.542-2.867c-.006.007-.009.015-.016.022a1.087,1.087,0,0,1-1.3.22,1.82,1.82,0,0,1-.614-.489c.2.613.146,1.238-.559,1.516-.49.193-.894-.213-1.109-.619a1.769,1.769,0,0,1-.11-.261A4.253,4.253,0,0,0,544.6,144.356Z" transform="translate(-538.055 -130.385)" fill="#d0b659"/>
      <path id="Path_551" data-name="Path 551" d="M536.191,141.466c1.785,2.747,4.642.319,5.73-1.717-.334.444-.806.706-1.295.386a.989.989,0,0,1-.325-1.227,1.405,1.405,0,0,1,.351-.5,1.685,1.685,0,0,1-.5.006,1.156,1.156,0,0,1-1.028-.885.9.9,0,0,1,.047-.508,2.766,2.766,0,0,1-.609-.005A2.908,2.908,0,0,0,536.191,141.466Z" transform="translate(-535.71 -129.533)" fill="#d0b659"/>
    </g>
    <g id="Group_1310" data-name="Group 1310" transform="translate(263.248 101.014)">
      <path id="Path_552" data-name="Path 552" d="M295.508,131.659a.12.12,0,0,0,.031-.064c.009-.07.016-.141.022-.211.531-2.152,3.467-3.942,5.248-2.006a3.168,3.168,0,0,1,.218,3.422,2.959,2.959,0,0,1-2.941,1.638.093.093,0,0,0-.093.043.835.835,0,0,0-.369-.271,1.164,1.164,0,0,0-.493-.069c.027-.025.055-.048.081-.074.309-.309.679-.8.409-1.24a1.027,1.027,0,0,0-1.315-.207,1.894,1.894,0,0,0-.543.39,1.6,1.6,0,0,0-.013-.94,1.028,1.028,0,0,0-.246-.384Z" transform="translate(-285.864 -127.187)" fill="#d0b659"/>
      <path id="Path_553" data-name="Path 553" d="M293.126,135.439a.315.315,0,0,0-.243.058,1.434,1.434,0,0,1-.4-.5c-.033-.068-.15-.02-.124.051a1.136,1.136,0,0,0,.439.554.274.274,0,0,0,.009.211l-.027-.007a.075.075,0,0,0-.013-.007c-.344-.133-.687-.343-1.042-.512a2.639,2.639,0,0,1-.4-.417c-.281-.365-.374-.857.077-1.131.244-.148,1.1-.207,1.19.233a.1.1,0,0,0,.126.069A1.978,1.978,0,0,0,293.126,135.439Z" transform="translate(-284.641 -128.595)" fill="#287039"/>
      <path id="Path_554" data-name="Path 554" d="M295.074,135.751a.083.083,0,0,0,.047-.036,4.739,4.739,0,0,0,.369-.692,2.978,2.978,0,0,1,.258-.291c.311-.3,1.1-.781,1.506-.314.358.407-.135.917-.428,1.162a2.2,2.2,0,0,1-.359.244c-.185.061-.367.139-.541.213a2.463,2.463,0,0,1-.36.064.406.406,0,0,0-.118-.134.065.065,0,0,0,.036-.025,3.976,3.976,0,0,1,.7-.7c.057-.048-.016-.127-.076-.1a1.739,1.739,0,0,0-.726.734.058.058,0,0,0-.007.043.494.494,0,0,0-.238-.043.363.363,0,0,0-.066.011A.436.436,0,0,0,295.074,135.751Z" transform="translate(-285.743 -128.76)" fill="#287039"/>
      <path id="Path_555" data-name="Path 555" d="M295.093,136.718a.294.294,0,0,1,.284.187.2.2,0,0,1-.107.256c-.108.034-.154-.045-.239-.082a.1.1,0,0,0-.023-.005.52.52,0,0,0-.158-.237.42.42,0,0,0,.087-.089A.4.4,0,0,1,295.093,136.718Z" transform="translate(-285.682 -129.451)" fill="#d0b659"/>
      <path id="Path_556" data-name="Path 556" d="M294.288,137.557a.334.334,0,0,1-.345-.313.426.426,0,0,1,.33-.393.041.041,0,0,0,.029.02C294.689,136.94,294.739,137.572,294.288,137.557Z" transform="translate(-285.431 -129.488)" fill="#fff"/>
      <path id="Path_557" data-name="Path 557" d="M294.32,138.46c-.194-.03-.128-.288-.1-.442a.606.606,0,0,0,.1.02.518.518,0,0,0,.212-.025C294.543,138.174,294.544,138.495,294.32,138.46Z" transform="translate(-285.499 -129.81)" fill="#d0b659"/>
      <path id="Path_558" data-name="Path 558" d="M293.648,137.581a.471.471,0,0,0,.215.262.66.66,0,0,0-.028.06c-.127.1-.312.221-.442.1-.092-.089-.023-.226.055-.3A1.008,1.008,0,0,1,293.648,137.581Z" transform="translate(-285.267 -129.69)" fill="#d0b659"/>
      <path id="Path_559" data-name="Path 559" d="M293.2,137.08a.466.466,0,0,1,.482-.1h0a.525.525,0,0,0-.1.245.442.442,0,0,0,0,.053l-.037.01a.043.043,0,0,0-.02-.009A.426.426,0,0,1,293.2,137.08Z" transform="translate(-285.225 -129.517)" fill="#d0b659"/>
      <path id="Path_560" data-name="Path 560" d="M295.031,137.516a.343.343,0,0,0,.083.029c.16.052.264.3.116.422s-.316-.02-.379-.154A.429.429,0,0,0,295.031,137.516Z" transform="translate(-285.683 -129.672)" fill="#d0b659"/>
      <path id="Path_561" data-name="Path 561" d="M294.576,136.58a.054.054,0,0,0-.014.012.355.355,0,0,0-.069-.02.039.039,0,0,0-.033-.04.451.451,0,0,0-.055,0,.026.026,0,0,0-.014-.032.212.212,0,1,1,.3-.286.055.055,0,0,0,.023.052A.292.292,0,0,1,294.576,136.58Z" transform="translate(-285.528 -129.281)" fill="#d0b659"/>
      <path id="Path_562" data-name="Path 562" d="M294.13,136.593a.478.478,0,0,0-.251.127.03.03,0,0,0-.036-.034.155.155,0,0,1-.078-.011l-.022-.009a.22.22,0,0,1-.123-.245.059.059,0,0,0,.074-.073.214.214,0,0,1,.273.13.055.055,0,0,0,.08.033A.307.307,0,0,0,294.13,136.593Z" transform="translate(-285.34 -129.344)" fill="#d0b659"/>
      <path id="Path_563" data-name="Path 563" d="M291.256,136.148a2.809,2.809,0,0,0,.347.178c.2.1.384.2.548.274a.573.573,0,0,0-.147.133.065.065,0,0,0,0,.068c.007.012.016.021.023.032h0a3.631,3.631,0,0,0-.8-.071.048.048,0,0,0-.013.094,3.675,3.675,0,0,0,.791.118.071.071,0,0,0,.069-.076.471.471,0,0,0,.265.142c-.017.009-.031.022-.048.032a.106.106,0,0,0-.111-.04,11.2,11.2,0,0,0-1.63.376,1.321,1.321,0,0,1-.693-.138.722.722,0,0,1-.255-1.159C290.038,135.655,290.669,135.862,291.256,136.148Z" transform="translate(-284.173 -129.209)" fill="#287039"/>
      <path id="Path_564" data-name="Path 564" d="M290.828,138.172a3.7,3.7,0,0,0,.818-.217c.2-.043.393-.085.588-.13a.365.365,0,0,0-.02.2,1.514,1.514,0,0,0-.341.249,3.988,3.988,0,0,1-.389.249c-.043.025-.014.1.035.082a2.342,2.342,0,0,0,.424-.212.993.993,0,0,0,.316-.264.226.226,0,0,0,.021.033.31.31,0,0,0,.134.079,3.55,3.55,0,0,0-.371.5c-.562.7-1.324,1.589-2.012.876C289.425,138.986,290.277,138.369,290.828,138.172Z" transform="translate(-284.289 -129.758)" fill="#287039"/>
      <path id="Path_565" data-name="Path 565" d="M293.353,138.384l0-.011a.415.415,0,0,0,.06-.011.476.476,0,0,0,.163-.1c0,.013,0,.025,0,.038a11.337,11.337,0,0,0-.275,1.13.058.058,0,0,0,.112.03c.089-.292.158-.592.22-.893a.274.274,0,0,0,.228.132.291.291,0,0,0,.213-.08,1.651,1.651,0,0,0,.082.717,2.238,2.238,0,0,1-.061.609,1.856,1.856,0,0,1-.238.554.679.679,0,0,1-1.094.077C292.261,139.8,292.94,139,293.353,138.384Z" transform="translate(-285.056 -129.879)" fill="#287039"/>
      <path id="Path_566" data-name="Path 566" d="M294.756,138.571v0a.042.042,0,0,0-.013-.016.236.236,0,0,0,.022-.033.44.44,0,0,0,.043-.22.339.339,0,0,0,.056.033.059.059,0,0,0,.012.052,7.3,7.3,0,0,1,.552.837c.033.055.129.02.106-.044a2.4,2.4,0,0,0-.512-.8.394.394,0,0,0,.257-.057,4.533,4.533,0,0,0,.658.318,1.8,1.8,0,0,1,.365.291c.361.385.548,1.152-.067,1.414-.911.387-1.27-1.189-1.446-1.737A.054.054,0,0,0,294.756,138.571Z" transform="translate(-285.653 -129.889)" fill="#287039"/>
      <path id="Path_567" data-name="Path 567" d="M295.632,137.676a.392.392,0,0,0-.042-.29,4.23,4.23,0,0,1,.875.063c.106.019.15-.145.044-.161a4.285,4.285,0,0,0-.892-.046.359.359,0,0,0,.139-.282,2.5,2.5,0,0,0,.971-.284c.679-.15,1.4-.146,1.224.707C297.721,138.518,296.3,138.008,295.632,137.676Z" transform="translate(-285.888 -129.419)" fill="#287039"/>
      <path id="Path_568" data-name="Path 568" d="M295.041,134.168a3.054,3.054,0,0,1-.168.481c-.111.166-.21.342-.3.518a.355.355,0,0,0-.231-.11.292.292,0,0,0-.043,0,1.545,1.545,0,0,1,.138-.723.069.069,0,0,0-.119-.07,1.144,1.144,0,0,0-.149.822.3.3,0,0,0-.165.178c-.487-.607-.656-2.139.241-2.374C295.038,132.678,295.175,133.625,295.041,134.168Z" transform="translate(-285.336 -128.381)" fill="#287039"/>
      <path id="Path_569" data-name="Path 569" d="M288.4,127.454a2.523,2.523,0,0,1,3.629-.038,4.34,4.34,0,0,1,1.143,3.6.769.769,0,0,0-.541-.082,1.073,1.073,0,0,0-.792.893c-.132-.249-.586-.366-.831-.385a1.013,1.013,0,0,0-1.04.593.968.968,0,0,0,.111.891C288.347,131.828,286.87,129.279,288.4,127.454Z" transform="translate(-283.717 -126.664)" fill="#d0b659"/>
      <path id="Path_570" data-name="Path 570" d="M283.7,138.8a2.232,2.232,0,0,1-1.373-3.038,3.157,3.157,0,0,1,5.043-1.6c.085.087.173.169.262.249.04.042.082.085.121.13a.032.032,0,0,0,.043.006,3.675,3.675,0,0,0,.7.441,1.529,1.529,0,0,0-.377-.007,1.054,1.054,0,0,0-.955.8,1.08,1.08,0,0,0,.757,1.11,1.382,1.382,0,0,0,.218.059,1.681,1.681,0,0,0-.213.156,1.168,1.168,0,0,0-.414,1.083.1.1,0,0,0-.014,0C286.312,138.655,284.98,139.22,283.7,138.8Z" transform="translate(-282.167 -128.537)" fill="#d0b659"/>
      <path id="Path_571" data-name="Path 571" d="M292.835,144.356a2.776,2.776,0,0,1-3.1,1.42,2.844,2.844,0,0,1-2.124-2.576,3.311,3.311,0,0,1,1.543-2.867c.006.007.009.015.015.022a1.088,1.088,0,0,0,1.3.22,1.827,1.827,0,0,0,.614-.489c-.2.613-.146,1.238.559,1.516.49.193.894-.213,1.109-.619a1.769,1.769,0,0,0,.11-.261A4.253,4.253,0,0,1,292.835,144.356Z" transform="translate(-283.675 -130.385)" fill="#d0b659"/>
      <path id="Path_572" data-name="Path 572" d="M301.027,141.466c-1.785,2.747-4.642.319-5.73-1.717.334.444.806.706,1.295.386a.989.989,0,0,0,.325-1.227,1.414,1.414,0,0,0-.351-.5,1.685,1.685,0,0,0,.5.006,1.156,1.156,0,0,0,1.028-.885.908.908,0,0,0-.047-.508,2.767,2.767,0,0,0,.609-.005A2.908,2.908,0,0,1,301.027,141.466Z" transform="translate(-285.807 -129.533)" fill="#d0b659"/>
    </g>
    <g id="Group_1314" data-name="Group 1314" transform="translate(401.129 211.892)">
      <path id="Path_573" data-name="Path 573" d="M506.608,296.3c-.09.191-31.883,0-31.883,0s-2.82-4.689-1.41-6.293,3.666,1.429,3.666,1.429.141-5.288.7-4.442,1.269-4.446,2.257-2.294,1.409,4.758,2.256,3.243.278-6.6,1.409-5.744.831,4.988,2.115,2.961,3.525-6.382,6.628-4.742,3.931,7.282,4.935,5.188,3.666-5.945,3.525-2.984,3.749.187,3.144,2.984,2.248,1.313,2.654,2.337S509.867,289.393,506.608,296.3Z" transform="translate(-472.92 -280.06)" fill="#21201f"/>
      <g id="Group_1313" data-name="Group 1313" transform="translate(0 0)">
        <path id="Path_574" data-name="Path 574" d="M506.608,296.3c-.09.191-31.883,0-31.883,0s-2.82-4.689-1.41-6.293,3.666,1.429,3.666,1.429.141-5.288.7-4.442,1.269-4.446,2.257-2.294,1.409,4.758,2.256,3.243.278-6.6,1.409-5.744.831,4.988,2.115,2.961,3.525-6.382,6.628-4.742,3.931,7.282,4.935,5.188,3.666-5.945,3.525-2.984,3.749.187,3.144,2.984,2.248,1.313,2.654,2.337S509.867,289.393,506.608,296.3Z" transform="translate(-472.92 -280.06)" fill="#21201f"/>
        <g id="Group_1312" data-name="Group 1312" clip-path="url(#clip-path-2)">
          <g id="Group_1311" data-name="Group 1311" transform="translate(-8.517 -40.416)">
            <line id="Line_12" data-name="Line 12" y1="79.136" x2="21.422" transform="translate(4.961 0.797)" fill="#21201f"/>
            <line id="Line_13" data-name="Line 13" y1="79.137" x2="21.422" fill="#21201f"/>
            <line id="Line_14" data-name="Line 14" y1="79.136" x2="21.422" transform="translate(7.761 9.265)" fill="#21201f"/>
          </g>
        </g>
      </g>
    </g>
    <g id="Group_1318" data-name="Group 1318" transform="translate(346.979 218.188)">
      <g id="Group_1315" data-name="Group 1315" transform="translate(0 0)">
        <rect id="Rectangle_103" data-name="Rectangle 103" width="8.462" height="49.12" transform="translate(0.22 0.219)" fill="#186634"/>
        <path id="Path_576" data-name="Path 576" d="M406.906,338.33h-8.9V288.771h8.9Zm-8.462-.439h8.023V289.21h-8.023Z" transform="translate(-398.005 -288.771)" fill="#fff"/>
      </g>
      <g id="Group_1316" data-name="Group 1316" transform="translate(9.629 11.424)">
        <path id="Path_577" data-name="Path 577" d="M436.779,305.17v48.94H411.63v-8.46h16.688V311.284Z" transform="translate(-411.411 -304.741)" fill="#186634"/>
        <path id="Path_578" data-name="Path 578" d="M436.914,354.165H411.327v-8.9h16.687V311.007l8.9-6.431Zm-25.149-.439h24.71V305.435l-8.023,5.8V345.7H411.765Z" transform="translate(-411.327 -304.576)" fill="#fff"/>
      </g>
      <g id="Group_1317" data-name="Group 1317" transform="translate(0 0.708)">
        <path id="Path_579" data-name="Path 579" d="M438.554,297.032l-11.4,8.233-8.462,6.114-11.926,8.616-8.033,5.8-.429-.593v-9.536l8.462-6.112,11.926-8.616,8.462-6.114,6.441-4.653Z" transform="translate(-398.089 -289.868)" fill="#186634"/>
        <path id="Path_580" data-name="Path 580" d="M398.6,325.987l-.6-.828v-9.72l35.56-25.689,5.211,7.214Zm-.16-.97.26.359,39.461-28.51-4.7-6.5-35.022,25.3Z" transform="translate(-398.005 -289.75)" fill="#fff"/>
      </g>
    </g>
  </g>
</svg>
