<svg xmlns="http://www.w3.org/2000/svg" width="55" height="55" viewBox="0 0 55 55">
  <g id="Group_1360" data-name="Group 1360" transform="translate(-223 -945)">
    <path id="Path_581" data-name="Path 581" d="M27.5,0A27.665,27.665,0,0,1,40.473,3.246a27.506,27.506,0,0,1,6.454,43.718A27.5,27.5,0,1,1,27.5,0Z" transform="translate(223 945)" fill="#e5eee7"/>
    <path id="Icon_awesome-linkedin-in" data-name="Icon awesome-linkedin-in" d="M5.484,24.5H.4V8.143H5.484ZM2.942,5.912a2.956,2.956,0,1,1,2.942-2.97A2.966,2.966,0,0,1,2.942,5.912ZM24.495,24.5H19.426V16.538c0-1.9-.038-4.331-2.641-4.331-2.641,0-3.046,2.062-3.046,4.195v8.1H8.666V8.143h4.872v2.231h.071a5.337,5.337,0,0,1,4.806-2.641c5.141,0,6.086,3.385,6.086,7.782V24.5Z" transform="translate(238 960)" fill="#373535"/>
  </g>
</svg>
