<svg xmlns="http://www.w3.org/2000/svg" width="8.747" height="12.44" viewBox="0 0 8.747 12.44">
  <g id="Group_25" data-name="Group 25" transform="translate(0)">
    <path id="Path_34" data-name="Path 34" d="M80.373,0a4.374,4.374,0,0,0-3.72,6.673l3.472,5.594a.364.364,0,0,0,.31.172h0a.364.364,0,0,0,.31-.177L84.13,6.614A4.374,4.374,0,0,0,80.373,0ZM83.5,6.24l-3.076,5.135L77.272,6.289A3.647,3.647,0,1,1,83.5,6.24Z" transform="translate(-76)" fill="#fff"/>
    <path id="Path_35" data-name="Path 35" d="M168.187,90a2.187,2.187,0,1,0,2.187,2.187A2.189,2.189,0,0,0,168.187,90Zm0,3.649a1.463,1.463,0,1,1,1.46-1.463A1.464,1.464,0,0,1,168.187,93.649Z" transform="translate(-163.813 -87.813)" fill="#fff"/>
  </g>
</svg>
