<svg xmlns="http://www.w3.org/2000/svg" width="31.336" height="31.3" viewBox="0 0 31.336 31.3">
  <g id="player" transform="translate(0.152 -0.091)">
    <g id="Group_2" data-name="Group 2" transform="translate(-0.002 0.241)">
      <path id="Path_6" data-name="Path 6" d="M30.834,24.612a20.836,20.836,0,0,0-5.465-2.619c-.362-.134-.717-.265-1.063-.4-.76-.284-1.371-.525-1.88-.775a5.586,5.586,0,0,1-.914-.559c-1.368-1.085-1.451-3.048-1.405-3.976a7.715,7.715,0,0,0,.947-2c.012-.041.019-.086.03-.128.041.009.083.024.122.028a1.013,1.013,0,0,0,.148.01,1.489,1.489,0,0,0,1.2-.755,6.05,6.05,0,0,0,.692-2.683,2.552,2.552,0,0,0-.121-1.043,1.375,1.375,0,0,0-.166-.305c1.06-3.543,1.019-6.148-.143-7.726A3.521,3.521,0,0,0,20.157.241h-9.3A3.52,3.52,0,0,0,8.192,1.684C7.031,3.263,6.99,5.869,8.05,9.409a1.373,1.373,0,0,0-.166.3,2.548,2.548,0,0,0-.121,1.042,6.057,6.057,0,0,0,.7,2.692,1.485,1.485,0,0,0,1.2.749,1.032,1.032,0,0,0,.145-.01c.042-.005.087-.021.13-.03.011.043.018.087.03.129a7.718,7.718,0,0,0,.948,2c.046.925-.037,2.888-1.4,3.974a5.575,5.575,0,0,1-.912.559c-.514.254-1.125.5-1.887.781-.344.131-.7.262-1.06.4A20.858,20.858,0,0,0,.181,24.612a.534.534,0,0,0-.18.362.489.489,0,0,0,.006.145v2.505a3.621,3.621,0,0,0,3.617,3.617H27.39a3.621,3.621,0,0,0,3.617-3.617V25.16A.516.516,0,0,0,30.834,24.612ZM22.219,10.7a4.9,4.9,0,0,1-.534,2.185c-.124.193-.278.281-.344.273a.486.486,0,0,1-.112-.028l.219-3.061c.032-.02.061-.046.093-.063a.686.686,0,0,1,.5-.075.213.213,0,0,1,.126.146A1.633,1.633,0,0,1,22.219,10.7ZM9.664,13.164a.525.525,0,0,1-.332-.269A4.9,4.9,0,0,1,8.794,10.7a1.621,1.621,0,0,1,.056-.62.212.212,0,0,1,.125-.145.684.684,0,0,1,.5.074c.033.018.062.043.095.064l.218,3.058A.43.43,0,0,1,9.664,13.164Zm1.172.177-.005-.076v-.027l-.49-6.794a1.474,1.474,0,0,1,1.55-1.553,2.222,2.222,0,0,1,1.522.43,3.21,3.21,0,0,0,2.1.6.517.517,0,0,0,0-1.033,2.222,2.222,0,0,1-1.522-.43,3.21,3.21,0,0,0-2.1-.6,2.5,2.5,0,0,0-2.583,2.62l.176,2.454a1.688,1.688,0,0,0-.513-.039c-1.107-3.83-.6-5.693.043-6.581a2.475,2.475,0,0,1,1.844-1.037h9.3A2.467,2.467,0,0,1,21.988,2.3c.652.887,1.167,2.751.052,6.6a1.677,1.677,0,0,0-.513.039L21.7,6.5a2.973,2.973,0,0,0-.818-2.658C19.193,2.223,15.573,2.8,15.419,2.83a.517.517,0,0,0,.17,1.019c.9-.149,3.487-.306,4.578.742A2,2,0,0,1,20.674,6.4l-.488,6.839v.02l-.006.078a3.008,3.008,0,0,1-.116.648,6.424,6.424,0,0,1-2.371,3.351,2.562,2.562,0,0,1-1.487.468H14.81a2.562,2.562,0,0,1-1.487-.468,6.425,6.425,0,0,1-2.371-3.351A3.017,3.017,0,0,1,10.836,13.341Zm-.69,7.729A5.152,5.152,0,0,0,11.9,17.485a7.155,7.155,0,0,0,.815.694,3.6,3.6,0,0,0,2.092.662H16.2a3.607,3.607,0,0,0,2.093-.662,7.1,7.1,0,0,0,.815-.694,5.154,5.154,0,0,0,1.761,3.586,5.731,5.731,0,0,0,.7.459,8.541,8.541,0,0,1-5.287,3.9,3.785,3.785,0,0,1-1.576-.005,8.592,8.592,0,0,1-5.263-3.9A5.862,5.862,0,0,0,10.145,21.069Zm-1.632.923a9.527,9.527,0,0,0,5.974,4.443,4.84,4.84,0,0,0,1.024.11,4.738,4.738,0,0,0,.987-.1,9.507,9.507,0,0,0,6-4.452c.29.127.6.253.945.385A11.2,11.2,0,0,1,16.338,27.5a4.385,4.385,0,0,1-1.662,0,11.2,11.2,0,0,1-7.107-5.122C7.912,22.243,8.222,22.116,8.514,21.993ZM27.39,30.208H26.373a6.21,6.21,0,0,1,1.384-3.772.517.517,0,0,0-.732-.729,7.108,7.108,0,0,0-1.685,4.5H5.674a7.108,7.108,0,0,0-1.685-4.5.517.517,0,0,0-.732.729,6.2,6.2,0,0,1,1.384,3.772H3.624A2.586,2.586,0,0,1,1.04,27.624V25.255A21.979,21.979,0,0,1,6,22.963l.581-.217a12.311,12.311,0,0,0,7.9,5.765,5.442,5.442,0,0,0,2.055,0,12.314,12.314,0,0,0,7.9-5.766l.581.217a21.9,21.9,0,0,1,4.96,2.292l0,2.37A2.586,2.586,0,0,1,27.39,30.208Z" transform="translate(0.002 -0.241)" fill="#212121" stroke="#fff" stroke-width="0.3"/>
    </g>
  </g>
</svg>
