<svg xmlns="http://www.w3.org/2000/svg" width="44" height="44" viewBox="0 0 44 44">
  <g id="smile-svgrepo-com" opacity="0.4">
    <path id="Path_304" data-name="Path 304" d="M22,0A22,22,0,1,0,44,22,22.025,22.025,0,0,0,22,0Zm0,42A20,20,0,1,1,42,22,20.023,20.023,0,0,1,22,42Z"/>
    <circle id="Ellipse_114" data-name="Ellipse 114" cx="3.5" cy="3.5" r="3.5" transform="translate(10 11)"/>
    <circle id="Ellipse_115" data-name="Ellipse 115" cx="3.5" cy="3.5" r="3.5" transform="translate(26 11)"/>
    <path id="Path_305" data-name="Path 305" d="M33,24a1,1,0,0,0-1,1,10,10,0,0,1-20,0,1,1,0,0,0-2,0,12,12,0,0,0,24,0A1,1,0,0,0,33,24Z"/>
  </g>
</svg>
