<svg id="upload" xmlns="http://www.w3.org/2000/svg" width="12.25" height="14.225" viewBox="0 0 12.25 14.225">
  <g id="Group_71" data-name="Group 71">
    <g id="Group_70" data-name="Group 70" transform="translate(0)">
      <path id="Path_55" data-name="Path 55" d="M124.477,113.044a.5.5,0,0,0,.5-.5v-9.07l2.254,2.254a.5.5,0,0,0,.7-.706l-3.1-3.1a.5.5,0,0,0-.706,0l-3.1,3.1a.5.5,0,1,0,.706.706l2.254-2.254v9.07A.5.5,0,0,0,124.477,113.044Z" transform="translate(-118.352 -98.819)"/>
      <path id="Path_56" data-name="Path 56" d="M46.25.5a.5.5,0,0,0-.5-.5H34.5a.5.5,0,0,0,0,1H45.753A.5.5,0,0,0,46.25.5Z" transform="translate(-34)"/>
    </g>
  </g>
</svg>
