<svg width="20" height="13" viewBox="0 0 20 13" fill="none" xmlns="http://www.w3.org/2000/svg">
<path d="M19.8729 5.98463C19.6942 5.74021 15.4371 0 9.99991 0C4.56275 0 0.305392 5.74021 0.126914 5.98439C-0.0423048 6.21627 -0.0423048 6.53076 0.126914 6.76264C0.305392 7.00705 4.56275 12.7473 9.99991 12.7473C15.4371 12.7473 19.6942 7.00701 19.8729 6.76283C20.0424 6.531 20.0424 6.21627 19.8729 5.98463ZM9.99991 11.4286C5.99486 11.4286 2.52606 7.61869 1.49922 6.37318C2.52473 5.12658 5.98627 1.31868 9.99991 1.31868C14.0048 1.31868 17.4733 5.1279 18.5006 6.37408C17.4751 7.62065 14.0136 11.4286 9.99991 11.4286Z" fill="#686868"/>
<path d="M9.99903 2.41757C7.8177 2.41757 6.04297 4.1923 6.04297 6.37364C6.04297 8.55497 7.8177 10.3297 9.99903 10.3297C12.1804 10.3297 13.9551 8.55497 13.9551 6.37364C13.9551 4.1923 12.1804 2.41757 9.99903 2.41757ZM9.99903 9.01099C8.54473 9.01099 7.36168 7.8279 7.36168 6.37364C7.36168 4.91938 8.54477 3.73629 9.99903 3.73629C11.4533 3.73629 12.6364 4.91938 12.6364 6.37364C12.6364 7.8279 11.4533 9.01099 9.99903 9.01099Z" fill="#686868"/>
</svg>
