<svg xmlns="http://www.w3.org/2000/svg" width="25.725" height="27.333" viewBox="0 0 25.725 27.333">
  <g id="Group_39" data-name="Group 39" transform="translate(-15.908 -12.962)">
    <path id="Path_24" data-name="Path 24" d="M9.774,65.63V53.27a1.327,1.327,0,0,1,1.216-1.306,2.075,2.075,0,0,1,1.116.312L34.771,64.667a1,1,0,0,1,0,1.927L12.105,78.986a2.076,2.076,0,0,1-1.116.311,1.326,1.326,0,0,1-1.216-1.3Z" transform="translate(6.134 -39.002)" fill="#fff" fill-rule="evenodd"/>
    <path id="Path_25" data-name="Path 25" d="M24.349,65.711,10.627,51.989a.925.925,0,0,1,.214-.025,2.075,2.075,0,0,1,1.116.312l16.7,9.128Z" transform="translate(6.283 -39.002)" fill="#fff" fill-rule="evenodd"/>
    <path id="Path_26" data-name="Path 26" d="M26.513,68.512l-4.2-4.2L26.618,60l5.966,3.263a1,1,0,0,1,0,1.927Z" transform="translate(8.321 -37.6)" fill="#fff" fill-rule="evenodd"/>
    <path id="Path_27" data-name="Path 27" d="M10.746,77.252l.013-.012,13.57-13.571,4.2,4.2-16.6,9.072a2.076,2.076,0,0,1-1.116.311Q10.783,77.255,10.746,77.252Z" transform="translate(6.304 -36.96)" fill="#fff" fill-rule="evenodd"/>
  </g>
</svg>
